<svg xmlns="http://www.w3.org/2000/svg" viewBox="0 0 421.38 221.05"><defs><style>.a{fill:#d49f60;}.b{fill:#a46a35;}.c{fill:#daa96e;}.d{fill:#b77e45;}.e{fill:#e1b47a;}.f{fill:#ecc78e;}.g{fill:#e6bb80;}.h{fill:#ae743c;}.i{fill:#d29d60;}.j{fill:#cb975d;}.k{fill:#c1894f;}.l{fill:#dcad73;}.m{fill:#d6a468;}.n{fill:#c68f52;}.o{fill:#f0cf9c;}.p{fill:#c99357;}.q{fill:#f4daad;}</style></defs><title>band-aid</title><path class="a" d="M12.29,25.44l4.55-4c2.35-.7,3.29-6.9,7.36-1.55,1.25,1.65,6-1.25,6.14-3.25,0.14-2.83.56-5.65,0.87-8.48v0C33.46,9,35.73,9.87,38,10.84a13.23,13.23,0,0,1,2.22,1.55A22,22,0,0,0,40.1,9a26.7,26.7,0,0,0-1-3.48C41.77,4.95,45.78,3,47,4.07c2.8,2.59,4.28,1.77,6.57-.06A4.46,4.46,0,0,1,57,3.28c4.44,1.24,8.78,2.81,13.19,4.19,5.42,1.7,10.86,3.32,16.29,5,1.08,3.66-.68,8.08,3,11h-5a44.91,44.91,0,0,0-4.26-3.33,12.57,12.57,0,0,0-3.27-1,27.15,27.15,0,0,1,.23,3.71c-0.1,1.54-.46,3.05-0.71,4.58-7.55,1.88-2.8,7.1-3,11l-4,2q0-.5,0-1a4,4,0,0,0-.86-1.69,5.57,5.57,0,0,0-2.13-.32l-3,2-0.13.11c-2.43-1.55-3-.34-2.93,1.94-4.13-2.31-7.92-4.85-7.86-10.39A3.32,3.32,0,0,0,51.2,29a1.76,1.76,0,0,0-1.71.29,3.57,3.57,0,0,0-.09,2.13c0.64,3.36,1.36,6.7,2,10C50,43,47.47,44.32,47.24,46c-0.37,2.71.74,5.63,1.23,8.46L47.1,58.92c4.54,0.54,2.76,4.38,3.65,6.87a60.81,60.81,0,0,0,2.69,5.7h0l1,2,4,5-3-1-11-4c-0.6.75-1.24,1.47-1.77,2.26a6.51,6.51,0,0,0-.53,1.54,7.26,7.26,0,0,1-1.5-.93A22.79,22.79,0,0,1,39,74.27L38.42,77.5c-2-2.71-3.91-5.5-6.06-8.08a11.57,11.57,0,0,0-3.79-2.82c-0.32-.16-1.39,1.21-2.12,1.88-1.65-1.2-3.76-2.12-4.78-3.73-0.54-.85.85-2.88,1.26-4.41a36.68,36.68,0,0,0,1.39-6.27c0.07-.78-0.93-1.9-1.73-2.46-3-2.06-6.25-3.69-9-6-1.26-1.09-1.47-3.4-2.16-5.15,2.64-.45,6.95,1.61,6.22-4a16.1,16.1,0,0,0-1.32-5.28A47.18,47.18,0,0,0,12.29,25.44Zm31.59,36.8C42.32,59,40.39,54.71,38,50.63c-0.33-.56-2.76,0-4.18.23-0.4.06-.68,0.81-1,1.25,2.29,1.69-.42,7.27,5.07,6.55a2.83,2.83,0,0,1,.83,1.23c-5.72,4.66,2.49,3.18,2.48,5.43,0,0.51,1.5,1,2.3,1.53Zm26.9-30.61c-0.67-.78-1.08-1.68-1.62-1.76a2.06,2.06,0,0,0-1.51,1.23,6.93,6.93,0,0,0,1.3,2.17ZM35.84,13.73l0.83,0.36A1.63,1.63,0,0,0,37,13.28a1.62,1.62,0,0,0-.78-0.38Z"/><path class="b" d="M411.6,194.87c-5.4,9.75-12.77,17.4-23.16,21.85a11.29,11.29,0,0,0-.06-3.45,30.79,30.79,0,0,0-2.27-4.42c-0.93,1.18-1.91,2.32-2.77,3.55-2,2.86-3.93,5.76-5.89,8.65l-13.25,0q2.39-2.71,4.78-5.42c1.48-1.68,2.65-2.92,4.54-.08,0.83,1.24,3.14,1.53,4.84,2.09a4.46,4.46,0,0,0,1-1.94c-1.15-1.17-2.36-2.66-3.83-3.06-5-1.38-8.21-6.14-7-11.14L367.15,196l3.3,0.49q0,0.48,0,1l3,1.05c4-.07,3.06-2.35,2.15-4.72a14.75,14.75,0,0,1-.52-2.72,11.86,11.86,0,0,1,3.17.41c1.19,0.49,2.13,1.58,3.32,2.07,1.4,0.58,3.86,1.55,4.27,1,1.25-1.52,2.81-4.05,2.3-5.49-1.34-3.74-3.72-7.1-5.69-10.61l-4.95-6a7.45,7.45,0,0,1,0-1l12,6c-0.13,1.17-.74,2.59-0.29,3.48,1.52,3,.75,8.81,5.82,7.92,6.55-1.15,3.14-6.57,2.91-10.45a20.16,20.16,0,0,1,.12-2.31c0.57,0.63,1.45,1.17,1.65,1.9,1.19,4.33,3.16,7.05,8.43,6.11,1-.17,3.09,2.55,3.59,4.25C412.3,190.35,411.69,192.69,411.6,194.87Z"/><path class="c" d="M111.06,135.73l-9.81-2.93c-0.17-3.19-.36-6.37-0.51-9.56a16.46,16.46,0,0,1,0-2.69c0.16-1.37.43-2.73,0.66-4.09l-3.65-4.61-1.35,3.63c-1.56,0-4.68-2.37-3.43,2.19a7.77,7.77,0,0,1-1.56.81c-2.39,1.66-2.94,3.76-2.14,6.81a11.3,11.3,0,0,1-.17,3.42l-9.78-2.91c1-4.64.21-8.45-4.46-10.86-0.59-.3-0.32-2.27-0.46-3.46,2.17-.64,3.42-4.89,6.72-1.37a16.15,16.15,0,0,0,6.35,4.11c3.43,1.17,8.05-2.63,7.89-6.21s-0.5-7-3.66-10.12c-2.29-2.28-2.29-6.86-3.31-10.41-0.67-1.17-1.28-2.37-2-3.49S84,81.73,84.24,81c0.41-1.44,1.65-3.36,2.87-3.63s3,1.24,3.82,2.44c1.18,1.65,1.71,3.76,2.53,5.67,5.32,1.38,3.8,5.87,4.33,9.44,0.19,1.29.15,2.76,0.78,3.81a19.93,19.93,0,0,0,3.52,3.92c2.47,2.34,1.39,7.56,6.38,7.84a26.66,26.66,0,0,0,3.12-3.13c1.29-1.79,2.33-3.77,3.48-5.66l1.38,5.8q0,4.5,0,9,4.75,6,9.51,11.94a0.94,0.94,0,0,0,.48.07l-4,2c-3.66-1.62-7.28-3.37-11-4.78-1.17-.44-2.7.06-4.06,0.13a24.71,24.71,0,0,1,2.52,4.24A38.05,38.05,0,0,1,111.06,135.73Zm0.32-13.52L109.66,119c-0.6.64-1.75,1.35-1.69,1.91a4.69,4.69,0,0,0,1.69,2.35A7,7,0,0,0,111.38,122.21Z"/><path class="d" d="M339.46,213.42l-47-16.94,2.94-6,3.66-2.55c-1-.89-1.95-1.8-2.94-2.68-2.34-2.08-4.74-4.11-7-6.25a28.57,28.57,0,0,1-2.47-3l-2.23,3.48-1.69,2.23a9.78,9.78,0,0,1-1.23-2.32,13.14,13.14,0,0,1,0-2.93l3-4.94c1.59-1.71,2.59-2.53,4.17.45,1.69,3.17,4.48,5.75,6.79,8.59l0.52,0.16-0.39-.3c1.27-2.67,4.84-4.2,3.93-7.94h0l2,1c1.22,2.73,2.41,5.47,3.66,8.18,0.47,1,1.07,2,1.62,3-0.85,0-2-.36-2.49.06a14.69,14.69,0,0,0-3.49,4.1c-0.18.33,1.75,1.78,2.7,2.72,0.83,2.07,2.83,4.54,2.28,6.14-1.35,3.91,2,2.4,3.07,3.4a36.57,36.57,0,0,0,1.62-3.86,22.68,22.68,0,0,0,.51-3.49,32.83,32.83,0,0,1,4.09,1.53c0.88,0.46,1.71,2.05,2.27,1.92,5-1.22,6.66-.09,7.2,5.11a18,18,0,0,0,.72,2.76c0.92-.44,1.86-0.84,2.75-1.33,2.06-1.12,4.09-2.3,6.16-3.4a13.8,13.8,0,0,1,2.14-.73c-0.52-.68-1-1.38-1.58-2s-1.15-1.19-1.73-1.77c0.8-.73,1.59-2.08,2.4-2.09,3.09,0,6.77-1.33,8.31,3.2a3.37,3.37,0,0,0,3,1.38c0.82-.26,1.67-1.92,1.64-2.94,0-1.37-1.3-2.69-1.37-4.06-0.18-3.64-3.21-7.77,1.49-10.74l2,2a54.47,54.47,0,0,0-.8,6.3c0,1.25-1.36,4.69,2.43,2.28a8.54,8.54,0,0,1,1.39,1.4c0.29,1.86.55,3.72,0.87,5.57,0.27,1.55,1.07,3.17.83,4.63-0.68,4.15-5.87,6.6-9.87,5.07-1.06-.41-3.1-0.77-3.33-0.37A40.47,40.47,0,0,0,339.46,213.42ZM339,201.21l-0.81-.35a0.63,0.63,0,0,0,.46,1.16Z"/><path class="a" d="M59.42,118.61c-8.62-4-17.91-5.77-27-8.24a2.72,2.72,0,0,1-.18-1.38,24.94,24.94,0,0,1,2.58-2c-1.21-.26-2.43-0.49-3.63-0.79-2.25-.56-4.5-1.15-6.75-1.73,0.95-.43,1.88-0.91,2.85-1.27,1.89-.69,3.81-1.31,5.72-2-1.76-.92-3.52-1.87-5.3-2.77-1.41-.71-2.85-1.35-4.28-2l2-11,5-2,3.61-2.29c1.15,2.25,2.21,4.56,3.48,6.74a44.26,44.26,0,0,0,3,4.08l0.94-1.57,7-1c1.1,0.54,2.64.78,3.24,1.66,2.73,4,5.19,8.22,7.75,12.35l1.45,4.4c-3,.76-3,1.73-0.27,3a7.41,7.41,0,0,1-.3,1.57C60,114.52,59.72,116.57,59.42,118.61ZM44.62,93.24A10.87,10.87,0,0,0,43,95.94a2.07,2.07,0,0,0,1.25,1.36c0.75-.22,1.84-0.83,1.93-1.41S45.37,94.45,44.62,93.24Z"/><path class="e" d="M86.47,12.44C81,10.79,75.6,9.16,70.19,7.47,65.78,6.09,61.44,4.52,57,3.28A4.46,4.46,0,0,0,53.53,4c-2.3,1.83-3.77,2.65-6.57.06-1.18-1.09-5.18.88-7.91,1.46A26.7,26.7,0,0,1,40.1,9a22,22,0,0,1,.07,3.38A13.23,13.23,0,0,0,38,10.84c-2.22-1-4.49-1.8-6.75-2.69A31.68,31.68,0,0,1,61.59,1.31c21.87,6.17,43.19,14.29,64.73,21.6l2.1,0.73,3.92,1.16,3.34,1.47,2.73,0.47,1.24,0.59,1.69,0.42,3.17,1.38a3,3,0,0,1,.94.26l11.91,8c3.14,0.46,7.41-1.32,8.06,4.07-2-.06-2.43.06-1.87,2.67,1.53,7.13,1.17,7.2-5.12,6.32L158,50.26l0.41,0.22,5,7-4,1-9-4c-0.8-1-2.17-1.91-2.3-3a35.41,35.41,0,0,1,.32-6.48,12.39,12.39,0,0,0,2.39.71,2.83,2.83,0,0,0,2.07-.39c0.58-.64,1.22-1.81,1-2.48-0.44-1.33-1.55-3.54-2.22-3.48-1.78.16-3.47,1.32-5.2,2.09-0.77-2.72-.75-7-2.45-7.86-4.9-2.46-10.49-3.52-15.81-5.14-0.94-.29-1.87-0.64-2.8-1-3-2.06-5.8-4.95-10-3l-7-4c-0.79-.15-1.85,0-2.31-0.49-3.59-3.62-7.89-4.43-12.7-3.56h0l-2-1.89Z"/><path class="f" d="M174.44,39.56l25.44,8.35q24.6,8,49.21,16.1a37.28,37.28,0,0,1,4.43,2.11c3.11,3.4,6.11,6.93,9.47,10.07,0.48,0.45,2.67-1.1,4.13-1.48a10.37,10.37,0,0,1,2.85.06c-0.38,4.24,3.22,3.59,5.55,4.86,4.83,2.62,9.33,5.85,14,8.84l-2.77,1.92c-2-5-6.8-2.7-10.26-3.88l-7-5c-2.32-2.51-4.65-3.82-7-.05l-6-4c-4-3.64-8.2-6.6-14-4l0-2c0.29-.55.86-1.58,0.83-1.6a100.51,100.51,0,0,0-9.56-5.58c-2.89-1.36-6.78-1.37-8.93-3.37a10.44,10.44,0,0,0-9.14-3.09c-3.39.45-6.8,1.85-9.51-1.69-0.11-.15-1.76.87-2.7,1.35h-1l-3-1c-2.67,1.14-4.63,2.15-7.73-.62-2.65-2.36-7.42-2.35-11.25-3.38a16.19,16.19,0,0,1,2.41-2.5,29.29,29.29,0,0,1,3.85-1.91c-1-1.17-1.85-2.66-3.11-3.46C180.65,42.76,177.5,41.22,174.44,39.56ZM204.9,53a13.09,13.09,0,0,0-2.15-1.43,3,3,0,0,0-1.36.21,23.37,23.37,0,0,0,2,1.84A4.49,4.49,0,0,0,204.9,53Z"/><path class="g" d="M289.47,88.45c-4.63-3-9.13-6.22-14-8.84-2.33-1.26-5.93-.62-5.55-4.86a10.37,10.37,0,0,0-2.85-.06c-1.46.38-3.65,1.93-4.13,1.48-3.36-3.14-6.35-6.66-9.47-10.07,7.41,2.34,14.82,4.65,22.21,7q19.06,6.16,38.09,12.41,21,6.94,42,14.05a18.22,18.22,0,0,1,3,1.66l-4.34,1.22-3-1-4-2-2-.05c-3.43-3.17-7-5-11-.9-3.06-5.51-8.81-5.72-14-7.1a1.89,1.89,0,0,0-.29-0.91q-8.48-3-17-5.81a1.28,1.28,0,0,0-1.12.59,1.47,1.47,0,0,0,.53,1.23,16,16,0,0,0,3.26,2c4.08,1.64,4.54,3.55.64,6l-15-2.05Z"/><path class="h" d="M411.6,194.87c0.09-2.18.7-4.52,0.11-6.5-0.5-1.7-2.62-4.42-3.59-4.25-5.27.94-7.24-1.79-8.43-6.11-0.2-.73-1.08-1.27-1.65-1.9a20.16,20.16,0,0,0-.12,2.31c0.23,3.89,3.64,9.31-2.91,10.45-5.07.89-4.3-4.93-5.82-7.92-0.45-.88.16-2.3,0.29-3.48,1.24-1.17,2.44-2.38,3.72-3.49a21.25,21.25,0,0,1,2.25-1.52l2,1c1.88-1.43,3.68-3,5.65-4.24,1.5-1,3.88-2.69,4.73-2.18,5.23,3.14,2.54-.95,2.55-2.57h0l1-2-1-4c6.48,1.4,8,3.39,8,9.36,0,1.94,1,3.87,1.56,5.81Z"/><path class="e" d="M122.46,130.48l4-2,2-5,5-1,0.93,0,0,3c2.67,3.89,4.75,8.47,8.2,11.46,2.61,2.26,7,2.53,10.59,3.53,0.21,0.06.81-1.32,1.23-2l2,0q0,0.49,0,1l2,2,0,0.06c0.78,3.19,2.36,5.22,6.09,5.14,1.28,0,2.71,1,3.84,1.89a13,13,0,0,1,2.12,2.82c-1.32-.06-2.63-0.09-3.95-0.19s-3.43-3.75-4.05.71q-18.43-5.71-36.86-11.41c-1.38-.42-2.79-0.72-4.19-1.07Z"/><path class="i" d="M23.44,96.47c1.43,0.67,2.87,1.31,4.28,2,1.78,0.89,3.53,1.84,5.3,2.77-1.91.65-3.83,1.26-5.72,2-1,.36-1.9.84-2.85,1.27l-5.22-.77v0a7.94,7.94,0,0,0-.78-2.69c-1.68-2.22-5.18-4.39-5.06-6.4,0.45-7.16-2.51-3.6-5.06-2.09l0.05,0L7.32,90.51l0,0.07-2-4.08c-5.85-13.87-8-27.81-.9-42,1,3.64-1.38,8.21,3,10.93C6.75,57.25,5,59.57,5.55,60.7c1.86,3.66,4.52,6.93,7,10.26a25.47,25.47,0,0,0,3.08,3,19.44,19.44,0,0,0-3,2c-1,.92-1.54,2.21-2.47,3.16a12,12,0,0,1-2.43,1.53,28.9,28.9,0,0,0,3.58,1c1.7,0.24,4.68-.21,4.94.47,1.41,3.65,6.88,5.75,4.4,11.06C20.38,93.71,22.45,95.34,23.44,96.47ZM6.21,73.17c1.12,0.4,1.93,1,2.54.82a2.39,2.39,0,0,0,1.4-1.69c0.06-.48-0.79-1.08-1.24-1.63Z"/><path class="h" d="M339.46,213.42a40.47,40.47,0,0,1,2.47-6c0.24-.4,2.27,0,3.33.37,4,1.54,9.19-.92,9.87-5.07,0.24-1.46-.56-3.07-0.83-4.63-0.32-1.85-.58-3.71-0.87-5.57l2.19-1.51,0.83,2.49c0.54,2.2-.56,6.33,4.25,3.62a2.25,2.25,0,0,1,1.57,1.07c-0.56,6,2.82,4.59,6.14,3.31-1.17,5,2,9.77,7,11.15,1.46,0.4,2.68,1.89,3.83,3.06a4.46,4.46,0,0,1-1,1.94c-1.69-.56-4-0.84-4.84-2.09-1.9-2.84-3.07-1.6-4.54.08s-3.18,3.61-4.78,5.42Z"/><path class="j" d="M30.45,83.48l-5,2h0c-0.8-1.48,2-5.69-3-4-0.88-1.14-2.37-2.19-2.54-3.42-0.85-6.18-6.3-11.79-2.44-18.57l1.47-1.27-2.48-.74-5-3c0.2-5.35.32-10.66-6-13L8.21,32.3l3.27,8.15c0.69,1.76.9,4.07,2.16,5.15,2.71,2.33,6,4,9,6,0.8,0.56,1.79,1.68,1.73,2.46a36.68,36.68,0,0,1-1.39,6.27c-0.41,1.53-1.8,3.56-1.26,4.41,1,1.61,3.13,2.52,4.78,3.73L28,69.24l-1.57,1.23L24.9,71.69l1.5,0.8,0,0,3,8Z"/><path class="i" d="M74.45,111.48c0.13,1.19-.13,3.15.46,3.46,4.68,2.41,5.47,6.22,4.46,10.86l-10-3.23c-0.6-3-1.16-6.09-1.8-9.12-0.8-3.8-1.25-7.75-2.62-11.34-1.78-4.69-4.32-9.1-6.53-13.63l-3-9v-2l3,1c3.67,3.53,6.41,7.46,5.92,12.94a3.91,3.91,0,0,0,.94,3C71.08,98.72,74.23,104.28,74.45,111.48Z"/><path class="c" d="M230.44,174.51L194.5,162.22c2.22,0.19,4.43.51,6.65,0.51,0.89,0,1.77-.71,2.66-1.1-0.54-.71-1-1.46-1.62-2.12-1.56-1.7-3.17-3.35-4.75-5,2.49-.68,4.13,4.76,7,1l15.91,5.13,2,2c-0.18.81-.69,2.23-0.47,2.34a20.45,20.45,0,0,0,5.62,2.52C231.89,168.28,233,170.75,230.44,174.51Z"/><path class="k" d="M281.48,176.46a13.13,13.13,0,0,0,0,2.93,9.78,9.78,0,0,0,1.23,2.32l1.69-2.23c4.4,4.5,4.4,10.11,4,15.82l-27-9.84,4-5.91,7,0.94h1v-2l3.41,1.42a31.65,31.65,0,0,1,.39-3.71,35.27,35.27,0,0,1,1.21-3.69h1l0,1ZM284.9,185a9.27,9.27,0,0,0-1.3,2.4,3.53,3.53,0,0,0,.74,1.56,11.88,11.88,0,0,0,1.68-2.07C286.14,186.61,285.5,186,284.9,185Z"/><path class="l" d="M354.45,102.5l4.34-1.22c12.9,4.29,25.88,8.32,38.62,13,3.48,1.29,6.21,4.64,9.28,7l-1.24,1.13c-1.16-.93-2.29-1.89-3.48-2.76a25.59,25.59,0,0,0-2.25-1.34c-2,3.61-2.69.61-3.77-.74-2.87-3.6-8.61-5-12.5-3.06l-3-.08c-2.61-3.4-4.35-1.51-6,1-0.55-.3-1.62-0.66-1.59-0.89,0.65-5.2-1.54-6.87-6.47-5.5-0.38.11-1-.65-1.52-1-1-.78-2-1.59-3.05-2.38l-1.36,3.83-2.92,1.92Z"/><path class="c" d="M162.5,151.86c0.62-4.46,2.63-.82,4.05-0.71s2.63,0.13,3.95.19a13,13,0,0,0-2.12-2.82c-1.12-.87-2.56-1.92-3.84-1.89-3.73.08-5.31-1.95-6.09-5.14l17,4,2,1c0.58,0.93.94,2.33,1.77,2.7,4.28,1.92,5.88,5,4.91,9.55Z"/><path class="m" d="M230.44,174.51c2.57-3.75,1.46-6.23-2.86-7.1a20.45,20.45,0,0,1-5.62-2.52c-0.21-.12.3-1.53,0.48-2.35l15.06,3.8c1.4,4.28,7.79,8,14,8.12v2c0.92,3.59-1.8,3.49-4,3.95Z"/><path class="c" d="M58.45,88.47C60.66,93,63.2,97.41,65,102.1c1.37,3.59,1.81,7.54,2.62,11.34,0.64,3,1.2,6.08,1.8,9.12l-10-4c0.3-2,.6-4.09.92-6.13a7.41,7.41,0,0,0,.3-1.57c-2.75-1.3-2.77-2.28.27-3l-1.45-4.4c0.34-2.1,1-4.22.91-6.29-0.1-1.61-1.24-3.15-1.92-4.71v-4Z"/><path class="g" d="M174.44,39.56c3.06,1.67,6.21,3.2,9.15,5.06,1.26,0.8,2.09,2.28,3.11,3.46A29.29,29.29,0,0,0,182.86,50a16.19,16.19,0,0,0-2.41,2.5l-5-2q0-.48,0-1c-1.23-.88-2.51-2.56-3.68-2.49-4.18.26-6.27-1.3-6.32-5.51-0.65-5.39-4.93-3.61-8.06-4.07q0.07-1.6.13-3.2Z"/><path class="m" d="M184.13,158.72c1-4.52-.63-7.64-4.91-9.55-0.83-.37-1.19-1.77-1.77-2.7a16.21,16.21,0,0,1,3.83-1.16c2.38-.12,4.78.12,7.17,0.21l3-.09a7.86,7.86,0,0,1,.91.1,35.38,35.38,0,0,0,3.55,3.7c2.76,2.18,5.67,4.17,8.52,6.23-2.92,3.79-4.56-1.65-7-1-1.93-1-3.82-2.2-5.82-3.08a12.64,12.64,0,0,0-3.26-.52c0.31,1,.57,2,0.94,2.9,1,2.61,2.09,5.19,3.15,7.79l-7-2.15-1.16-.8Z"/><path class="d" d="M420.1,173.67c-0.55-1.94-1.55-3.87-1.56-5.81,0-6-1.57-8-8-9.36l-3-18c2.33,3.18,4.49,6.51,7.06,9.49,1.28,1.48,3.29,2.33,5,3.46l0.94,4.07,0.91,2Z"/><path class="n" d="M288.45,195.29c0.4-5.71.39-11.32-4-15.82l2.23-3.48a28.57,28.57,0,0,0,2.47,3c2.29,2.14,4.68,4.17,7,6.25,1,0.88,2,1.79,2.94,2.68l-3.66,2.55-0.22-.41-0.18.18,0.4,0.23-2.94,6Z"/><path class="e" d="M91.46,118.48a7.77,7.77,0,0,0,1.56-.81c-1.26-4.55,1.86-2.15,3.43-2.19h0l1.25,2.79,1.76-1.79,2,0c-0.23,1.36-.5,2.72-0.66,4.09a16.46,16.46,0,0,0,0,2.69c0.15,3.19.34,6.37,0.51,9.56l-7.87-2.25c0.7-1.33,2.25-2.91,1.94-3.93C94.44,123.78,92.8,121.17,91.46,118.48Z"/><path class="l" d="M122.46,130.48l-1,8.9-10.38-3.65a38.26,38.26,0,0,0-1.16-5.65,24.71,24.71,0,0,0-2.52-4.24c1.36-.07,2.89-0.57,4.06-0.13C115.18,127.11,118.79,128.87,122.46,130.48Z"/><path class="c" d="M420.44,157.47l-0.94-4.07c-0.24-1.74-.1-3.65-0.78-5.2-2.11-4.78-5-9.25-6.67-14.17-1.08-3.24-1.23-6.45-5.6-6.56h-1q0-2.5,0-5l1.24-1.13,5.88,6.76,0.9,1.34c5.89,8.43,7.78,18,7.91,28Z"/><path class="c" d="M11.47,40.45L8.21,32.3l4.08-6.85a47.2,47.2,0,0,1,4.08,5.74,16.1,16.1,0,0,1,1.32,5.28C18.42,42.06,14.12,40,11.47,40.45Z"/><path class="e" d="M192.44,161.58c-1.05-2.59-2.12-5.18-3.15-7.79-0.37-.95-0.63-1.93-0.94-2.9a12.64,12.64,0,0,1,3.26.52c2,0.89,3.89,2,5.82,3.08,1.59,1.67,3.2,3.32,4.75,5,0.6,0.65,1.08,1.41,1.62,2.12-0.89.39-1.77,1.1-2.66,1.1-2.22,0-4.43-.32-6.65-0.51Z"/><path class="j" d="M247.48,180.42c2.18-.46,4.91-0.36,4-3.95l13,3q0.48,0,.95.08l-4,5.91Z"/><path class="e" d="M31.2,8.18c-0.3,2.83-.73,5.64-0.87,8.48-0.1,2-4.89,4.9-6.14,3.25-4.07-5.35-5,.85-7.36,1.55,1.65-2.43,2.93-5.28,5.05-7.17C24.63,11.85,28.06,10.18,31.2,8.18Z"/><path class="c" d="M5.45,41.47c6.33,2.32,6.22,7.64,6,13,0,5.45-2.76.34-4,1-4.36-2.72-2-7.29-3-10.93Z"/><path class="i" d="M91.46,118.48c1.34,2.7,3,5.3,3.85,8.14,0.31,1-1.24,2.6-1.94,3.93l-2.94-1.15-1.16-.76-0.12.06a11.32,11.32,0,0,0,.17-3.41C88.53,122.24,89.08,120.14,91.46,118.48Z"/><path class="h" d="M377.44,221c2-2.89,3.9-5.79,5.89-8.65,0.86-1.23,1.84-2.37,2.77-3.55a30.79,30.79,0,0,1,2.27,4.42,11.29,11.29,0,0,1,.06,3.45Z"/><path class="j" d="M8.33,92.56c2.54-1.51,5.51-5.07,5.06,2.09-0.13,2,3.38,4.18,5.06,6.4a7.94,7.94,0,0,1,.78,2.69Z"/><path class="j" d="M19.23,103.71l5.22,0.77c2.25,0.58,4.49,1.18,6.75,1.73,1.2,0.3,2.42.53,3.63,0.79a24.94,24.94,0,0,0-2.58,2,2.72,2.72,0,0,0,.18,1.38Z"/><path class="o" d="M157.51,34.22q-0.07,1.6-.13,3.2l-11.91-8Z"/><path class="j" d="M5.37,86.51l2,4.08Z"/><path class="o" d="M144.52,29.14l-3.17-1.38Z"/><path class="o" d="M135.69,26.27l-3.34-1.47Z"/><path class="j" d="M420.44,157.47l0.94,0,0,2Z"/><path class="o" d="M128.42,23.64l-2.1-.73Z"/><path class="j" d="M7.32,90.51l1.06,2.07Z"/><path class="o" d="M139.65,27.34l-1.24-.59Z"/><path class="c" d="M184.28,158.63l1.16,0.8Z"/><path class="c" d="M89.27,128.64l1.16,0.76Z"/><path class="l" d="M413.47,129.46l-0.9-1.34Z"/><path class="m" d="M115.44,24.5c4.22-2,7,.91,10,3a31.78,31.78,0,0,0-.71,4.87,3.67,3.67,0,0,0,1.31,2.31c0.31,0.28,1.26,0,1.87-.21,0.93-.29,1.82-0.71,2.72-1.08-0.27,1-.59,2-0.78,3s0,2.34-.48,3.33c-0.93,2.08-1.71,5-3.37,5.74-1.44.63-4-1.24-6.07-2.08a13.31,13.31,0,0,1-1.9-1.16,6.71,6.71,0,0,0-.38,2.31A8.09,8.09,0,0,0,119,48.17c4.77,5.39,4.54,11.1,1.45,17.11-0.27.53-.57,1.06-0.86,1.59a16.09,16.09,0,0,1-1-1.83,23.55,23.55,0,0,1-.72-2.31c-0.45.93-1.35,1.92-1.24,2.77,0.14,1.09,1.33,2,1.64,3.13a8.69,8.69,0,0,1,0,3.51,2.5,2.5,0,0,1-1.4.75,11.65,11.65,0,0,1-1.37-2.47c-1.38-3.63-2.7-7.29-4-10.93,1.94-3.69.33-6.94-1.19-10.24-1.69-3.66-3-7.54-5-11-0.77-1.29-3.2-1.62-4.9-2.29a2.5,2.5,0,0,0-1.22.38c0.91,0.53,2.19.85,2.64,1.64a12,12,0,0,1,1,4c0.34,2,.14,4.29.92,6.13,1.67,3.9,3.83,7.58,5.79,11.36l-5.6-1.09c0.56,5.69-2.38.39-3.42,1.09,1.13-4.93-7.85-6.72-3.94-12.63,0.21-.31-0.83-1.83-1.59-2.33-3.34-2.2-7.25-3.28-7.1-8.93,0.11-4-2.15-8.06-3.34-12.1h5l6.94-.31-1.95-4.7-1-1,0-1c4.81-.87,9.11-0.06,12.7,3.56,0.46,0.47,1.53.34,2.31,0.49,1.11,3,.86,5.39-1.81,7.86-0.89.82,0.29,4.25,1.09,6.27,0.22,0.55,2.6.65,3.81,0.32C117.58,33.32,114.39,28.1,115.44,24.5Z"/><path class="i" d="M93.45,85.48c-0.81-1.91-1.35-4-2.53-5.67-0.85-1.2-2.74-2.67-3.82-2.44S84.64,79.56,84.24,81c-0.21.73,1.47,1.93,2.18,3s1.36,2.32,2,3.49c-6.12.08-6.21-5.79-9-9-2.39-2.7-1.8-4.27,1.38-4.54,5.65-.48,5.42-5,6.41-8.65,0.17-.62-0.85-1.56-1.32-2.35a9.93,9.93,0,0,0-1.39,2.13c-1,3-6.24,6.46-7.71,4.78a101,101,0,0,1-7.44-10.34A40.66,40.66,0,0,1,67,55.09c-0.53,1.85-1.16,3.67-1.55,5.55a3.8,3.8,0,0,0,.35,2.42c2.13,3.84,2.7,7.72,1,11.91-0.13.32,1.82,2.09,2.27,1.9,4.35-1.78,3.27,1.79,4,3.74A39.29,39.29,0,0,0,75.75,85a4.25,4.25,0,0,1,.65,1.81c0,0.92-.6,2-0.25,2.72a45.68,45.68,0,0,0,3.3,4.93l1,4-2.87,2.8c-1.25-5.24-7.77-8.09-6.32-14.74,0.48-2.19-1.09-4.36-3.83-1.59-0.25.25-1.06-.06-1.61-0.1,1.81-5.69-4.49-7.85-5.38-12.36-1-1.82-2.07-3.65-3.12-5.47l-4.89-8.48c1.13-.13,2.4,0,3.34-0.48a12.82,12.82,0,0,0,2.66-2.54,4.73,4.73,0,0,1,.46-1.33c7.46,0.35,4.83-3.25,2.73-6.75a4.78,4.78,0,0,1-.17-2c1.45,0.69,3.9,1.1,4.17,2.11,1.64,6,2.62,1.29,3.81-.1L70.38,49,71,48.41l-1.51-.93v-7l4-2c1.78,2.31,3.68,4.54,5.27,7,0.6,0.93.47,2.33,0.67,3.52,0.35-1.33.65-2.68,1.08-4a12.63,12.63,0,0,1,1-2c0.47,0.43,1,.82,1.4,1.3,2.64,2.94-1.44,9.23,5.1,10.23a1,1,0,0,1-.09.47c-3.19,3.11.49,4.59,1.58,6.68,0.52,1,1.71,2.37,1.4,3-2.52,4.77-.22,2.36,2,1.7,2.77-.82,6.53,3.88,4.83,5.91-3.86,4.6,3.07,3.37,2.84,5.83l5.83,0.38v2l-5,3h-2l-1.83-2.89a19.65,19.65,0,0,0-2.29,2A26.94,26.94,0,0,0,93.45,85.48Z"/><path class="m" d="M60.45,72.48c0.89,4.51,7.19,6.67,5.38,12.36,0.55,0,1.36.35,1.61,0.1,2.73-2.77,4.3-.6,3.83,1.59-1.45,6.65,5.07,9.5,6.32,14.74l2.87-2.8h5c0.35,2.42.61,4.85,1.11,7.23a2.22,2.22,0,0,0,1.52,1.46A2.47,2.47,0,0,0,89.93,106c1.14-2.4-1.57-6.79-4.48-7.49,0.12-4.52-3.5-3.44-6-4a45.68,45.68,0,0,1-3.3-4.93c-0.35-.68.28-1.8,0.25-2.72A4.25,4.25,0,0,0,75.75,85a39.29,39.29,0,0,1-2.54-4.39c-0.77-1.94.3-5.52-4-3.74-0.45.19-2.4-1.59-2.27-1.9,1.66-4.2,1.1-8.08-1-11.91a3.8,3.8,0,0,1-.35-2.42c0.39-1.87,1-3.7,1.55-5.55a40.66,40.66,0,0,0,2.28,4.42,101,101,0,0,0,7.44,10.34c1.47,1.68,6.69-1.75,7.71-4.78A9.93,9.93,0,0,1,85.88,63c0.47,0.79,1.49,1.73,1.32,2.35-1,3.65-.77,8.17-6.41,8.65-3.18.27-3.77,1.84-1.38,4.54,2.83,3.21,2.92,9.08,9,9,1,3.55,1,8.13,3.31,10.41,3.16,3.15,3.49,6.44,3.66,10.12s-4.46,7.38-7.89,6.21a16.15,16.15,0,0,1-6.35-4.11c-3.3-3.53-4.55.72-6.72,1.37-0.22-7.19-3.37-12.76-9.14-17a3.91,3.91,0,0,1-.94-3c0.49-5.48-2.25-9.41-5.92-12.94l-4-5-1-2h0l0.83-2.54c0.61,0.39,1.21.81,1.84,1.16C57.55,70.91,59,71.69,60.45,72.48ZM81.37,89.63a3.7,3.7,0,0,0-.68,1.43,2.54,2.54,0,0,0,.85.93,2.72,2.72,0,0,0,.69-1.09A3.5,3.5,0,0,0,81.37,89.63Z"/><path class="m" d="M106.45,78.48l-5.83-.38c0.23-2.46-6.7-1.23-2.84-5.83,1.7-2-2.06-6.73-4.83-5.91-2.25.67-4.55,3.07-2-1.7,0.3-.58-0.88-2-1.4-3-1.09-2.09-4.77-3.57-1.58-6.68A1,1,0,0,0,88,54.56c-6.54-1-2.46-7.29-5.1-10.23-0.42-.47-0.93-0.87-1.4-1.3a12.63,12.63,0,0,0-1,2c-0.43,1.3-.73,2.65-1.08,4-0.2-1.19-.06-2.6-0.67-3.52-1.59-2.44-3.49-4.67-5.27-7,0.18-3.88-4.56-9.1,3-11a103.56,103.56,0,0,0,4.73,9.23c1.71,2.69,3.5,6,6.11,7.32,4.77,2.48,6.94,6.13,5.25,11.3a28.17,28.17,0,0,0-.69,5.48L97,60.55c0.83,0,1.66-.05,2.49-0.08a25,25,0,0,0,3.1,3.53C110,69.89,110,69.85,106.45,78.48Zm-0.57-6.63,0.2-.64-0.36.1Z"/><path class="i" d="M99.44,60.47c-0.83,0-1.66,0-2.49.08l-5.11.26a28.17,28.17,0,0,1,.69-5.48c1.69-5.17-.48-8.82-5.25-11.3-2.61-1.36-4.4-4.63-6.11-7.32a103.56,103.56,0,0,1-4.73-9.23c0.25-1.53.61-3,.71-4.58a27.15,27.15,0,0,0-.23-3.71,12.57,12.57,0,0,1,3.27,1,44.91,44.91,0,0,1,4.26,3.33c1.2,4,3.45,8.1,3.34,12.1-0.15,5.65,3.76,6.73,7.1,8.93,0.76,0.5,1.8,2,1.59,2.33-3.91,5.91,5.07,7.7,3.94,12.63Z"/><path class="m" d="M58.44,92.47c0.68,1.57,1.82,3.11,1.92,4.71,0.13,2.07-.57,4.19-0.91,6.29-2.56-4.13-5-8.33-7.75-12.35-0.6-.88-2.13-1.12-3.24-1.66-0.31-1.1,4.21-2.9-.56-3.47-0.87-.1-2-1.66-2.24-2.71-0.63-3.23-.85-6.53-1.23-9.81l11,4v2c-1.53,2-.78,11.47,1.09,12.75A4.57,4.57,0,0,0,58.44,92.47Z"/><path class="m" d="M61.47,45.46a4.78,4.78,0,0,0,.17,2c2.1,3.5,4.73,7.11-2.73,6.75a4.73,4.73,0,0,0-.46,1.33c-1-1.49-4.55-1.1-2.8-5,0.48-1.09,1.46-8-4.19-9-0.69-3.35-1.41-6.69-2-10a3.57,3.57,0,0,1,.09-2.13A1.76,1.76,0,0,1,51.2,29a3.32,3.32,0,0,1,1.38,2.09c-0.05,5.54,3.73,8.08,7.86,10.39Z"/><path class="p" d="M51.46,41.47c5.65,1,4.67,7.9,4.19,9-1.75,4,1.78,3.56,2.8,5A12.81,12.81,0,0,1,55.78,58c-0.94.49-2.21,0.34-3.34,0.48l-4-4.07C48,51.62,46.86,48.71,47.24,46,47.47,44.32,50,43,51.46,41.47Z"/><path class="c" d="M30.45,83.48l-1-3L32,74.92l-5.55-2.4,0,0q0-1,0-2L28,69.24l-1.56-.77c0.73-.67,1.79-2,2.12-1.88a11.57,11.57,0,0,1,3.79,2.82c2.15,2.58,4.05,5.37,6.06,8.08L41.5,90.44,40.56,92a44.26,44.26,0,0,1-3-4.08c-1.27-2.18-2.33-4.49-3.48-6.74Z"/><path class="p" d="M41.5,90.44L38.42,77.5,39,74.27a22.79,22.79,0,0,0,1.66,2.09,7.26,7.26,0,0,0,1.5.93,6.51,6.51,0,0,1,.53-1.54c0.52-.8,1.17-1.51,1.77-2.26,0.38,3.28.61,6.58,1.23,9.81,0.2,1,1.37,2.6,2.24,2.71,4.77,0.57.25,2.37,0.56,3.47Z"/><path class="c" d="M43.88,62.24l-0.38,4.61c-0.81-.51-2.3-1-2.3-1.53,0-2.25-8.2-.77-2.48-5.43a2.83,2.83,0,0,0-.83-1.23c-5.5.72-2.78-4.85-5.07-6.55,0.34-.44.62-1.19,1-1.25,1.43-.23,3.86-0.79,4.18-0.23C40.39,54.71,42.32,59,43.88,62.24Z"/><path class="c" d="M48.47,54.45l4,4.07L57.33,67c1,1.82,2.08,3.65,3.12,5.47-1.45-.79-2.9-1.57-4.33-2.38-0.63-.36-1.23-0.77-1.84-1.16l-0.83,2.54a60.79,60.79,0,0,1-2.69-5.7c-0.89-2.49.89-6.33-3.65-6.87Z"/><path class="i" d="M94.44,18.47l1.95,4.7-6.94.31c-3.66-3-1.9-7.38-3-11l4.95,2.14,2,1.89h0q0,0.52,0,1Z"/><path class="p" d="M61.47,45.46l-1-4c-0.1-2.28.51-3.48,2.93-1.94l0.47,1.26a3,3,0,0,0,.35-0.26c-0.21-.38-0.45-0.74-0.69-1.1l3-2,3,2q0,0.5,0,1,0,3.5,0,7h0c-1.2,1.39-2.18,6.11-3.81.1C65.37,46.57,62.91,46.15,61.47,45.46Z"/><path class="m" d="M70.79,31.63l-1.84,1.64a6.93,6.93,0,0,1-1.3-2.17,2.06,2.06,0,0,1,1.51-1.23C69.7,29.94,70.12,30.85,70.79,31.63Z"/><path class="m" d="M69.45,39.48l-3-2a5.56,5.56,0,0,1,2.13.32A4,4,0,0,1,69.45,39.48Z"/><path class="e" d="M35.84,13.73l0.36-.83a1.62,1.62,0,0,1,.78.38,1.63,1.63,0,0,1-.32.81Z"/><path class="c" d="M53.45,71.48l1,2Z"/><path class="n" d="M405.46,127.47h1l1,12-1,0-5-1-0.41-.22,0.4,0.23c0,0.83,0,1.66,0,2.48a5.05,5.05,0,0,1-5.09,4.75,4.57,4.57,0,0,0-1.33.37,14.49,14.49,0,0,0,.71,2.13c0.78,1.53,2.49,4.25,2.36,4.34-4.77,3.28,0,6,.37,8.94a32.5,32.5,0,0,1-3.19,1.73,3.23,3.23,0,0,1-1-1.35c-0.42-1-.69-2.14-1-3.22-1.69.6-3.53,1-5,2-0.42.29-.06,2.61,0.62,3.46,3.2,4.06.4,5.06-2.8,6.06-4.29,1.34-4-2.8-5.69-4.63,0.68-.58,2-1.37,1.91-1.72a13.93,13.93,0,0,0-2.06-4.11,10.33,10.33,0,0,0-3.19-3.12c-1-.53-2.42-0.21-3.66-0.27,0.1,1.53-.1,3.17.39,4.56a27.23,27.23,0,0,0,2.66,4.64l1.05,6a7.59,7.59,0,0,0,0,1l-7.09-2v-1q0-1.5,0-3c0.09-.92.55-2.44,0.21-2.64a41.12,41.12,0,0,0-5.22-2.35l1.24-2.41-0.43-.2-0.81,2.6-7,4h-1l-1-2-1-1,0,0q0-1.5,0-3c9.8-1.08,9.83-1.11,8-8,2-1.08,4.45-1.71,5.77-3.32,2.84-3.47,10.06-.93,10.24-7.69,2.05,2.54,4.06,5.13,6.2,7.6,0.44,0.5,1.39.55,2.11,0.81a4,4,0,0,0,.57-1.74c-0.89-3.91-1.9-7.78-2.88-11.67-0.51-2.07,1.7-5.7-3.07-5.3,0-.89-0.34-2,0-2.62s1.94-1.9,2.23-1.71c4.49,2.86,4.5-.42,4.8-3.36,1.26,2.65,4.26,6.12,3.46,7.79-2.49,5.19,2.36,8.09,2.54,12.21h1L398,132.6q0.31-1.95.62-3.89l4.84,0.78,0.37,1.27,0.37-.24-0.74-1,1-2h1Z"/><path class="d" d="M370.44,170.51l7.09,2,4.95,6a55.66,55.66,0,0,1-1.12,6.48,3.86,3.86,0,0,1-2.14,1.5c-2-2.12-3.79-4.41-5.72-6.6-1.26-1.43-2.65-2.75-4-4.12,0.34,1.78.61,3.57,1,5.32,0.15,0.6,1,1.12,1,1.64-0.3,4.6-.73,9.2-1.12,13.79l-3.3-.49,1.28,5.48c-3.32,1.28-6.7,2.72-6.14-3.31a2.25,2.25,0,0,0-1.57-1.07c-4.82,2.7-3.71-1.42-4.25-3.62,2.79-.4,6.59.13,4.43-4.82a14.64,14.64,0,0,1,3.14-1.27c1.08-.18,2.75.61,3.26,0.1,0.89-.9,1.08-2.48,1.56-3.78-1.51-.34-3.14-1.22-4.51-0.93-3.9.85-5.92-.77-6.93-4.29l5-.94,4,0.21a22.85,22.85,0,0,0-.43-3.19c-1.36-4.92,0-7.5,4.46-8.07l0,3h0a1.37,1.37,0,0,0-.38.28,4.75,4.75,0,0,0,.35.73v0Z"/><path class="d" d="M377.5,171.52l-1.05-6,3.95,0c1.66,1.83,1.4,6,5.69,4.63,3.2-1,6-2,2.8-6.06-0.68-.86-1-3.17-0.62-3.46,1.43-1,3.28-1.35,5-2,0.33,1.08.6,2.18,1,3.22a3.23,3.23,0,0,0,1,1.35,32.48,32.48,0,0,0,3.19-1.73,14.28,14.28,0,0,0,1.52-2.81,14.52,14.52,0,0,0,.22-3.21,16.93,16.93,0,0,1,2.58,1.66c2.59,2.4,5.11,4.89,7.65,7.35,0,1.62,2.67,5.71-2.55,2.57-0.85-.51-3.23,1.21-4.73,2.18-2,1.27-3.78,2.81-5.66,4.24l-2-1A21.25,21.25,0,0,0,393.2,174c-1.28,1.12-2.49,2.32-3.72,3.49Z"/><path class="h" d="M370.45,196.48c0.39-4.6.82-9.19,1.12-13.79,0-.52-0.86-1-1-1.64-0.44-1.75-.71-3.54-1-5.32,1.33,1.37,2.72,2.69,4,4.12,1.92,2.19,3.73,4.48,5.72,6.6a3.86,3.86,0,0,0,2.14-1.5,55.67,55.67,0,0,0,1.12-6.48c2,3.51,4.35,6.87,5.69,10.61,0.52,1.44-1,4-2.3,5.49-0.42.51-2.87-.46-4.27-1-1.19-.49-2.13-1.58-3.32-2.07a11.86,11.86,0,0,0-3.17-.41,14.75,14.75,0,0,0,.52,2.72c0.92,2.36,1.89,4.65-2.15,4.71l-3-1.05Q370.44,197,370.45,196.48Z"/><path class="d" d="M370.43,197.44l3,1.05Z"/><path class="l" d="M99.45,83.47h2c0.87,3.57,2.53,4.66,5.65,1.95a19.48,19.48,0,0,1,3.36-1.93c1.61,0.46,4.09.43,4.69,1.47,2.6,4.53,6.89-.06,9.73,2.19,0.56-1.67,1.95-3.65,1.47-4.93-0.6-1.6-3.09-2.41-4.11-4s-1.38-3.79-2-5.72c1.62-.53,3.45-1.81,4.82-1.43,2.24,0.62,4.18,2.3,6.25,3.55,0.57,0.34,1.13.71,1.69,1.07l2.84-5.24c-0.84-.32-1.72-1-2.5-0.91-4.66.62-5.72-2.18-5.83-5.91a9.9,9.9,0,0,1,.47-2.28c0.66,0.42,1.33.81,2,1.26,2.22,1.54,4.29,3.4,6.71,4.49,0.91,0.41,3-.63,3.83-1.62a4.38,4.38,0,0,0,.16-3.86c-1.87-3.81-4.09-7.44-6.18-11.14,0.24-.7.87-1.59,0.64-2.06a33,33,0,0,0-2.64-3.94c0.57-.55,1.19-1.07,1.71-1.66,1.15-1.32,2.25-2.68,3.37-4,1.38,1.27,2.74,2.56,4.14,3.81,0.69,0.62,1.87,1.78,2.09,1.63a18.48,18.48,0,0,0,2.76-2.8c1.73-.77,3.42-1.93,5.2-2.09,0.66-.06,1.77,2.15,2.22,3.48,0.22,0.67-.42,1.84-1,2.48a2.83,2.83,0,0,1-2.07.39,12.39,12.39,0,0,1-2.39-.71,35.41,35.41,0,0,0-.32,6.48c0.13,1.07,1.49,2,2.3,3-0.2,4.67,3.56,9.33,0,14-1.62.83-4.24,1.33-4.66,2.58-0.8,2.36,0,5.22-.54,7.74-0.35,1.69-1.82,3.14-2.79,4.7l-1.76-2.35-0.87,1.07,2.63,1.29c-5.14,2-2.39,5.38-1.76,8.58,0.34,1.72-.16,3.61-0.29,5.42-2.75-5.15-5.48-10.32-8.28-15.44A11.75,11.75,0,0,0,130.27,80c-0.48.64-1.48,1.7-1.36,1.86,2.47,3.1,1.15,6.24.57,9.5-0.13.72,1.89,1.82,2.92,2.73l6,5.35,1,7.05,3,3v3.06l-9-1h-1c-0.06-3.35.66-7-.48-9.95-0.68-1.76-4.24-2.48-6.62-3.36-0.2-.07-1.25,2.15-1.91,3.31l-3,6h-4l-1.38-5.8c-1.15,1.9-2.19,3.87-3.48,5.66a26.66,26.66,0,0,1-3.12,3.13c-0.75-4.18-3-8.82-1.9-12.43,1.83-5.93,2.18-6.89-3.07-9.55C101.74,87.62,100.77,85.19,99.45,83.47Zm34.7,14.42a1.64,1.64,0,0,0-.31.82,1.63,1.63,0,0,0,.79.38,1.63,1.63,0,0,0,.31-0.82A1.63,1.63,0,0,0,134.15,97.89Z"/><path class="m" d="M99.45,83.47c1.32,1.72,2.29,4.15,4,5,5.26,2.65,4.9,3.62,3.07,9.55-1.11,3.61,1.15,8.25,1.9,12.43-5-.27-3.91-5.5-6.38-7.84a19.93,19.93,0,0,1-3.52-3.92c-0.63-1-.59-2.52-0.78-3.81-0.53-3.57,1-8.07-4.33-9.44a26.93,26.93,0,0,1,1.88-2.87,19.65,19.65,0,0,1,2.29-2Z"/><path class="g" d="M128.47,123.46l-2,5a0.94,0.94,0,0,1-.48-0.07q-4.77-6-9.51-11.94l7-1Z"/><path class="e" d="M123.46,115.47l-7,1q0-4.5,0-9h4Z"/><path class="m" d="M101.45,116.47l-2,0-3-1h0l1.35-3.63Z"/><path class="l" d="M111.38,122.21a7,7,0,0,1-1.72,1,4.69,4.69,0,0,1-1.69-2.35c-0.07-.56,1.08-1.27,1.69-1.91Z"/><path class="k" d="M356.43,163.46l1,2c-2.55,4.85-5.08,9.71-7.68,14.53a2.73,2.73,0,0,1-1.34.46c-4.7,3-1.67,7.1-1.49,10.74,0.07,1.37,1.32,2.7,1.37,4.06,0,1-.82,2.67-1.64,2.94a3.37,3.37,0,0,1-3-1.38c-1.54-4.53-5.22-3.24-8.31-3.2-0.81,0-1.6,1.36-2.4,2.09,0.58,0.59,1.19,1.15,1.73,1.77s1.06,1.35,1.58,2a13.8,13.8,0,0,0-2.14.73c-2.07,1.09-4.1,2.28-6.16,3.4-0.9.48-1.84,0.89-2.75,1.33a18,18,0,0,1-.72-2.76c-0.53-5.2-2.2-6.33-7.2-5.11-0.56.14-1.39-1.46-2.27-1.92a32.83,32.83,0,0,0-4.09-1.53,22.68,22.68,0,0,1-.51,3.49,36.57,36.57,0,0,1-1.62,3.86c-1.07-1-4.42.51-3.07-3.4,0.55-1.59-1.44-4.07-2.28-6.14,0.93-.58,2.16-1,2.73-1.79,1.65-2.42,2.84-5.07,6.54-2.45,0.87,0.62,2.79-.24,4.23-0.42a20.59,20.59,0,0,1-.93-3.55,21.88,21.88,0,0,1,.29-3.74c1.25,3.57,8.09.37,7.56,6.37-0.14,1.61,1,3.38,1.74,5a5,5,0,0,0,1.69,1.32c0.31-.66,1-1.4.85-2-0.39-1.93-1.24-3.79-1.54-5.73-0.11-.75.74-1.68,1.27-2.44a1.56,1.56,0,0,1,1.22.35c2.67,7.07,5.26,2.25,7.72-.1a15.54,15.54,0,0,0,2-3,33.71,33.71,0,0,1-4-1.14,30.71,30.71,0,0,1-5.25-2.66c-0.7-.46-0.94-2.39-1.36-2.38-5.22.15-5.82-4.82-8.1-7.61-1-1.24,0-4.29.42-6.45,0.19-.95,1.3-1.71,2-2.56,1.35-.73,3.25-1.11,4-2.25,1.95-3.09,3.39-6.49,5-9.76l3,11c-1.65,1.65-4.74,3.37-4.67,4.94,0.19,4,1.68,8,2.91,11.91,0.26,0.82,1.6,1.3,2.45,1.94,0.19-.81.44-1.6,0.56-2.42,0.27-2-.46-5,3.37-3a2,2,0,0,0,.89-1.12c-0.6-2.23-.69-5.14-2.16-6.49-3.93-3.59-.48-4.31,1.67-5.72l3,5c4.85,1.8,2.07,5.6,2.23,8.62,0,0.77-.48,2-0.14,2.23,0.61,0.51,2.11,1,2.47.62,1.35-1.26,3.21-2.77,3.37-4.34,0.34-3.41,1.82-4.95,5.06-5.14l0,0Z"/><path class="n" d="M322.45,156.49c-0.69.85-1.8,1.61-2,2.56-0.44,2.16-1.43,5.21-.42,6.45,2.28,2.79,2.88,7.76,8.1,7.61,0.41,0,.66,1.91,1.36,2.38a30.71,30.71,0,0,0,5.25,2.66,33.71,33.71,0,0,0,4,1.14,15.54,15.54,0,0,1-2,3c-2.47,2.35-5.05,7.16-7.72.1a1.56,1.56,0,0,0-1.22-.35c-0.54.76-1.39,1.7-1.27,2.44,0.3,1.94,1.14,3.79,1.54,5.73,0.12,0.58-.54,1.31-0.85,2a5,5,0,0,1-1.69-1.32c-0.75-1.61-1.88-3.38-1.74-5,0.52-6-6.32-2.8-7.56-6.37a21.88,21.88,0,0,0-.29,3.74,20.59,20.59,0,0,0,.93,3.55c-1.44.18-3.36,1-4.23,0.42-3.7-2.62-4.89,0-6.54,2.45-0.57.83-1.8,1.21-2.73,1.79-1-.94-2.88-2.39-2.7-2.72a14.69,14.69,0,0,1,3.49-4.1c0.49-.42,1.64-0.06,2.49-0.06-0.54-1-1.15-1.94-1.62-3-1.25-2.71-2.44-5.45-3.66-8.18l-1-6c0.81-4-1.49-8.76,3-11.77a16.77,16.77,0,0,1,3.19-1.81,11.18,11.18,0,0,1,2.78-.34c-0.22-1.6.11-4.11-.76-4.64-2.76-1.67-2.28-1.94.42-2.51,0.88-.19,1.58-1.25,2.36-1.91,1.62,1.75,4.87,3.88,4.57,5.17-1.39,5.81,2.21,4.88,5.44,4.83Z"/><path class="h" d="M265.42,179.53q-0.47-.06-0.95-0.08l-9-5.9c1.85-.35,3.69-0.7,5.54-1.06a6.43,6.43,0,0,0,2-.48c0.13-4.78-6.13-10.33-10.66-11.88-6.21-2.12-11.91-5.71-17.83-8.67,1.59-.15,3.89-1,4.65-0.32,3.85,3.67,9.61.84,13.36,4.3a8,8,0,0,0,1,0c0.77,0.86,1.48,1.77,2.33,2.55s1.76,1.36,2.64,2c0.11-1.13.16-2.27,0.35-3.39a4.17,4.17,0,0,1,.69-1.22l1,0.06c-0.05,4.61,4.56,2,6.39,4.13s4.63,3.65,7.06,5.35a1.82,1.82,0,0,0,1.17-.89c0.66-2.54.62-2.55,3.41-1.6-0.58,3.92,1.2,6.17,5,7l1,2-3,4.94-2-3a1.45,1.45,0,0,0,.36-0.28,4.92,4.92,0,0,0-.38-0.71h-1c-1.63-2.85-3.43-2.8-6.11-1-5.09,3.4.95,4.66,1.09,7q0,1,0,2h-1Z"/><path class="k" d="M284.43,171.52l-1-2-2-6c6.78-.75,12.06,5.64,19,4l1,6-2-1L298.52,171l-0.58.58,1.51,0.93c0.92,3.75-2.66,5.27-3.93,7.94l-0.14.14c-2.31-2.84-5.1-5.42-6.79-8.59C287,169,286,169.81,284.43,171.52Z"/><path class="k" d="M357.42,178.47c1,3.52,3,5.14,6.93,4.29,1.37-.3,3,0.58,4.51.93-0.48,1.3-.68,2.88-1.56,3.78-0.51.52-2.18-.27-3.26-0.1a14.64,14.64,0,0,0-3.14,1.27c2.16,4.95-1.63,4.43-4.43,4.82L355.64,191l-2.19,1.51a8.55,8.55,0,0,0-1.39-1.4c-3.79,2.41-2.46-1-2.43-2.28a54.43,54.43,0,0,1,.8-6.3Z"/><path class="p" d="M357.42,178.47l-7,4-2-2a2.73,2.73,0,0,0,1.34-.46c2.6-4.82,5.13-9.68,7.68-14.53h1l4,12Z"/><path class="k" d="M339,201.21l-0.35.81a0.63,0.63,0,0,1-.46-1.16Z"/><path class="k" d="M295.53,180.42l0.39,0.3-0.52-.16Z"/><path class="m" d="M7.45,55.48c1.25-.67,4,4.43,4-1l5,3,1,2c-3.86,6.78,1.59,12.39,2.44,18.57,0.17,1.23,1.66,2.29,2.54,3.42l3,4h0l-2,11c-1-1.13-3.07-2.76-2.81-3.3,2.48-5.31-3-7.41-4.4-11.06C16,81.43,13,81.88,11.29,81.64a28.9,28.9,0,0,1-3.58-1,12,12,0,0,0,2.43-1.53c0.93-1,1.52-2.24,2.47-3.16a19.44,19.44,0,0,1,3-2,25.47,25.47,0,0,1-3.08-3c-2.48-3.33-5.14-6.6-7-10.26C5,59.57,6.75,57.25,7.45,55.48Z"/><path class="p" d="M44.62,93.24c0.75,1.21,1.62,2,1.53,2.65S45,97.09,44.22,97.3A2.07,2.07,0,0,1,43,95.94,10.87,10.87,0,0,1,44.62,93.24Z"/><path class="c" d="M134.45,50.48c2.09,3.7,4.31,7.33,6.18,11.14a4.38,4.38,0,0,1-.16,3.86c-0.8,1-2.92,2-3.83,1.62-2.42-1.09-4.49-2.95-6.71-4.49-0.64-.44-1.31-0.84-2-1.26a9.9,9.9,0,0,0-.47,2.28c0.11,3.73,1.17,6.54,5.83,5.91,0.78-.1,1.67.59,2.5,0.91L133,75.69c-0.56-.36-1.12-0.73-1.69-1.07-2.06-1.24-4-2.93-6.25-3.55-1.37-.38-3.2.9-4.82,1.43,0.64,1.93.94,4.08,2,5.72s3.51,2.37,4.11,4c0.48,1.28-.91,3.26-1.47,4.93-2.84-2.24-7.13,2.35-9.73-2.19-0.6-1-3.07-1-4.69-1.47l-4-3v-2C110,69.85,110,69.89,102.54,64a25,25,0,0,1-3.1-3.53l1-1c1-.7,4,4.61,3.42-1.09l5.6,1.09h2c1.34,3.65,2.66,7.3,4,10.93a11.65,11.65,0,0,0,1.37,2.47,2.5,2.5,0,0,0,1.4-.75,8.69,8.69,0,0,0,0-3.51c-0.32-1.11-1.5-2-1.64-3.13-0.11-.86.79-1.84,1.24-2.77a23.55,23.55,0,0,0,.72,2.31,16.09,16.09,0,0,0,1,1.83c0.29-.53.58-1.05,0.86-1.59,3.08-6,3.32-11.71-1.45-17.11a8.09,8.09,0,0,1-1.31-3.72,6.71,6.71,0,0,1,.38-2.31,13.31,13.31,0,0,0,1.9,1.16c2,0.84,4.63,2.72,6.07,2.08,1.66-.73,2.44-3.66,3.37-5.74,0.44-1,.27-2.22.48-3.33s0.51-2,.78-3c-0.91.37-1.79,0.79-2.72,1.08-0.61.19-1.56,0.49-1.87,0.21a3.67,3.67,0,0,1-1.31-2.31,31.78,31.78,0,0,1,.71-4.87c0.93,0.32,1.86.68,2.8,1,5.32,1.62,10.91,2.69,15.81,5.14,1.7,0.85,1.68,5.14,2.45,7.86a18.45,18.45,0,0,1-2.76,2.8c-0.22.15-1.4-1-2.09-1.63-1.4-1.25-2.76-2.54-4.14-3.81-1.12,1.34-2.22,2.7-3.37,4-0.52.6-1.13,1.11-1.71,1.66l-2.55-.09C130.77,46.89,129.19,51.24,134.45,50.48Z"/><path class="f" d="M165.44,41.49c0.05,4.21,2.14,5.76,6.32,5.51,1.17-.07,2.45,1.61,3.68,2.49-1.54,1.14-3.6,2-4.5,3.5-1.55,2.63.23,3,2.48,2.49v2l-1,2.89,6,1.12h0l4,3a36,36,0,0,1,4.37,1.45c2.27,1.07,4.43,2.35,6.64,3.54l5,1,2,0,6,5c-0.4.95-.82,1.89-1.2,2.85s-0.45,2.29-1.14,2.83c-0.5.39-2.42,0-2.64-.46-1.83-4.08-3.2-8.52-9.22-7.13-3.12-6.6-3-1.08-3.84,1A25.07,25.07,0,0,0,186,71a2.67,2.67,0,0,0-2.18-.57,13.76,13.76,0,0,0-1.42,3.1A25.64,25.64,0,0,0,181.06,70a6,6,0,0,0-2-2.13c-4.17-2.53-8.4-5-12.61-7.42l-3-3-5-7h0c6.29,0.89,6.66.81,5.12-6.32C163,41.55,163.41,41.43,165.44,41.49Z"/><path class="i" d="M150.44,68.46c3.57-4.66-.19-9.33,0-14l9,4c1,2.93,1.74,6,3.15,8.76,2,3.9,4.52,7.54,6.81,11.29q0.06,1.47.12,2.93l-5.07,1c-0.73-1.43-1.09-3.4-2.25-4.2-4.1-2.82-8.48-5.23-12.75-7.8Z"/><path class="l" d="M169.41,78.53c-2.29-3.75-4.81-7.39-6.81-11.29-1.41-2.74-2.12-5.83-3.15-8.76l4-1,3,3C167.41,66.49,172.73,71.8,169.41,78.53Z"/><path class="i" d="M115.44,24.5c-1,3.6,2.13,8.82-3.89,10.46-1.21.33-3.59,0.23-3.81-.32-0.8-2-2-5.45-1.09-6.27,2.68-2.47,2.92-4.84,1.81-7.86Z"/><path class="m" d="M93.46,16.47l-2-1.89Z"/><path class="f" d="M158.45,50.48L158,50.26l0.41,0.22h0Z"/><path class="q" d="M200.44,70.51l-2,0-5-1c-2.21-1.19-4.38-2.47-6.64-3.54a36,36,0,0,0-4.37-1.45l-4-3h0l-5-4q0-1,0-2c5.06,0.09,1.13-3.44,2-5l5,2c3.83,1,8.61,1,11.25,3.38,3.11,2.78,5.06,1.77,7.73.62l3,1h1c2.22,2,4.35,4.05,6.7,5.86a3.34,3.34,0,0,0,3,.31c6-3.31,10.31-2.1,13.56,3.9a3.18,3.18,0,0,0,1.71,1.61c4.67,0.86,9.37,1.55,14.06,2.3q0,1,0,2c0.45,0.62.78,1.63,1.36,1.81,4,1.2,8,2.24,12,3.27a4.22,4.22,0,0,0,.64-1.08l6,4c0.62,1.27,1.88,2.66,1.68,3.78-0.17.91-2.3,2.33-3.18,2.09a21.59,21.59,0,0,1-7.64-3.41c-2.3-1.8-3.85-4.14-5.94,0a2.3,2.3,0,0,1-2.06.3c-3-1.22-6.41-2.05-8.83-4-5.39-4.43-2.41,1.08-3,2.3l-3-1c0.25-3.13-.68-4.83-4.32-5.17a18.85,18.85,0,0,1-8.24-3c-1.7-1.12-1.22-1.66-2.33.06a15.11,15.11,0,0,1-2.22,2.26l-2.91-1C208.47,69.83,204.5,70.07,200.44,70.51Zm-0.07-6.22-1.52,2.08a5.59,5.59,0,0,0,1.87,1,1.93,1.93,0,0,0,1.22-1A10.11,10.11,0,0,0,200.38,64.3Z"/><path class="o" d="M233.44,82.47c0.61-1.22-2.36-6.73,3-2.3,2.42,2,5.82,2.82,8.83,4a2.3,2.3,0,0,0,2.06-.3c2.09-4.14,3.64-1.81,5.94,0a21.59,21.59,0,0,0,7.64,3.41c0.87,0.24,3-1.18,3.18-2.09,0.2-1.12-1.05-2.51-1.68-3.78,2.37-3.77,4.7-2.46,7,0a25,25,0,0,0-1.93,4.9c-0.24,1.36.31,2.86,0.51,4.3,1.41-1.21,2.65-2.88,4.29-3.47,1.18-.43,3.58,5.62,4.11-0.73,3.46,1.18,8.26-1.16,10.26,3.88l2.77-1.92,2.06,4c-0.58.56-1.1,1.52-1.74,1.61-3.37.51-8.19-3.7-9.54,3.09-0.32-.07-0.65-0.11-1-0.21-5.07-1.51-10.13-3-15.21-4.52-2-.59-4.1-1.16-6.19-1.56-3.31-.64-6.82-0.65-9.94-1.79C243,87.23,238.26,84.7,233.44,82.47Z"/><path class="o" d="M242.45,71.48c-4.69-.75-9.39-1.44-14.06-2.3a3.18,3.18,0,0,1-1.71-1.61c-3.26-6-7.61-7.21-13.56-3.9a3.34,3.34,0,0,1-3-.31c-2.35-1.8-4.48-3.88-6.7-5.86,0.93-.48,2.58-1.5,2.7-1.35,2.71,3.54,6.12,2.14,9.51,1.69a10.44,10.44,0,0,1,9.14,3.09c2.15,2,6,2,8.93,3.37a100.51,100.51,0,0,1,9.56,5.58S242.74,70.92,242.45,71.48Z"/><path class="q" d="M276.43,86.5c-0.54,6.35-2.93.3-4.11,0.73-1.63.59-2.88,2.26-4.29,3.47-0.2-1.44-.75-2.94-0.51-4.3a25,25,0,0,1,1.93-4.9Z"/><path class="o" d="M256.45,77.46a4.22,4.22,0,0,1-.64,1.08c-4-1-8-2.06-12-3.27-0.58-.18-0.92-1.18-1.36-1.81C248.25,70.86,252.45,73.82,256.45,77.46Z"/><path class="o" d="M204.9,53a4.49,4.49,0,0,1-1.53.62,23.37,23.37,0,0,1-2-1.84,3,3,0,0,1,1.36-.21A13.09,13.09,0,0,1,204.9,53Z"/><path class="o" d="M202.45,57.5l-3-1Z"/><path class="i" d="M300.43,167.47c-7,1.66-12.25-4.72-19-4q0-1-.05-1.95c0.66,0,1.32,0,2,0,1.24,0,2.48.09,3.72,0.14-0.67-.91-2-1.88-1.88-2.7,0.13-1.19,1.25-2.27,2-3.4,1.3,1,3,1.85,3.79,3.19,1.06,1.79.94,2.68,3.63,1.11,4.87-2.85,1.64-5.54.91-8.4,2.87,1.16,3.13-5.82,6.8-2.18a8.72,8.72,0,0,0,1.15-2c0.44-1.59.7-3.22,1-4.84a21.37,21.37,0,0,0-1.15-3.1c-2.08-3.76.63-9.31,4.77-10.74,1.38-.48,2.14-2.72,3.18-4.15a16.67,16.67,0,0,1-2.64-1.92,24.34,24.34,0,0,1-2.15-3.08c4.39,2.35,6.14-5.32,10.58-2.8a1.44,1.44,0,0,0,.23-0.43c0.51-3.74,1.86-7.63,1.27-11.2-0.63-3.8-3.18-7.25-4.72-10.93a19.33,19.33,0,0,1-.77-4.07,34.93,34.93,0,0,0,4.2,1.4,14.44,14.44,0,0,0,3.21,0c5.16,1.37,10.92,1.58,14,7.1l1,5c0,2.25-.81,6,0.15,6.52,5.75,3.21,2.52,7.85,2.35,11.9,0,0.64-2.92,1.85-3.07,1.66-1.2-1.5-3.27-4.25-2.82-4.79,2.36-2.91,3.19-4.41-1.7-4.38-0.77,0-1.51-1.28-2.32-1.89-1.21-.91-2.47-1.75-3.71-2.61-0.1,1.52-.61,3.16-0.2,4.52a84.66,84.66,0,0,0,3.28,8.13c-0.91.77-2.72,1.88-2.58,2.27,1.79,4.82-1.41,2.94-3.41,2.67l-0.59-2.3a6.85,6.85,0,0,0-1.37,1.45c-0.72,1.44-1.58,4.3-1.88,4.23-5.88-1.25-7.28.2-3.6,5.32a3,3,0,0,1-.55,1.34c-1.48,1-3.45,1.67-4.22,3-0.39.68,1.41,2.61,2.22,4-0.78.66-1.48,1.72-2.36,1.91-2.7.57-3.18,0.84-.42,2.51,0.87,0.53.54,3,.76,4.64a11.18,11.18,0,0,0-2.78.34,16.77,16.77,0,0,0-3.19,1.81C298.94,158.71,301.24,163.49,300.43,167.47Zm5.62-31.72a0.63,0.63,0,1,0-.8.28A1.57,1.57,0,0,0,306.06,135.75Z"/><path class="j" d="M327.42,122.51a84.78,84.78,0,0,1-3.28-8.13c-0.41-1.37.1-3,.2-4.52,1.24,0.87,2.5,1.71,3.71,2.61,0.81,0.61,1.56,1.89,2.32,1.89,4.89,0,4.06,1.47,1.7,4.38-0.44.55,1.62,3.3,2.82,4.79,0.15,0.19,3-1,3.07-1.66,0.18-4,3.41-8.69-2.35-11.9-1-.54-0.15-4.26-0.15-6.52,1.57,1.25,2.34,6,5.31,1.16a2,2,0,0,1,1.8-.6c6.75,2,2.64-2.65,2.88-4.62l2,0.05,1.48,3.66,2.49-1.63,3,1,3.08,8.9a110.4,110.4,0,0,1-3.33,10.75c-0.45,1.1-2.45,1.57-3.74,2.33l3-11,1.49-1.3-1.51.31c-3,.42-6.09.49-8.91,1.41-1.3.42-2.49,2.4-2.88,3.89-0.21.81,1.48,2,2.11,3.17,1,1.79,1.81,3.68,2.69,5.52l2.05,3,1,0.92q0,3,0,6.08a10.37,10.37,0,0,1-2.83-.09c-1.39-.43-2.62-1.38-4-1.73-2.4-.61-4.86-1-7.32-1.33a13.66,13.66,0,0,0-2.54.08,11.21,11.21,0,0,0,1.07,2.86c1.66,2.28,4,4.18,5.15,6.68,1.86,4.23.15,9.65,5.43,12.93,2.81,1.75-.35,3.4-2,4.61l-3-5c-1.67-4.37-3.33-.1-5,0l-3-11a29.66,29.66,0,0,1,.39-4.65c0.08-.37,1.41-0.45,2.17-0.67-0.91-.55-2-1.73-2.69-1.56-3.71.87-4.57-1.22-4.85-4.15,1-1.27,2.7-2.55,2.68-3.8C329.1,127.26,328.05,124.89,327.42,122.51Zm13.73,10.14-0.39-.83a5.07,5.07,0,0,0-.64.43,0.59,0.59,0,0,0,.21.38A3.78,3.78,0,0,0,341.15,132.65Z"/><path class="f" d="M233.44,82.47c4.82,2.23,9.53,4.76,14.5,6.58,3.11,1.14,6.63,1.16,9.94,1.79,2.09,0.4,4.15,1,6.19,1.56,5.08,1.48,10.14,3,15.21,4.52,0.32,0.09.65,0.14,1,.21,1.35-6.79,6.17-2.59,9.54-3.09,0.65-.1,1.16-1.05,1.74-1.61l15,2.05q0,0.49,0,1c-0.2,1.84-.12,5.18-0.64,5.27-5.26.95-1.35,3.8-1.4,5.75-5-2-9.94-3.95-14.94-5.85a16.49,16.49,0,0,0-4.14-1.08c-4.29-.43-8.6-0.71-12.91-1l-1,.95a5.17,5.17,0,0,1-1,0c-2-1.43-4.13-4.17-6-4-3.52.29-8.37-6.1-10.79,1.57,0,0.06-1.46-.32-2.23-0.5h0l-8-3c-3.5-1.64-6.89-3.62-10.54-4.77-1.79-.56-4.06.42-6.12,0.71,0.43,2,1,4.07,1.24,6.14,0.08,0.58-.55,1.26-0.85,1.89l-3.76-3,0-3-1-1.05-2-4,3.31-.53c-0.53-.69-1.11-1.34-1.58-2.08a24.93,24.93,0,0,1-1.13-2.22,8,8,0,0,1,2.6-.84c2.26,0.09,4.52.44,6.77,0.69Z"/><path class="c" d="M306.49,95.45q0-.49,0-1c3.89-2.44,3.44-4.35-.64-6a16,16,0,0,1-3.26-2,1.47,1.47,0,0,1-.53-1.23,1.28,1.28,0,0,1,1.12-.59q8.53,2.83,17,5.81a1.89,1.89,0,0,1,.29.91,14.48,14.48,0,0,1-3.21,0,34.93,34.93,0,0,1-4.2-1.4,19.33,19.33,0,0,0,.77,4.07c1.54,3.68,4.09,7.13,4.72,10.93,0.59,3.57-.76,7.45-1.27,11.2a1.44,1.44,0,0,1-.23.43c-4.44-2.52-6.18,5.15-10.58,2.8l-3.38-1a15.56,15.56,0,0,0,2.81-1.13c1.91-1.22,3.72-2.6,5.57-3.91,3.14-.39,5.2-1.42,3-5-0.55-.77-1.75-1.83-1.55-2.26C315.95,99.46,312,97,306.49,95.45Z"/><path class="m" d="M345.45,99.4c-0.24,2,3.87,6.64-2.88,4.62a2,2,0,0,0-1.8.6c-3,4.87-3.74.09-5.31-1.16l-1-5C338.47,94.44,342,96.23,345.45,99.4Z"/><path class="m" d="M351.45,101.49L349,103.12l-1.48-3.66Z"/><path class="k" d="M410.43,164.46c-2.54-2.46-5.05-4.95-7.65-7.35a16.93,16.93,0,0,0-2.58-1.66,14.52,14.52,0,0,1-.22,3.21,14.28,14.28,0,0,1-1.52,2.81c-0.4-2.91-5.14-5.66-.37-8.94,0.14-.09-1.58-2.81-2.36-4.34a14.49,14.49,0,0,1-.71-2.13,4.57,4.57,0,0,1,1.33-.37,5.05,5.05,0,0,0,5.09-4.75c0-.83,0-1.65,0-2.48h0l5,1,1,1h0l3,18,1,4-1,2h0Z"/><path class="d" d="M410.44,164.46l1-2Z"/><path class="b" d="M395.45,172.46l2,1Z"/><path class="k" d="M175.44,145.46l-17-4,0-.06-2-2q0-.49,0-1c-0.47-1.77-.83-5-1.44-5-2.42-.19-2.45.18-2.62-2.84,2.19-1,4.42-3.36,5.41,1.48,0.31,1.49,3.11,2.47,4.76,3.69-0.07-1.65-.06-3.32-0.26-5a23.6,23.6,0,0,0-.87-3.3l2,0c0.19,5.12,2.3,8.43,7.75,9.53,2.55,0.51,4.85,2.28,7.26,3.49Z"/><path class="k" d="M134.43,125.54q0-1.52,0-3c1.64-.68,3.23-1.68,4.94-2,2.08-.35,5.67.64,6.16-0.27,1.79-3.33,2.73-1.39,4.42-.19,1.23,0.87,3,1,4.52,1.42l5,3c-1.15,3.65-4.26,2.65-6.16,1.76-3.24-1.53-2.9.18-2.81,2.21-1.17,0-3.16.49-3.38,0-1.87-3.66-4.71-2.86-7.63-2Z"/><path class="c" d="M123.46,115.47l-3-8,3-6,2.34,0.64c-3,4.63,4.08,4.52,3.84,8,0,0.39,1.84.91,2.83,1.37h1q0,5.49,0,11l-5,1Z"/><path class="j" d="M133.47,122.46q0-5.49,0-11l9,1,2,3,1,1c3.91,0,7.52.6,8.94,5-1.52-.45-3.29-0.55-4.52-1.42-1.7-1.2-2.63-3.14-4.42.19-0.49.91-4.07-.09-6.16,0.27-1.71.29-3.3,1.29-4.94,2Z"/><path class="c" d="M134.43,125.54l5,1c1.3,1.61,2.34,3.58,3.95,4.77,3.54,2.62,7.36,4.85,11.07,7.25-0.42.71-1,2.09-1.23,2-3.62-1-8-1.27-10.59-3.53C139.18,134,137.1,129.43,134.43,125.54Z"/><path class="j" d="M154.45,138.5c-3.71-2.39-7.53-4.62-11.07-7.25-1.61-1.19-2.65-3.15-3.95-4.77,2.93-.82,5.76-1.63,7.63,2,0.23,0.44,2.21,0,3.38,0l1.94,2.11c0.17,3,.2,2.65,2.62,2.84,0.61,0,1,3.28,1.44,5Z"/><path class="j" d="M156.48,139.46l2,2Z"/><path class="m" d="M6.21,73.17l2.7-2.5c0.45,0.55,1.3,1.15,1.24,1.63A2.39,2.39,0,0,1,8.75,74C8.14,74.16,7.33,73.57,6.21,73.17Z"/><path class="a" d="M26.44,72.53L32,74.92l-2.52,5.57Z"/><path class="a" d="M25.45,85.48l-3-4C27.48,79.79,24.65,84,25.45,85.48Z"/><path class="a" d="M17.46,59.49l-1-2,2.48,0.74Z"/><path class="a" d="M26.45,70.47q0,1,0,2l-1.5-.8Z"/><path class="a" d="M58.44,92.47a4.57,4.57,0,0,1-1.91-.25c-1.87-1.28-2.62-10.73-1.09-12.75l3,9v4Z"/><path class="k" d="M204.48,155.46c-2.85-2.07-5.76-4.05-8.52-6.23a35.31,35.31,0,0,1-3.55-3.7c2.9,1.18,5.9,2.16,8.67,3.58,4.21,2.16,7.87,6.16,13.32,3.41-0.2,3.69,2.15,4.16,5,4l1,4.08Z"/><path class="d" d="M220.39,160.59l-1-4.08,1,0,6,0.07,6,5,5,2,0.05,2.86-15.06-3.8Z"/><path class="d" d="M273.43,178.46c-0.14-2.34-6.18-3.59-1.09-7,2.68-1.79,4.48-1.84,6.11,1a35.27,35.27,0,0,0-1.21,3.69,31.65,31.65,0,0,0-.39,3.71Z"/><path class="n" d="M284.9,185c0.6,1,1.25,1.63,1.12,1.89a11.88,11.88,0,0,1-1.68,2.07,3.53,3.53,0,0,1-.74-1.56A9.27,9.27,0,0,1,284.9,185Z"/><path class="d" d="M272.46,180.47h0Z"/><path class="d" d="M279.44,172.49a4.92,4.92,0,0,1,.38.71,1.45,1.45,0,0,1-.36.28Q279.45,173,279.44,172.49Z"/><path class="p" d="M379.45,140.48c-0.18,6.76-7.4,4.22-10.24,7.69-1.31,1.6-3.81,2.24-5.77,3.32l-4.63-2.3c0.84,0.27,1.67.59,2.52,0.79a0.92,0.92,0,0,0,.79-0.4,70.55,70.55,0,0,0,3.19-8.86c0.61-2.63-.62-3.63-3.43-2.57-2,.74-3.29,3.7-6.29-0.72-1.89-2.79-3-4.91-3.14-8a34.51,34.51,0,0,0,3.19-2.27c1.55-1.38,3-2.93,4.49-4.34a7.12,7.12,0,0,1,1.6-.86,4.93,4.93,0,0,0,.15,2.12c1.06,1.71,2.31,3.3,3.49,4.93,0.66-1.44,2-3,1.83-4.31-0.33-2.75-2.84-6-2-8,2.43-5.65-2.69-5.25-4.77-7.28l1.36-3.83c1,0.8,2,1.6,3.05,2.38,0.5,0.38,1.14,1.14,1.52,1,4.94-1.37,7.12.3,6.47,5.5,0,0.23,1,.59,1.59.89a3.22,3.22,0,0,1-.09,1.43,35.4,35.4,0,0,1-3.53,1.2c1,1.47,2.1,2.93,3.09,4.43a10.45,10.45,0,0,0,.49,1.38c1.45,1.51,3,2.95,4.49,4.41l2.55-4.84c1.58-.89,5.09,3,5-2l3,1c-0.3,2.95-.31,6.22-4.8,3.36-0.3-.19-1.79.93-2.23,1.71s-0.05,1.73,0,2.62c4.77-.4,2.56,3.23,3.07,5.3l-2,1-5.47-.75,1.48,3.74v1Z"/><path class="j" d="M389.45,122.48l-3-1-3-6.91c3.89-1.92,9.62-.54,12.5,3.06,1.08,1.36,1.75,4.35,3.77.74a25.59,25.59,0,0,1,2.25,1.34c1.19,0.88,2.32,1.84,3.48,2.76q0,2.5,0,5h-1l-1,2h0l-4.84-.78q-0.31,1.95-.62,3.89l-1.55,9.88h-1c-0.18-4.12-5-7-2.54-12.21C393.71,128.61,390.71,125.13,389.45,122.48Z"/><path class="i" d="M360.45,109.48c2.08,2,7.2,1.62,4.77,7.28-0.85,2,1.67,5.23,2,8,0.16,1.34-1.17,2.87-1.83,4.31-1.18-1.64-2.44-3.22-3.49-4.93a4.93,4.93,0,0,1-.15-2.12,7.12,7.12,0,0,0-1.6.86c-1.53,1.41-2.94,3-4.49,4.34a34.52,34.52,0,0,1-3.19,2.28c-2.54-4.65-1.18,3.26-3,.93l-1-.92-1-3.06,3-1.94c1.29-.76,3.29-1.23,3.74-2.33a110.4,110.4,0,0,0,3.33-10.75Z"/><path class="j" d="M381.45,123.48l-2.55,4.84c-1.51-1.46-3-2.9-4.49-4.41a10.45,10.45,0,0,1-.49-1.38c-1-1.5-2.05-3-3.09-4.43a35.4,35.4,0,0,0,3.53-1.2,3.22,3.22,0,0,0,.09-1.43c1.65-2.49,3.4-4.37,6-1Z"/><path class="n" d="M381.45,123.48l-1-9,3,0.08,3,6.91C386.53,126.51,383,122.59,381.45,123.48Z"/><path class="p" d="M175.44,145.46l3-5,4-1,5.95,4.17,0,1.9c-2.39-.09-4.79-0.33-7.17-0.21a16.21,16.21,0,0,0-3.83,1.16Z"/><path class="h" d="M237.5,166.35l-0.05-2.86c3-.55,7.08,4.68,9-1.71,0.69,0.48,1.75.81,2,1.47,1.14,2.69,2,5.49,3,8.24q0,1.49,0,3C245.28,174.34,238.9,170.63,237.5,166.35Z"/><path class="k" d="M251.45,174.47q0-1.49,0-3l4,2.07,9,5.9-13-3Q251.45,175.47,251.45,174.47Z"/><path class="o" d="M175.45,50.45c-0.9,1.59,3,5.12-2,5-2.25.56-4,.14-2.48-2.49,0.9-1.52,3-2.36,4.5-3.5Q175.45,50,175.45,50.45Z"/><path class="b" d="M255.43,173.56l-4-2.07c-1-2.76-1.89-5.55-3-8.24-0.28-.66-1.33-1-2-1.47-1.88,6.39-6,1.17-9,1.71l-5-2c0.81-5.07-2-5.76-6-5l-6-.07c0.58-5.29-3.3-3.76-6-4-5.45,2.75-9.1-1.25-13.32-3.41-2.77-1.42-5.77-2.4-8.67-3.58a7.84,7.84,0,0,0-.91-0.1l-3.09-1.81-5.95-4.17c-1.93-4.41-1.08-6.11,3.93-4.24,0.81,0.3,2-.48,3.06-0.76l3.9,2.14,0.56,0.36-0.37-.56c0.29-.54.81-1.57,0.85-1.55,4.55,2.15,9,4.45,13.64,6.49,0.43,0.19,1.59-1.24,2.41-1.92l2,1.06c0.57,0.9.94,2.32,1.74,2.62,4.35,1.64,8.8,3,13.22,4.46l7,3.92c5.92,3,11.62,6.55,17.83,8.67,4.53,1.55,10.8,7.09,10.66,11.88a6.43,6.43,0,0,1-2,.48C259.12,172.86,257.28,173.21,255.43,173.56Z"/><path class="k" d="M188.41,143.62l3.09,1.81-3,.09Z"/><path class="j" d="M407.45,139.48l-1-12c4.37,0.11,4.51,3.31,5.6,6.56,1.64,4.91,4.56,9.39,6.67,14.17,0.68,1.55.55,3.45,0.78,5.2-1.68-1.13-3.7-2-5-3.46-2.57-3-4.73-6.31-7.06-9.49h0Q407.46,140,407.45,139.48Z"/><polygon class="d" points="295.45 190.48 295.05 190.25 295.23 190.07 295.45 190.48"/><path class="c" d="M96.45,115.48l3,1-1.76,1.79Z"/><path class="i" d="M111.45,59.48h-2c-2-3.77-4.12-7.46-5.79-11.36-0.79-1.84-.59-4.08-0.92-6.13a12,12,0,0,0-1-4c-0.45-.79-1.73-1.11-2.64-1.64a2.5,2.5,0,0,1,1.22-.38c1.71,0.67,4.13,1,4.9,2.29,2.06,3.43,3.35,7.31,5,11C111.78,52.54,113.39,55.79,111.45,59.48Z"/><path class="e" d="M94.44,18.47l-1-1Z"/><path class="m" d="M106.46,80.48l4,3a19.49,19.49,0,0,0-3.36,1.93c-3.12,2.71-4.78,1.63-5.65-1.95Z"/><path class="c" d="M85.45,98.48h-5l-1-4c2.51,0.57,6.13-.51,6,4h0Z"/><path class="p" d="M69.45,47.48L71,48.41,70.38,49l-0.93-1.52h0Z"/><path class="c" d="M85.45,98.48c2.91,0.69,5.61,5.09,4.48,7.49a2.47,2.47,0,0,1-1.86,1.21,2.22,2.22,0,0,1-1.52-1.46c-0.5-2.39-.76-4.82-1.11-7.23h0Z"/><path class="c" d="M81.37,89.63a3.5,3.5,0,0,1,.85,1.27A2.72,2.72,0,0,1,81.54,92a2.54,2.54,0,0,1-.85-0.93A3.7,3.7,0,0,1,81.37,89.63Z"/><path class="c" d="M105.87,71.85l-0.16-.54,0.36-.1Z"/><path class="a" d="M63.51,39.44c0.24,0.36.48,0.72,0.69,1.1a3,3,0,0,1-.35.26l-0.47-1.26Z"/><path class="p" d="M342.45,160.49c1.6-1.21,4.77-2.87,2-4.61-5.28-3.28-3.57-8.69-5.43-12.93-1.1-2.49-3.48-4.4-5.15-6.68a11.21,11.21,0,0,1-1.07-2.86,13.66,13.66,0,0,1,2.54-.08c2.45,0.37,4.92.73,7.32,1.33,1.4,0.35,2.63,1.3,4,1.73a10.37,10.37,0,0,0,2.83.09c1.23,3.58,1.71,7.67,6.23,9a1.55,1.55,0,0,1,.61,1.27c-0.24,4.24-.55,8.48-0.84,12.71q0,1.5,0,3c-3.24.2-4.72,1.74-5.06,5.14-0.16,1.57-2,3.08-3.37,4.34-0.36.34-1.85-.1-2.47-0.62-0.33-.28.18-1.47,0.14-2.23C344.52,166.09,347.3,162.29,342.45,160.49Z"/><path class="k" d="M355.45,159.48c0.29-4.24.6-8.47,0.84-12.71a1.55,1.55,0,0,0-.61-1.27c-4.52-1.35-5-5.44-6.23-9q0-3,0-6.08c1.82,2.32.46-5.58,3-.94,0.17,3,1.24,5.17,3.14,8,3,4.41,4.34,1.45,6.29.72,2.81-1.06,4-.06,3.43,2.57a70.55,70.55,0,0,1-3.19,8.86,0.92,0.92,0,0,1-.79.4c-0.86-.2-1.69-0.52-2.52-0.79l4.63,2.3C365.28,158.37,365.26,158.4,355.45,159.48Z"/><path class="k" d="M362.46,177.52l-4-12,7-4h0a41.12,41.12,0,0,1,5.22,2.35c0.34,0.2-.12,1.73-0.21,2.64-4.43.57-5.83,3.15-4.46,8.07a22.85,22.85,0,0,1,.43,3.19Z"/><path class="j" d="M383.44,136.48l2-1c1,3.89,2,7.77,2.88,11.67a4,4,0,0,1-.57,1.74c-0.72-.26-1.67-0.31-2.11-0.81-2.14-2.47-4.15-5.05-6.2-7.6v-1l3-1,0.51,1.27,0.5-1.27Z"/><path class="k" d="M380.4,165.5l-3.95,0a27.23,27.23,0,0,1-2.66-4.64c-0.49-1.4-.29-3-0.39-4.56,1.24,0.06,2.67-.25,3.66.27a10.33,10.33,0,0,1,3.19,3.12,13.93,13.93,0,0,1,2.06,4.11C382.41,164.13,381.07,164.92,380.4,165.5Z"/><path class="k" d="M365.45,161.48l0.81-2.6,0.43,0.2-1.24,2.41h0Z"/><path class="j" d="M403.45,129.48l0.74,1-0.37.24-0.37-1.27h0Z"/><path class="d" d="M407.45,139.48q0,0.49,0,1l-1-1Z"/><path class="k" d="M401.45,138.48l-0.4-.23,0.41,0.22h0Z"/><path class="c" d="M404.49,127.49h0Z"/><path class="p" d="M356.43,163.46l-1-1Z"/><path class="k" d="M370.45,169.48v1l0-1h0Z"/><path class="k" d="M395.46,142.48h0Z"/><path class="n" d="M370.45,169.48l0,1a4.74,4.74,0,0,1-.35-0.73A1.37,1.37,0,0,1,370.45,169.48Z"/><path class="m" d="M150.44,68.46l-1,2c-1,3.69-.2,6.43,3.68,8,3.52,1.45,6.88,3.3,10.31,5-3.46,2.94-4.34,6.16-1.18,9.92a9.71,9.71,0,0,1,1.25,2.65c0.3,0.73.5,1.5,0.74,2.26-0.73,0-1.64-.29-2.16,0-0.89.57-2.31,2-2.17,2.23,2.11,3.22-.34,3.94-2.48,4.87-4.88-3.36-5-4.62-1.06-8.36,0.64-.62.63-2,0.74-3.07,0.16-1.58.15-3.18,0.25-4.77,0.07-1.08.2-2.16,0.31-3.24-0.63.64-1.16,1.6-1.91,1.83a2.38,2.38,0,0,1-2.14-.88c-1.11-4-4.13-3-5.72-1.42s-3.69,5.62-2.9,6.77c3.07,4.52.36,7.14-2,10.11-1.12,1.39-2.35,2.69-3.53,4l-1-7.05,2-2c0.12-1.81.63-3.7,0.29-5.42-0.63-3.2-3.38-6.62,1.76-8.58h0c1-1.56,2.44-3,2.79-4.7,0.52-2.52-.26-5.38.54-7.74C146.2,69.8,148.81,69.3,150.44,68.46Z"/><path class="j" d="M139.45,106.48c1.18-1.34,2.41-2.64,3.53-4,2.39-3,5.1-5.59,2-10.11-0.78-1.15,1.21-5.09,2.9-6.77S152.52,83,153.63,87a2.38,2.38,0,0,0,2.14.88c0.75-.22,1.28-1.18,1.91-1.83-0.11,1.08-.24,2.16-0.31,3.24-0.1,1.59-.09,3.19-0.25,4.77-0.11,1.06-.09,2.46-0.74,3.07-3.92,3.74-3.82,5,1.06,8.36l1,10c-6.05-7.78-7.55-8.35-16-6Z"/><path class="m" d="M142.47,109.46c8.41-2.35,9.91-1.79,16,6,3.85,6,8.25,7.92,14,6l2,4c-2.74,3.94-4.44-.52-6.59-1s-4.51-2.3-4.37,2q0,0.47-.05.94l-2,0-2-3-5-3c-1.42-4.44-5-5-8.94-5l-1-1-2-3v-3.06Z"/><path class="e" d="M132.45,111.48c-1-.46-2.85-1-2.83-1.37,0.24-3.47-6.86-3.36-3.84-8l-2.34-.64c0.66-1.16,1.71-3.38,1.91-3.31,2.38,0.89,5.94,1.61,6.62,3.36C133.11,104.47,132.39,108.12,132.45,111.48Z"/><path class="g" d="M140.41,97.47l-2,2-6-5.35c-1-.92-3-2-2.92-2.73,0.57-3.26,1.89-6.4-.57-9.5-0.13-.16.88-1.22,1.36-1.86A11.75,11.75,0,0,1,132.13,82C134.93,87.16,137.66,92.32,140.41,97.47Z"/><path class="m" d="M134.45,50.48c-5.25.76-3.68-3.58-4.55-6.09l2.55,0.09a33,33,0,0,1,2.64,3.94C135.32,48.88,134.68,49.78,134.45,50.48Z"/><path class="m" d="M142.45,83.48l-2.63-1.29,0.87-1.07,1.76,2.35h0Z"/><path class="g" d="M134.15,97.89a1.64,1.64,0,0,1,.79.38,1.63,1.63,0,0,1-.31.82,1.63,1.63,0,0,1-.79-0.38A1.63,1.63,0,0,1,134.15,97.89Z"/><path class="p" d="M326.46,133.45c0.28,2.93,1.14,5,4.85,4.15,0.74-.17,1.79,1,2.69,1.56-0.76.22-2.09,0.3-2.17,0.67a29.66,29.66,0,0,0-.39,4.65c-1.65,3.28-3.09,6.68-5,9.76-0.71,1.13-2.61,1.52-4,2.25l-1-2,1.89-3c-2.76-1.59-3.37-3.67-1.84-6.57,0.22-.43-0.89-1.81-1.64-2.45-2.06-1.75-4.27-3.35-6.41-5a3,3,0,0,0,.55-1.34c-3.68-5.13-2.28-6.57,3.6-5.32,0.3,0.06,1.16-2.8,1.88-4.23a6.85,6.85,0,0,1,1.37-1.45l0.59,2.31Z"/><path class="n" d="M334.45,155.48c1.67-.1,3.33-4.37,5,0-2.15,1.41-5.59,2.13-1.67,5.72,1.48,1.35,1.57,4.26,2.16,6.49a2,2,0,0,1-.89,1.12c-3.83-1.94-3.1,1.06-3.37,3-0.11.82-.37,1.61-0.56,2.42-0.84-.64-2.19-1.12-2.45-1.94-1.23-3.91-2.72-7.9-2.91-11.91C329.7,158.85,332.8,157.13,334.45,155.48Z"/><path class="k" d="M313.45,137.48c2.15,1.66,4.35,3.25,6.41,5,0.75,0.64,1.86,2,1.64,2.45-1.53,2.9-.92,5,1.84,6.57l-1.89,3c-3.23.05-6.83,1-5.44-4.83,0.31-1.29-2.95-3.42-4.57-5.17-0.81-1.36-2.61-3.28-2.22-4C310,139.15,312,138.45,313.45,137.48Zm5.35,6.76-0.91-1a1.69,1.69,0,0,0-.32.84,4.52,4.52,0,0,0,.82,1Z"/><path class="j" d="M260.42,155.52q-0.48,0-1-.06c-2-3.51-4-4.42-6,0a8,8,0,0,1-1,0c-2.88-6.16-8.49-9.32-14.6-8.41-0.4.06-1-1-1.45-1.51,0.49-.86,1.57-2.32,1.4-2.48-3.22-3,.4-4,1.64-5.6l14,7c1.84,0.45,4.86.4,5.31,1.45,1.42,3.3,3.59,2.21,5.12,1.13,3.2-2.24,4.54.28,6.54,1.76a19.21,19.21,0,0,0,4.13,1.79c2.23,0.93,5.69,1.34,6.38,2.94,0.94,2.18-.24,5.27-0.51,8h-2C275.31,156.68,266.72,153.83,260.42,155.52Z"/><path class="k" d="M236.41,145.54c0.49,0.53,1.05,1.56,1.45,1.5,6.12-.92,11.72,2.25,14.6,8.41-3.75-3.46-9.51-.63-13.36-4.3-0.76-.72-3.06.17-4.65,0.32l-7-3.92,7-2Z"/><path class="k" d="M260.42,155.52c6.3-1.69,14.89,1.17,18,6q0,0.5,0,1c-2.79-.95-2.75-0.94-3.41,1.6a1.82,1.82,0,0,1-1.17.89c-2.43-1.7-5.16-3.17-7.06-5.35S260.37,160.12,260.42,155.52Z"/><path class="k" d="M253.45,155.48c2-4.44,4-3.54,6,0a4.17,4.17,0,0,0-.69,1.22c-0.19,1.12-.24,2.26-0.35,3.39-0.89-.67-1.83-1.28-2.64-2S254.22,156.34,253.45,155.48Z"/><path class="d" d="M278.45,162.5q0-.5,0-1h2l0.94,0q0,1,.05,1.95l2,6C279.65,168.67,277.87,166.43,278.45,162.5Z"/><path class="d" d="M299.45,172.48l-1.51-.93,0.58-.58,0.93,1.51h0Z"/><path class="e" d="M169.41,78.53c3.32-6.72-2-12-3-18.06,4.21,2.46,8.44,4.89,12.61,7.42a6,6,0,0,1,2,2.13,25.64,25.64,0,0,1,1.38,3.54,13.76,13.76,0,0,1,1.42-3.1A2.67,2.67,0,0,1,186,71a25.15,25.15,0,0,1,2.38,3.54c-0.17,2.48.43,4,3.47,4,1.33,0,3,1.37,3.86,2.57,1.33,1.83,1.89,4.22,3.18,6.09,1.78,2.56.93,4-1.48,5.2-2.46.08-3.18-5.18-7.05-1.91-1.59,1.34-5,1.21-7.37.76-2.15-.41-4.73-1.29-4-5,0.21-1.07-2.68-2.75-4.14-4.15-2.38,4.39-3.54-.71-5.37-0.69Z"/><path class="g" d="M197.45,92.48c2.41-1.19,3.26-2.64,1.48-5.2-1.3-1.87-1.85-4.26-3.18-6.09-0.87-1.2-2.53-2.54-3.86-2.57-3-.07-3.64-1.56-3.47-4,0.81-2.1.72-7.62,3.84-1,6-1.39,7.39,3.05,9.22,7.13,0.22,0.5,2.14.85,2.64,0.46,0.69-.54.76-1.86,1.14-2.83s0.8-1.9,1.2-2.85l4-.93,2.91,1c0,2.71.34,5,3.92,5,0.51,0,1.08,1.36,1.5,2.16,0.63,1.2,1.15,2.45,1.72,3.68l2,4,1,1.05q0,1.5,0,3l-18,5c-0.12-1.8.18-3.79-.52-5.33-0.42-.92-2.41-1.12-3.69-1.64a21.07,21.07,0,0,1,.42,2.51c0.05,1-.06,2-0.1,3a10,10,0,0,1-2.61-1.9A16.94,16.94,0,0,1,197.45,92.48Z"/><path class="o" d="M210.45,74.55l-4,.93-6-5C204.5,70.07,208.47,69.83,210.45,74.55Z"/><path class="o" d="M173.43,57.48l5,4-6-1.12Z"/><path class="o" d="M193.45,69.48l5,1Z"/><path class="o" d="M178.44,61.49l4,3Z"/><path class="l" d="M197.45,92.48a16.94,16.94,0,0,0,1.5,3.63,10,10,0,0,0,2.61,1.9c0-1,.15-2,0.1-3a21.07,21.07,0,0,0-.42-2.51c1.28,0.52,3.27.72,3.69,1.64,0.7,1.53.4,3.53,0.52,5.33h0c-3.84,3.18-3.84,5,0,7,2.38,2.15,4.87,4.21,7.08,6.52,0.51,0.53.4,2.69,0.07,2.82-3.94,1.56-1.64,3.38.2,3.65,5.71,0.86,5.57,4.89,5.63,9h-2l-1.28-3.79-2.72,1.8a5.35,5.35,0,0,0-1.73-.79c-2.26-.12-4.52-0.1-6.78-0.13a34.75,34.75,0,0,0,.61,4.57c0.48,1.83,1.26,3.58,1.91,5.37l-8-3c-1.46-1.15-3-2.24-4.37-3.46-3-2.66-6-5.44-9-8.05-0.52-.44-1.63-0.12-2.36-0.42-2-.84-4.87-1.31-5.78-2.87-1.61-2.77-2.16-1.78-3.07.08a37.71,37.71,0,0,0-1.37,3.7c-5.78,1.89-10.18,0-14-6l-1-10c2.14-.93,4.59-1.65,2.48-4.87-0.14-.21,1.28-1.66,2.17-2.23,0.52-.33,1.43,0,2.16,0-0.24-.75-0.45-1.52-0.74-2.26a9.71,9.71,0,0,0-1.25-2.65c-3.16-3.77-2.28-7,1.18-9.92l1-1,5.07-1c1.82,0,3,5.08,5.37.69,1.47,1.4,4.35,3.08,4.14,4.15-0.74,3.74,1.84,4.63,4,5,2.39,0.45,5.78.58,7.37-.76C194.27,87.3,195,92.57,197.45,92.48Zm3.2,29.15c-1.07-3.6-1.22-7.14-3-9.39-2.43-3-6.1-5.1-9.24-7.58-0.48-.38-0.94-0.77-1.42-1.16a7.09,7.09,0,0,0,2-.34,17.47,17.47,0,0,0,2.93-1.9,2.87,2.87,0,0,0-.72-1.33,68.74,68.74,0,0,0-6-5.08c-0.74-.53-2.52-0.73-3-0.24-2.31,2.21-1.2,11.89,1.47,13.82,0.32,0.23,1.17-.18,1.73-0.4a18.33,18.33,0,0,0,1.82-1c0.16,0.85.25,1.72,0.49,2.54,0.45,1.55,1,4.41,1.47,4.4,4.08-.08,5.14,2.68,6.49,5.64,0.52,1.15,2.19,1.92,3.5,2.5A2,2,0,0,0,200.65,121.63Z"/><path class="p" d="M164.46,82.49l-1,1c-3.43-1.67-6.78-3.53-10.31-5-3.89-1.6-4.67-4.34-3.68-8,4.27,2.57,8.65,5,12.75,7.8C163.38,79.09,163.74,81.06,164.46,82.49Z"/><path class="o" d="M220.5,86.44c-0.57-1.23-1.09-2.48-1.72-3.68-0.42-.8-1-2.16-1.5-2.16-3.59,0-4-2.33-3.92-5a15.1,15.1,0,0,0,2.22-2.26c1.11-1.72.64-1.17,2.33-.06a18.85,18.85,0,0,0,8.24,3c3.64,0.34,4.57,2,4.32,5.17-2.26-.25-4.51-0.6-6.77-0.69a8,8,0,0,0-2.6.84,24.93,24.93,0,0,0,1.13,2.22c0.46,0.73,1,1.39,1.58,2.08Z"/><path class="o" d="M200.38,64.3a10.11,10.11,0,0,1,1.57,2,1.93,1.93,0,0,1-1.22,1,5.59,5.59,0,0,1-1.87-1Z"/><path class="m" d="M281.36,161.54l-0.94,0c0.27-2.7,1.45-5.79.51-8-0.69-1.6-4.15-2-6.38-2.94a19.21,19.21,0,0,1-4.13-1.79c-2-1.49-3.34-4-6.54-1.76-1.53,1.07-3.7,2.16-5.12-1.13-0.45-1.05-3.47-1-5.31-1.45,0.37-3.1.22-6.62,5.27-5.14,0.73,0.21,2.06-1.09,2.91-1.91,2.09-2,8.62-1.2,8.37,1.12-0.74,6.93,3.69,4,6.56,3.81,0.87-.06,1.67-1.21,2.51-1.85a9.64,9.64,0,0,1-1.89-2c-0.82-1.59-1.39-3.3-2.07-5,2-.27,4.51-1.39,6-0.62,2.6,1.35,4.11,2.62,4.47-1.59,0.06-.67,1.22-1.24,1.87-1.86l1,14a61.07,61.07,0,0,1-.38,6.8c-0.11.73-1.29,1.3-2,1.95,0.68,0.39,1.5,1.24,2,1.08,1.13-.33,2.75-1,3-1.86,1.57-5,2.89-2.55,4.31,0,0.74,2.87,4,5.55-.91,8.4-2.69,1.58-2.57.68-3.63-1.11-0.79-1.34-2.5-2.15-3.79-3.19-0.7,1.13-1.83,2.21-2,3.4-0.09.82,1.2,1.79,1.88,2.7-1.24,0-2.48-.11-3.72-0.14C282.68,161.49,282,161.53,281.36,161.54Z"/><path class="l" d="M288.46,143.47l-1-14c-0.48-3.64-.81-7.11,3-9.61,2.23-1.48,4-3.58,6.05-5.4l1.74,1.63c1.35-4,4.33-1.33,6.58-1.69,0.86-.14,2.17-0.6,2.39-1.22,1.88-5.39,3-.92,4.29.28-1.85,1.31-3.66,2.68-5.57,3.91a15.56,15.56,0,0,1-2.81,1.13l3.38,1a24.35,24.35,0,0,0,2.15,3.08,16.67,16.67,0,0,0,2.64,1.92c-1,1.43-1.81,3.68-3.18,4.15-4.15,1.44-6.85,7-4.77,10.74a21.39,21.39,0,0,1,1.15,3.1c-1.78.36-4.3,1.64-5.2,0.92C295.41,140.29,292,140.43,288.46,143.47Z"/><path class="c" d="M288.46,143.47c3.57-3,7-3.19,10.78-.09,0.9,0.73,3.42-.56,5.2-0.92-0.34,1.62-.6,3.25-1,4.84a8.72,8.72,0,0,1-1.15,2c-3.66-3.64-3.93,3.34-6.8,2.18-1.43-2.55-2.74-5-4.31,0-0.27.88-1.9,1.52-3,1.86-0.52.16-1.34-.69-2-1.08,0.69-.65,1.87-1.21,2-1.95A61.06,61.06,0,0,0,288.46,143.47Z"/><path class="c" d="M326.46,133.45l-5-6c2,0.27,5.2,2.15,3.41-2.67-0.14-.38,1.67-1.49,2.58-2.27,0.63,2.38,1.68,4.75,1.72,7.14C329.17,130.9,327.42,132.18,326.46,133.45Z"/><path class="l" d="M306.06,135.75a1.57,1.57,0,0,1-.8.28,1.59,1.59,0,0,1-.34-0.78A0.63,0.63,0,0,1,306.06,135.75Z"/><path class="p" d="M350.45,124.48l-3,1.94-1,.06c-0.89-1.85-1.71-3.73-2.69-5.52-0.63-1.14-2.32-2.36-2.11-3.17,0.39-1.49,1.58-3.46,2.88-3.89,2.82-.92,5.92-1,8.91-1.41q0,0.49,0,1Z"/><path class="k" d="M346.45,126.48l1-.06,1,3.06Z"/><path class="i" d="M353.45,113.47q0-.49,0-1l1.51-.31Z"/><path class="p" d="M341.15,132.65a3.78,3.78,0,0,1-.81,0,0.59,0.59,0,0,1-.21-0.38,5.07,5.07,0,0,1,.64-0.43Z"/><path class="l" d="M270.48,99.43a5.15,5.15,0,0,0,1,0l1,0.06c-3,2.16-4.46,4.1.59,5.46,0.65,0.17,1,1.59,1.61,1.75,3.44,0.89,6.93,1.57,10.42,2.27a2.32,2.32,0,0,0,.75-0.6l5.54-3.68,4.09,7.76c-1.83-.47-3.64-1.05-5.49-1.36a12.74,12.74,0,0,0-3.12.24,15.52,15.52,0,0,0,.92,2.89,15.71,15.71,0,0,0,1.92,2.37l-3.22,2.63c-0.67-1.18-1.36-2.36-2-3.55-0.47-.86-0.88-1.75-1.32-2.62-2.29,1.27-5,2.12-6.79,3.91-3.22,3.23-4.7,3.75-5.18-1.6-0.07-.75-2.73-1.55-4.28-1.79-0.91-.14-2,0.79-3,1.23a19.18,19.18,0,0,0,3.05,2.33c2.77,1.36,3.89,2.9,2,6-1.41,2.29-5.06,3.63-3.51,7.35v2c-2.06-2-4.09-4.09-6.21-6.06a10.1,10.1,0,0,0-2.18-1.2,5.3,5.3,0,0,0,2.15-.79,24.87,24.87,0,0,0,2.25-3.37c-2.6-1.11-5.94-3.8-7.66-3-3.32,1.54-.14,3.7,1,5.76,0.82,1.51.25,3.78,0.3,5.71a19.48,19.48,0,0,0-2.44-2.63,7.66,7.66,0,0,0-2.73-1.13c-2.41-.61-4.85-1.12-7.27-1.68,1.57,1.77,3.15,3.53,4.69,5.32,0.58,0.68,1.06,1.46,1.58,2.2a11.42,11.42,0,0,1-3.11.71c-2.78-.15-5.55-0.55-8.33-0.85a15.53,15.53,0,0,0-1.77-1.71c-1.33-.94-2.73-1.78-4.1-2.66a23.78,23.78,0,0,1,0,4.54c-0.19,1-1.33,2.7-1.63,2.62-4.55-1.27-3.45,1-2.38,3.49a6.82,6.82,0,0,1,.16,2.21c-0.88-.31-2-0.37-2.56-1s-0.38-1.88-.73-2.78c-0.82-2.1-1.44-5.28-4-1.1a4.51,4.51,0,0,1-1,.87,2.41,2.41,0,0,1-.43-1.18c0.78-1.8,1.67-3.55,2.52-5.32l0.53,1.16a1.15,1.15,0,0,0,.28-0.23c-0.25-.64-0.53-1.28-0.81-1.92h0l1.68-3.55c1.82,1.54,3.54,1.65,3.55-1.13,0-1.4-1.22-3.13-2.38-4.13-2.17-1.87-4.76-3.24-7-5-0.67-.51-0.88-1.61-1.3-2.44a21.47,21.47,0,0,0,2.56.61c1.07,0.13,2.17.1,3.25,0.13a32.22,32.22,0,0,0-1.34-3.38c-1.26-2.4-2.64-4.75-4-7.12l-1-1h0v-3c1.53,1.08,3.88,1.84,4.43,3.29,1.25,3.27,2.94,4.72,6.54,4.88,1.8,0.08,3.46,2.05,5.27,3a41.64,41.64,0,0,0,4.26,1.7,32.34,32.34,0,0,0,.58-3.31c0.23-3.09.92-5.38,4.85-3.75,2.49,1,5.54,3.16,7.52,2.47,3.14-1.1,4-1.2,5.16,2.13,0.63,1.75,3.5,2.7,5.36,4a4.23,4.23,0,0,0,1-1.48c0.27-2.27,1.33-4.58-1.81-6.2-1.2-.62-1.44-3.11-2.12-4.74,0.63-.37,1.57-1.21,1.84-1C262.39,102.16,266.42,101.2,270.48,99.43Z"/><path class="e" d="M256.44,100.47c0.68,1.64.92,4.12,2.12,4.74,3.15,1.62,2.08,3.94,1.81,6.2a4.23,4.23,0,0,1-1,1.48c-1.86-1.31-4.74-2.26-5.36-4-1.19-3.34-2-3.24-5.16-2.13-2,.69-5-1.43-7.52-2.47-3.93-1.63-4.62.67-4.85,3.75a32.34,32.34,0,0,1-.58,3.31,41.64,41.64,0,0,1-4.26-1.7c-1.81-.95-3.48-2.92-5.27-3-3.6-.17-5.29-1.61-6.54-4.88-0.55-1.45-2.9-2.22-4.43-3.29l-1.67,1.66,1.68,1.34h0l1,1c1.33,2.37,2.7,4.72,4,7.12a32.22,32.22,0,0,1,1.34,3.38c-1.09,0-2.18,0-3.25-.13a21.47,21.47,0,0,1-2.56-.61c0.42,0.83.64,1.93,1.3,2.44,2.28,1.75,4.88,3.13,7,5,1.16,1,2.39,2.74,2.38,4.13,0,2.77-1.74,2.67-3.55,1.13l-1.68,3.55h-3c-0.06-4.12.08-8.15-5.63-9-1.85-.28-4.14-2.1-0.2-3.65,0.33-.13.43-2.29-0.07-2.82-2.22-2.31-4.7-4.37-7.08-6.52v-7h0l18-5,3.76,3c0.3-.63.93-1.31,0.85-1.89-0.28-2.06-.81-4.09-1.24-6.14,2.05-.28,4.33-1.27,6.12-0.71,3.65,1.15,7,3.13,10.54,4.77v4l-1.77,2.05,1.8-.06,8-3h0Zm-19.89,3.26c-1.57-1-2.33-1.67-3.18-1.82-0.4-.07-1,1-1.48,1.52a7.06,7.06,0,0,0,2,1C234.47,104.5,235.14,104.11,236.55,103.73Z"/><path class="e" d="M295.45,112.48l-4.09-7.76-5.54,3.68a2.32,2.32,0,0,1-.75.6c-3.49-.7-7-1.39-10.42-2.27-0.64-.17-1-1.58-1.61-1.75-5.06-1.36-3.59-3.3-.59-5.46l0-1c4.3,0.34,8.61.61,12.91,1a16.49,16.49,0,0,1,4.14,1.08c5,1.9,10,3.89,14.94,5.85l10,2c2.2,3.58.15,4.62-3,5-1.34-1.2-2.41-5.67-4.29-.28-0.22.62-1.52,1.08-2.39,1.22-2.25.36-5.23-2.26-6.58,1.69l-1.74-1.63Z"/><path class="g" d="M256.44,100.47l-5-4c0.78,0.18,2.21.56,2.23,0.5,2.41-7.66,7.26-1.28,10.79-1.57,1.88-.15,4,2.58,6,4-4.06,1.77-8.09,2.73-12.2,0C258,99.27,257.07,100.11,256.44,100.47Z"/><path class="g" d="M314.44,108.47l-10-2c0.06-1.95-3.86-4.8,1.4-5.75,0.51-.09.44-3.44,0.64-5.27,5.51,1.56,9.46,4,6.41,10.76C312.7,106.64,313.89,107.7,314.44,108.47Z"/><path class="g" d="M243.46,97.47v-4l8,3-8,3Q243.47,98.47,243.46,97.47Z"/><path class="g" d="M272.46,98.5l0,1-1-.06Z"/><path class="e" d="M223.46,91.49l-1-1.05Z"/><path class="h" d="M163.44,127.47q0-.47.05-0.94l26,7.91c-1,.28-2.25,1.07-3.06.76-5-1.87-5.86-.18-3.93,4.24l-4,1c-2.41-1.2-4.71-3-7.26-3.49C165.74,135.9,163.63,132.59,163.44,127.47Z"/><path class="h" d="M159.42,124.51l2,3a23.61,23.61,0,0,1,.87,3.31c0.2,1.64.18,3.3,0.26,5-1.66-1.21-4.46-2.19-4.76-3.69-1-4.84-3.22-2.52-5.41-1.48l-1.95-2.11c-0.09-2-.43-3.73,2.81-2.21C155.16,127.16,158.27,128.16,159.42,124.51Z"/><path class="k" d="M144.45,115.49l1,1Z"/><path class="h" d="M214.4,152.52c2.75,0.19,6.63-1.33,6,4l-1,0C216.56,156.68,214.2,156.21,214.4,152.52Z"/><path class="h" d="M226.41,156.54c4-.8,6.83-0.12,6,5Z"/><path class="n" d="M383.44,136.48l0,2h-1l-3,1L378,135.73Z"/><path class="m" d="M218.44,128.49h3q0,0.49,0,1c-0.85,1.77-1.74,3.52-2.52,5.32a2.41,2.41,0,0,0,.43,1.18,4.51,4.51,0,0,0,1-.87c2.59-4.18,3.22-1,4,1.1,0.35,0.9.17,2.12,0.73,2.78s1.68,0.68,2.56,1a6.82,6.82,0,0,0-.16-2.21c-1.06-2.48-2.16-4.76,2.38-3.49,0.3,0.08,1.44-1.63,1.63-2.62a23.78,23.78,0,0,0,0-4.54c1.37,0.88,2.77,1.72,4.1,2.66a15.53,15.53,0,0,1,1.77,1.71l2,6c-1.24,1.63-4.85,2.56-1.64,5.6,0.17,0.16-.9,1.62-1.4,2.48l-2,0c-3.43-1.29-7.39-1.89-10.16-4-4.06-3.14-7.72-2.73-11.83-1l-2-1.06-4-3.91c-0.65-1.78-1.43-3.54-1.91-5.37a34.75,34.75,0,0,1-.61-4.57c2.26,0,4.53,0,6.78.13a5.35,5.35,0,0,1,1.73.79l4,2h2Z"/><path class="j" d="M206.45,135.5l4,3.91c-0.82.68-2,2.11-2.41,1.92-4.6-2-9.09-4.34-13.64-6.49,0,0-.55,1-0.85,1.55l-0.19.2-3.9-2.15-26-7.91c-0.14-4.3,2.12-2.45,4.37-2s3.85,4.9,6.59,1c2.16,0.35,4.33.66,6.47,1.08a34.15,34.15,0,0,1,5.05,1.21c4.18,1.49,8.31,3.14,12.45,4.72Z"/><path class="p" d="M212.46,140.47c4.11-1.73,7.78-2.14,11.83,1,2.77,2.14,6.73,2.74,10.16,4l-7,2c-4.42-1.46-8.87-2.82-13.22-4.46C213.4,142.79,213,141.37,212.46,140.47Z"/><path class="j" d="M193.55,136.4l0.37,0.56-0.56-.36Z"/><path class="p" d="M382.44,138.5h1l-0.5,1.27Z"/><path class="c" d="M198.43,132.51c-4.15-1.58-8.27-3.22-12.45-4.72a34.15,34.15,0,0,0-5.05-1.21c-2.15-.41-4.32-0.72-6.47-1.08l-2-4a37.73,37.73,0,0,1,1.37-3.7c0.9-1.86,1.45-2.86,3.07-.08,0.9,1.56,3.75,2,5.78,2.87,0.73,0.3,1.84,0,2.36.42,3.08,2.61,6,5.39,9,8.05C195.46,130.27,197,131.36,198.43,132.51Z"/><path class="p" d="M318.81,144.24l-0.41.87a4.52,4.52,0,0,1-.82-1,1.69,1.69,0,0,1,.32-0.84Z"/><path class="c" d="M239.45,137.45l-2-6c2.77,0.3,5.54.69,8.33,0.85a11.42,11.42,0,0,0,3.11-.71c-0.52-.73-1-1.51-1.58-2.2-1.54-1.8-3.12-3.55-4.69-5.32,2.43,0.55,4.86,1.06,7.27,1.68a7.66,7.66,0,0,1,2.73,1.13,19.48,19.48,0,0,1,2.44,2.63c0-1.93.52-4.2-.3-5.71-1.12-2.06-4.3-4.22-1-5.76,1.72-.8,5.05,1.89,7.66,3a24.87,24.87,0,0,1-2.25,3.37,5.3,5.3,0,0,1-2.15.79,10.1,10.1,0,0,1,2.18,1.2c2.12,2,4.15,4,6.21,6.06l1.55-1.22-1.54-.77c-1.55-3.72,2.1-5.06,3.51-7.35,1.89-3.07.76-4.61-2-6a19.18,19.18,0,0,1-3.05-2.33c1-.45,2.08-1.37,3-1.23,1.54,0.24,4.21,1,4.28,1.79,0.48,5.35,2,4.83,5.18,1.6,1.78-1.78,4.5-2.64,6.79-3.91,0.44,0.88.85,1.76,1.32,2.62,0.65,1.2,1.34,2.37,2,3.55l3.22-2.63a15.71,15.71,0,0,1-1.92-2.37,15.52,15.52,0,0,1-.92-2.89,12.74,12.74,0,0,1,3.12-.24c1.86,0.31,3.67.89,5.49,1.36l1,2c-2,1.82-3.82,3.92-6.05,5.4-3.76,2.49-3.43,6-3,9.61-0.65.62-1.82,1.19-1.87,1.86-0.36,4.21-1.87,2.95-4.47,1.59-1.49-.77-4,0.35-6,0.62,0.68,1.66,1.25,3.37,2.07,5a9.64,9.64,0,0,0,1.89,2c-0.83.65-1.63,1.8-2.51,1.85-2.87.19-7.3,3.12-6.56-3.81,0.25-2.32-6.28-3.11-8.37-1.12-0.85.81-2.18,2.12-2.91,1.91-5.05-1.48-4.9,2-5.27,5.14Z"/><path class="e" d="M200.65,121.63a2,2,0,0,1-1.46.51c-1.31-.58-3-1.35-3.5-2.5-1.35-3-2.41-5.72-6.49-5.64-0.46,0-1-2.85-1.47-4.4-0.24-.83-0.33-1.69-0.49-2.54a18.33,18.33,0,0,1-1.82,1c-0.56.23-1.41,0.63-1.73,0.4-2.68-1.93-3.78-11.61-1.47-13.82,0.51-.48,2.29-0.28,3,0.24a68.74,68.74,0,0,1,6,5.08,2.87,2.87,0,0,1,.72,1.33,17.47,17.47,0,0,1-2.93,1.9,7.09,7.09,0,0,1-2,.34c0.47,0.39.94,0.78,1.42,1.16,3.14,2.48,6.82,4.53,9.24,7.58C199.43,114.49,199.58,118,200.65,121.63Z"/><path class="g" d="M205.45,99.47v7C201.61,104.46,201.61,102.65,205.45,99.47Z"/><path class="e" d="M216.45,128.48l-4-2,2.72-1.8Z"/><path class="g" d="M215.46,101.48l-1.68-1.34,1.67-1.66v3Z"/><path class="m" d="M265.45,130.48l1.54,0.77-1.55,1.22Q265.45,131.48,265.45,130.48Z"/><path class="e" d="M221.44,129.47q0-.49,0-1c0.27,0.64.55,1.27,0.81,1.92a1.15,1.15,0,0,1-.28.23Z"/><path class="g" d="M216.45,102.47l-1-1Z"/><path class="l" d="M236.55,103.73c-1.41.39-2.09,0.77-2.69,0.68a7.06,7.06,0,0,1-2-1c0.5-.54,1.09-1.59,1.48-1.52C234.22,102.05,235,102.77,236.55,103.73Z"/><path class="l" d="M243.46,97.47q0,1,0,2l-1.8.06Z"/></svg>