<?xml version="1.0" standalone="no"?>
<!DOCTYPE svg PUBLIC "-//W3C//DTD SVG 20010904//EN"
 "http://www.w3.org/TR/2001/REC-SVG-20010904/DTD/svg10.dtd">
<svg version="1.0" xmlns="http://www.w3.org/2000/svg"
 width="742.000000pt" height="742.000000pt" viewBox="0 0 742.000000 742.000000"
 preserveAspectRatio="xMidYMid meet">
<metadata>
Created by potrace 1.11, written by Peter Selinger 2001-2013
</metadata>
<g transform="translate(0.000000,742.000000) scale(0.100000,-0.100000)"
fill="#000000" stroke="none">
<path d="M3637 7404 c-37 -8 -80 -20 -95 -26 -26 -10 -43 -12 -172 -18 -62 -3
-87 -13 -113 -44 -21 -25 -72 -102 -113 -169 -57 -94 -110 -157 -122 -145 -7
7 -8 17 -2 28 5 9 5 22 0 29 -6 10 -10 8 -15 -9 -5 -16 -10 -19 -18 -11 -17
17 -41 13 -71 -10 -32 -26 -34 -62 -3 -86 45 -35 42 -63 -19 -191 -109 -227
-129 -267 -150 -299 l-21 -32 -13 24 c-11 20 -16 22 -41 13 -15 -5 -31 -18
-34 -29 -4 -11 -17 -30 -31 -44 -15 -16 -22 -30 -17 -42 10 -29 44 -62 58 -57
23 9 24 -10 3 -66 -18 -50 -33 -104 -44 -154 -2 -11 -15 -58 -28 -105 -14 -47
-27 -106 -30 -131 -11 -90 -19 -105 -58 -108 -28 -2 -40 2 -52 19 -13 20 -16
20 -22 6 -4 -12 -14 -16 -34 -12 -16 3 -32 -1 -39 -9 -15 -18 -3 -71 20 -92
18 -17 23 -17 71 -1 58 18 72 11 61 -33 -9 -38 -14 -42 -31 -27 -35 30 -122 9
-122 -29 0 -7 12 -27 26 -44 19 -22 30 -28 37 -21 6 6 24 11 40 11 28 0 29 0
22 -47 -3 -27 -8 -55 -10 -63 -2 -8 -11 -53 -19 -100 -21 -117 -35 -185 -58
-273 -8 -33 -11 -37 -24 -26 -8 7 -13 17 -11 23 6 15 -83 19 -100 4 -24 -20
-15 -55 21 -77 19 -12 38 -21 43 -20 22 4 22 -4 -2 -35 -20 -26 -24 -39 -17
-53 5 -10 8 -47 7 -82 -1 -58 -4 -65 -28 -78 -15 -8 -32 -11 -37 -8 -6 3 -16
3 -22 -2 -7 -4 -24 -9 -38 -9 -14 -1 -49 -7 -78 -13 -28 -6 -66 -8 -82 -4 -21
4 -35 1 -43 -9 -7 -8 -39 -21 -72 -28 -33 -7 -73 -18 -90 -25 -16 -8 -33 -11
-37 -9 -4 3 -50 -7 -103 -21 -52 -14 -104 -28 -116 -30 -11 -2 -91 -22 -177
-44 -156 -40 -181 -45 -257 -58 -50 -8 -111 -35 -150 -67 -29 -23 -30 -27 -30
-108 1 -53 12 -137 32 -233 17 -82 39 -190 48 -240 9 -49 19 -99 21 -110 3
-11 9 -56 15 -100 6 -44 14 -91 19 -105 5 -14 12 -45 15 -70 3 -25 10 -61 15
-80 6 -19 10 -47 10 -61 0 -15 6 -32 14 -38 7 -6 12 -23 10 -37 -1 -15 2 -37
7 -51 5 -13 11 -51 13 -86 2 -34 9 -75 15 -90 6 -16 11 -45 11 -65 0 -21 7
-48 16 -60 8 -12 14 -30 12 -40 -1 -9 5 -28 14 -41 13 -18 16 -39 12 -86 -2
-35 0 -75 6 -90 6 -16 15 -62 21 -104 6 -42 19 -114 30 -161 11 -47 22 -103
24 -125 2 -22 14 -85 25 -140 12 -55 24 -113 27 -130 3 -16 10 -39 16 -50 6
-11 12 -29 13 -40 5 -49 33 -135 53 -169 13 -20 48 -57 78 -82 31 -24 64 -56
75 -70 11 -13 48 -43 81 -66 34 -23 96 -71 137 -106 41 -35 90 -71 109 -80 19
-9 49 -31 66 -48 17 -17 92 -76 166 -132 74 -56 163 -124 199 -152 36 -28 85
-63 110 -77 25 -15 49 -33 53 -41 5 -7 27 -26 49 -42 23 -17 72 -58 110 -92
85 -76 121 -103 159 -118 26 -11 33 -22 32 -56 0 -6 11 -12 25 -11 16 0 34
-11 47 -26 11 -15 43 -39 72 -54 65 -36 251 -175 252 -189 1 -12 37 -48 97
-97 37 -30 40 -35 28 -52 -19 -26 -12 -31 45 -32 43 -1 60 5 113 39 35 22 69
49 75 58 7 10 34 28 59 40 25 13 61 38 80 56 18 19 40 34 47 34 8 0 68 43 133
96 65 52 170 130 233 172 63 42 136 98 161 124 25 25 77 63 115 83 39 20 101
62 140 93 38 32 102 80 142 107 64 43 372 262 496 350 99 72 404 304 457 348
8 6 22 17 31 22 9 6 60 44 113 85 53 41 117 86 144 100 102 53 133 90 146 172
3 21 11 59 17 85 6 27 15 75 19 108 14 103 21 139 30 169 6 15 8 31 6 35 -2 3
0 42 6 86 5 44 12 96 14 115 3 34 18 130 28 179 3 12 9 28 14 35 16 19 54 203
48 233 -2 15 -8 43 -11 60 -7 33 6 82 30 113 7 8 11 33 10 55 -1 22 2 51 7 64
5 14 4 28 -2 36 -15 18 -14 50 5 160 10 55 19 130 20 166 1 36 6 72 11 80 10
17 11 20 18 107 3 37 13 91 21 121 9 35 11 60 5 71 -6 11 -5 21 2 28 11 11 16
45 32 205 3 21 7 55 11 75 3 20 8 53 10 72 2 19 7 56 11 83 3 29 2 47 -4 47
-6 0 -13 14 -17 30 -8 34 -23 40 -105 39 -69 -1 -149 9 -175 22 -11 5 -40 13
-65 17 -37 7 -44 11 -42 28 3 18 4 40 2 134 -2 71 10 147 30 205 14 37 19 70
16 90 -11 55 -11 69 4 144 13 71 9 146 -15 276 -13 68 -15 83 -21 150 -9 102
-9 101 -68 189 -30 44 -63 98 -75 119 -12 20 -30 54 -42 75 -39 68 -107 157
-141 182 -81 61 -248 249 -248 279 0 6 -4 11 -8 11 -14 0 -181 177 -182 193 0
4 -4 7 -9 7 -5 0 -20 9 -33 20 -68 58 -280 217 -323 243 -96 57 -370 193 -423
210 -29 10 -76 28 -105 41 -71 32 -138 53 -232 71 -44 9 -101 23 -126 31 -25
8 -85 17 -133 19 -49 3 -91 7 -95 9 -22 14 -153 14 -214 0z"/>
</g>
</svg>
