<svg xmlns="http://www.w3.org/2000/svg" viewBox="0 0 312.66 384.27"><defs><style>.a{fill:#d3d7e3;}.b{fill:#80839e;}.c{fill:#a87764;}.d{fill:#8e6254;}.e{fill:#24242e;}.f{fill:#9299b2;}.g{fill:#948e81;}.h{fill:#c2ccdb;}.i{fill:#6f4741;}.j{fill:#b8c3d4;}.k{fill:#adb7c9;}.l{fill:#6d6c63;}.m{fill:#60615a;}.n{fill:#9cabbf;}.o{fill:#383e40;}.p{fill:#434a45;}.q{fill:#525550;}.r{fill:#a2a19b;}.s{fill:#77776b;}.t{fill:#848177;}.u{fill:#cbd2df;}.v{fill:#313530;}.w{fill:#d9dce8;}.x{fill:#bdc7d6;}.y{fill:#a6b2c4;}.z{fill:#1b4b80;}.aa{fill:#b2bdce;}.ab{fill:#ba8c7a;}.ac{fill:#40597b;}.ad{fill:#446c9b;}</style></defs><title>daniel</title><path class="a" d="M297.68,384.27h-58l5-4,4-4,1-1,6-5,5-5c2.19-2.69,4.6-5.24,6.54-8.1,4.42-6.53,8.67-13.19,12.85-19.88,0.77-1.23.89-2.86,1.31-4.3l-1.19-.56a34.2,34.2,0,0,0-2.66,3.24c-3,4.72-5.87,9.56-9,14.22-2.82,4.22-5.9,8.25-8.87,12.37-1.43.9-2.93,1.7-4.28,2.72s-2.49,2.2-3.72,3.31c-4.35-.69-5.21-2.32-2.42-6.67,3.55-5.54,8-10.53,11.55-16,2.72-4.2,4.73-8.87,7.68-14.52-2.41.56-3,.63-3.61,0.86-1.35.55-2.68,1.17-4,1.76,0.14-1.3.67-2.71,0.33-3.87a37.15,37.15,0,0,0-2.52-5.51l0-2,9.39-12.48-1.63-1.21-10.77,13.69-5,5v-2l7-9.9-1.09-.88-4.87,3.8c1.13-8.2-3.37-14.73-6.56-21.62-0.38-.82-2.25-1-3.43-1.41l8.86-13.88c-5.35,1.57-5.7,8.3-11.68,6.22,2.29-3.69,3-7-1.79-8.33,1.39-10.59,8.4-16.27,16.6-21a76.68,76.68,0,0,0,.66,9.08,86.37,86.37,0,0,0,2.76,9.22c4-.78,4.24,1.51,2.85,5.14a9.1,9.1,0,0,0-.59,3.76c0.36,5.34.86,10.67,1.36,16a33.78,33.78,0,0,0,.65,3.36c3.49-.79,1.37-9.83,7.61-4.13l5.54-6.6c2,6,2.38,6.43,5,6.09,4.08-.52,2.72-3.8,3.23-6.19,1.53-7.26,4.06-14,8.71-19.62l2.23-5.13c0.32,1.93,1.22,4,.85,5.78-1.55,7.6.78,14.46,3.42,21.33l0.49,27.6-0.93,3.31,0.1,5.95,0.23,6.94v2.17l0.19,3.74,0,3.33q-0.08,1.86-.16,3.72,0,6.67.08,13.35l0.6,8.78,0,4-0.15,3.93ZM276,303.06c-0.84-.66-1.38-1.35-1.65-1.25a2.59,2.59,0,0,0-1.17,1.27,1.41,1.41,0,0,0,.81.86A7.65,7.65,0,0,0,276,303.06Z"/><path class="b" d="M118.68,384.27h-26c1.29-9.73,2.63-19.45,3.81-29.2,0.15-1.21-.5-2.51-0.78-3.77l0,0,0.09-3,0.06-2.91c1.27-1.08,3.23-1.93,3.69-3.29,2.43-7.19,4.39-14.53,6.74-21.75,0.4-1.22,1.9-2.07,3.81-4.05,1.56,15.33-1,29.45,2.85,43.1a12.53,12.53,0,0,0,.67-4.89c0-9.8-.1-19.61.1-29.41,0-1.95,1.26-3.87,1.94-5.8l7,1-1.92,28-0.55,8.88-0.64,1Z"/><path class="c" d="M45.68,384.27h-22V364.16c4.63-.81,4.93-2.09,2.79-7.18-0.92-2.18-.3-5.09-0.07-7.65a32.19,32.19,0,0,1,1.31-5.16l13.93,0.14,7.88,2,0.3,2.88c-0.47,6.08-.75,12.18-1.45,18.24C47.71,373.06,46.6,378.65,45.68,384.27Z"/><path class="d" d="M27.71,344.17a32.19,32.19,0,0,0-1.31,5.16c-0.23,2.55-.85,5.46.07,7.65,2.14,5.09,1.84,6.38-2.79,7.18v20.11h-16c0.67-11.07,1.14-22.15,2.09-33.19,0.75-8.7,1-8.67,9.56-8.43a4.71,4.71,0,0,0,1.42-.44l2.84-1,2.16,0Z"/><path class="e" d="M118.68,384.27l0.91-26.08,7.19,1,0.08-2h-6.62l0.55-8.88,3.3,4.49c1.36-1.51,3.28-2.79,4-4.56a48.21,48.21,0,0,0,3.4-12.15c0.23-2.09-1.83-4.4-2.74-6.66-0.57-1.42-1.76-3.57-1.22-4.26,1.47-1.9,3.71-3.2,5.65-4.74,1.68,2.72,3.25.08,4.87-.1l-0.59,5.93c-4.43,1.43-4.82,4.77-1.16,10l0.08,3c-0.52.57-1.47,1.13-1.48,1.71-0.25,10.85-.39,21.71-0.55,32.57l0.14,4.6-0.78,6.19h-15Zm11.9-24.7,0,0.38,0.4-.16Z"/><path class="f" d="M95.72,351.31c0.28,1.26.92,2.56,0.78,3.77-1.19,9.74-2.52,19.47-3.81,29.2h-6l-0.05-15.06v-3.89L88,345.08l-2.34-.4c-1.8,5.09-3.45,10.23-5.49,15.22-0.55,1.35-2.28,2.22-3.46,3.31l-3.09-10.9c-0.46-1.71-.55-3.66-1.45-5.09-3.54-5.65-7.32-11.14-11-16.68-1.09-1.62-2.26-3.18-3.39-4.77L57.7,311.27c1.27,0.51,3.33.72,3.67,1.59,1.67,4.29,2.72,8.81,4.3,13.15,3.19,8.76,8.51,15.6,18.1,19.3l1.88-6q0-6.7,0-13.41l2,0c2.72,7.58,1.92,15.58,2.07,23.46-0.09,15.64-.09,15.64,2.21,17.1Z"/><path class="g" d="M302.42,300.74l0.36,0.23,0.05-.37Z"/><path class="h" d="M251.68,368.28c1.23-1.11,2.4-2.31,3.72-3.31s2.84-1.82,4.28-2.71l1,3-5,5-6,5-1,1-4,4-5,4h-8l-3.42-3.11c1.23-4.42,2.57-8.91,3.7-13.45,0.62-2.5.45-5.27,1.4-7.6,2.94-7.19,6.24-14.24,9.41-21.34-3.84,2.83-6.91,6.43-10.3,9.7-1.63,1.57-3.87,2.51-5.84,3.74l5-7.94,2-1.07,9-8.95c4.79,0.11,6.22-3.65,8-7l5-5h3l0,2c-5.61,4.55-10.48,9.57-12.49,16.87-1.46,5.28-3.43,10.41-5.41,16.33,2.9,2.9,1.62,6.19-2,9.19s-5.23,6.41-.69,10.5C243.7,376,248,372.71,251.68,368.28Z"/><path class="i" d="M20.75,342.21a4.7,4.7,0,0,1-1.42.44c-8.53-.24-8.8-0.26-9.56,8.43-1,11-1.42,22.13-2.09,33.19h-6l0.11-10.09,0.91-3.83,0.06-5-0.07,0,0.84-.92c0.16-2.57,3.89-6-1.79-7.15L0,354.34c2.28,0.7,4.85,1.47,5.55-1.77C6,350.4,7,347.32,2.89,347.07l-0.2-2.78,0.19-.16,4.77-1.84,0-4v-6h2.39l8.62,4,2.77,1.06Z"/><path class="j" d="M226.64,352.21c2-1.23,4.21-2.17,5.84-3.74,3.39-3.27,6.46-6.87,10.3-9.7-3.16,7.1-6.47,14.15-9.41,21.34-1,2.33-.78,5.1-1.4,7.6-1.13,4.54-2.47,9-3.7,13.45l3.42,3.11h-10L229.84,357l-1.46-.9c-1.23,1-2.54,2-3.67,3.15-1.51,1.51-2.78,3.29-4.39,4.66-0.4.34-1.75-.44-2.66-0.7l6.14-9.89Z"/><path class="f" d="M173.68,384.27h-8c-2.78-6.1-5.32-12.34-8.45-18.26-1.4-2.64-4-4.66-6.09-6.9a18.71,18.71,0,0,0-1.48,1.16l-2-4c-1-6.45-2.5-13,3.21-18.53l1.86,4.55,0.88,4,4.09,12,3,4q0,0.49.06,1c0.75,5.89,5.29,9.19,9,13.06Z"/><path class="b" d="M173.68,384.27l-4-8,5,0,4-4,1-1,2.51-1.68-1.5-1.39c0.59-4.84-.33-9-5.11-11.47-0.85-.45-1.28-1.7-1.9-2.59,5.52-.5,10.69-0.25,13.11,6l1.55,2.23,0.19,0.12a32.8,32.8,0,0,0,.72,3.87c0.83,2.7,1.81,5.36,2.72,8-2.75.61-5.5,1.26-8.26,1.82-4.71.95-7.65,4.25-7.06,8h-3Z"/><path class="k" d="M217.65,363.24c0.91,0.26,2.26,1,2.66.7,1.62-1.37,2.89-3.14,4.39-4.66,1.13-1.14,2.44-2.1,3.67-3.15l1.46,0.9-8.15,27.24h-4l2.15-13.34-1.67-.49-6.63,6.94-0.81-3.07Z"/><path class="f" d="M197.68,384.27h-6l1.79-6,4.07-11.08,6.8-18c0.24,1.15.8,2.35,0.66,3.46-0.67,5.22-1.53,10.41-2.32,15.61l-1.43,1,1.48,1Z"/><path class="d" d="M45.68,384.27c0.91-5.62,2-11.22,2.68-16.87,0.71-6.05,1-12.15,1.45-18.23,1.08,5.12,2.79,10.2,3.06,15.35s-0.87,10.53-1.39,15.8l-0.07,1.88-1.74,2.06h-4Z"/><path class="b" d="M149.67,360.28a18.72,18.72,0,0,1,1.48-1.16c2.11,2.24,4.69,4.26,6.09,6.9,3.13,5.92,5.67,12.15,8.45,18.26h-8l-1-1.9c-0.1-1.86.24-3.89-.37-5.56C154.27,371.24,151.91,365.78,149.67,360.28Z"/><path class="b" d="M197.68,384.27l5-13.94v0l2-2,1-1c5.37,0,3.61,4.12,4,7l-2,10h-10Z"/><path class="l" d="M82.68,384.27h-7L67.2,373.7l-2.55,6.53-8.57-1.13,1.81-6.69,7.9-2.15c2.54,2.19,5.51,4,7.49,6.65s3.52,3.62,6.44,2.33Z"/><path class="m" d="M197.54,367.2l-4.07,11.08c-9.08,0-9.22.05-9.79,6h-7c-0.59-3.75,2.36-7,7.06-8,2.76-.56,5.51-1.21,8.26-1.82-0.92-2.68-1.89-5.34-2.72-8a32.73,32.73,0,0,1-.72-3.87Z"/><path class="n" d="M207.68,384.27l2-10,1,0,0.81,3.07,6.63-6.94,1.67,0.49-2.15,13.34h-10Z"/><path class="b" d="M134.46,378.08q-0.07-2.3-.14-4.6l9.33,1.87,4,8.93h-11Z"/><path class="m" d="M147.68,384.27l-4-8.93-4-15.19q0-.94,0-1.88c0.74,1.3,1.4,2.65,2.22,3.89,1.56,2.35,3.22,4.64,4.84,7l1,3.11,0,0,5,12h-5Z"/><path class="b" d="M82.68,384.27l-3-5,0.9-3,6-7,0.05,15.06h-4Z"/><path class="o" d="M56.08,379.09l8.57,1.13c3-.12,3.15,1.86,3,4h-18l1.74-2.06Z"/><path class="p" d="M67.68,384.27c0.11-2.19-.06-4.17-3-4l2.55-6.53,8.48,10.58h-8Z"/><path class="q" d="M183.68,384.27c0.57-5.93.71-6,9.79-6l-1.79,6h-8Z"/><path class="p" d="M152.68,384.27l-5-12,5.77,6.1,3.16,4,1,1.9h-5Z"/><path class="l" d="M134.46,378.08l2.22,6.19h-3Z"/><path class="r" d="M298.53,383.2l0.15,1.07h-1Z"/><path class="q" d="M78.47,89.29c-2.29-6.71.41-13.1,1.18-19.62,0.21-1.77.1-3.59,0.13-5.38l4.41-21,1.61-4.8,0.83-2.2,1.11-1,1,0.07,1.1,2.87,5-1.63,0.35,0.82-5.67,5.38,4.22,0.44c-0.64,2.52-2.35,5.36-1.71,7.49,1.7,5.62-.74,10.51-1.62,15.65-0.36,2.06-1.73,3.95-2.65,5.91V59.39C86.36,61.7,85.31,62.78,85,64c-1.3,5.08-2.6,10.19-3.43,15.36-0.3,1.89.71,4,1.13,6l0.9,12.89-3,2-0.52-2q0-1,0-2.05l-0.41-1.94-0.12-1Z"/><path class="s" d="M124.1,3l7.38,0.07a31.83,31.83,0,0,1,4.86.28c3.51,0.73,7,1.69,10.46,2.56l-1.17.37c-6.88.32-13.78,0.36-20.62,1.07-3.2.33-7.31,0.87-6.45,6.06l-0.94,3.63c-8.74,2.11-10.32,3.83-11.2,12.18l-0.81,1h-0.85l-0.19-3.85-1.07-.94-1,3.71-1.18-.83-0.59-3.18L99.19,22l-0.54,3.24-3,2.94-1.2-4,3.3-7.43,0-2,0.29,0a0.71,0.71,0,0,0,.84.38l0.37-.25L100.39,15l-0.17-1.1Z"/><path class="g" d="M146.81,5.93c-3.48-.87-6.95-1.82-10.46-2.56a31.83,31.83,0,0,0-4.86-.28c4.2-.93,8.38-2.42,12.62-2.65,7.6-.41,15.33-0.81,22.82.19,6.06,0.81,11.84,3.68,17.74,5.63l1.09,1.93c-4.53-.71-9.05-1.54-13.61-2-0.74-.08-1.65,1.35-2.48,2.09-4-2.7-8.2-4.94-13.16-4.61L156,5.11l8.64,3.22,3.09,1.9,2.93,1.66c0.84,3.83-1.44,1.9-3,1.71a41.84,41.84,0,0,0-5,0L151.77,8.05l-2.14-1.68Z"/><path class="d" d="M162.68,13.58a41.14,41.14,0,0,1,5,0c1.55,0.19,3.83,2.12,3-1.71l-1-3.64c0.83-.73,1.73-2.17,2.48-2.09,4.56,0.49,9.08,1.31,13.61,2h0l3.05,2a2.8,2.8,0,0,1,.77.29l2.29,1.66a3,3,0,0,1,.7.36l1.19,2.12,3.82,2.7,0.09,1.83c-6-.48-12.13-0.41-18-1.65-3-.64-5.37-0.91-7.87.79l-3.09,1,0-1.89-1.74-1.88-1.24,1.89-3,.64Z"/><path class="t" d="M197.64,19.15q0-.91-0.09-1.83l0.09-1,2.72,3.64,11.19,22.63q0,4.89.05,9.77c-1.51-1.87-4.61-4.18-4.24-5.53,1.7-6.11-4.25-9.53-4.38-14.78l-1.32.43Z"/><path class="l" d="M85.22,38.57a1.31,1.31,0,0,1,.58-0.11l-1.61,4.8Z"/><path class="i" d="M197.65,16.29l-0.09,1-3.82-2.7,1.05-.49,1.16,1,0.92,0.79A1.48,1.48,0,0,1,197.65,16.29Z"/><path class="g" d="M188.8,10.19l-3.05-2Z"/><path class="g" d="M194.79,14.13l-1.05.49-1.19-2.12Z"/><path class="g" d="M191.85,12.15l-2.29-1.66Z"/><path class="d" d="M196.87,15.92L196,15.13Z"/><path class="o" d="M91.85,198.34l-0.3.67c0.48,0.16,1,.32,1.45.45a1.28,1.28,0,0,0,.17-0.36C92.74,198.83,92.29,198.59,91.85,198.34Z"/><path class="h" d="M32.83,233.34l3.85-4.06c0.66,1.72,1.85,3.43,1.9,5.17,0.23,7.26.11,14.53,0.12,21.79l-1,3-1.52-17.62-0.59,0V260.3c-4.55-5.51-4.05-12-3.6-18.48a41.9,41.9,0,0,0-.32-5.54Z"/><path class="u" d="M31.67,236.27a41.9,41.9,0,0,1,.32,5.54c-0.46,6.5-1,13,3.6,18.48l1.15,5,1.1,5-6-6.06-3.12-20L29.37,242v-0.37L29,241.55l0.59-1.26Z"/><path class="v" d="M29.62,240.29L29,241.55Z"/><path class="w" d="M293.71,269.28l-2.23,5.13c-4.65,5.58-7.18,12.35-8.71,19.62-0.5,2.39.85,5.67-3.23,6.19-2.63.34-3.06-.12-5-6.09l-5.54,6.6c-6.24-5.7-4.12,3.34-7.61,4.13a33.78,33.78,0,0,1-.65-3.36c-0.5-5.33-1-10.66-1.36-16a9.1,9.1,0,0,1,.59-3.76c1.39-3.63,1.12-5.92-2.85-5.14a86.37,86.37,0,0,1-2.76-9.22,76.7,76.7,0,0,1-.66-9.08c3.65-1.44,7.2-3.31,11-4.21,6.46-1.53,13.09-3.93,19.46.71,2.35,1.71,5,3,7.49,4.5Zm-24,26.2a5.37,5.37,0,0,0-1.32-.53,1,1,0,0,0-.42.76,3.91,3.91,0,0,0,.8,1Z"/><path class="h" d="M291.62,259.29c-2.51-1.49-5.15-2.79-7.49-4.5-6.37-4.64-13-2.24-19.46-.71-3.78.9-7.32,2.77-11,4.21-8.19,4.72-15.21,10.4-16.6,21,4.77,1.34,4.07,4.64,1.79,8.33,6,2.08,6.32-4.65,11.68-6.22l-8.86,13.88-3,2c-4.48-.54-4.38,4.35-7,6-4.58-.2-4.24-2.17-2.43-5.5,1.16-2.14,1.18-4.9,1.72-7.38-2.21.6-4.41,1.26-6.65,1.78-1.18.27-2.9,0.84-3.52,0.29-0.88-.77-1.66-2.7-1.29-3.69,1.84-4.92,4.08-9.69,6.17-14.51l11-11c2.54-1,5.63-1.69,2-5.05l1-2c1.68-.66,3.32-1.47,5.05-2q4.92-1.39,9.92-2.48c3.32-.72,7.46-0.24,9.86-2.09,4.35-3.34,9-2.09,13.4-2.25,3.25-.11,6.57,1.76,9.86,2.75H287.7l1.13,1.22,3.24,5.74Q291.84,258.23,291.62,259.29Z"/><path class="u" d="M251.68,368.28c-3.65,4.43-8,7.77-13.59,8.89-4.53-4.09-3-7.4.69-10.5s4.88-6.28,2-9.19c2-5.92,4-11.06,5.41-16.33,2-7.3,6.89-12.32,12.49-16.87a37.15,37.15,0,0,1,2.52,5.51c0.33,1.16-.19,2.57-0.33,3.87,1.33-.59,2.66-1.21,4-1.76,0.57-.23,1.2-0.3,3.61-0.86-2.95,5.65-5,10.32-7.68,14.52-3.58,5.52-8,10.51-11.55,16C246.47,366,247.34,367.59,251.68,368.28Z"/><path class="x" d="M251.69,318.3l4.87-3.8,1.09,0.88-7,9.9-4,3-3,3,0,0-5,3a33,33,0,0,1-2.93-5.34c-0.93-2.76-1-5.83-2.15-8.49s-3.18-2.82-5.73-1.2c-1,.64-2.81.05-4.25,0l2.13-4.94,7.95-10c0.45,6.38,5.23-2.11,6.32,2.07l-1.23.21,6.14,18.3,1.55,0.8Z"/><path class="u" d="M251.69,318.3l-5.2,7.38-1.55-.8-6.14-18.3,1.23-.21c-1.09-4.18-5.87,4.31-6.32-2.07l0.09-1,4.91-6,3-2c1.18,0.45,3,.59,3.43,1.41C248.32,303.56,252.82,310.1,251.69,318.3Z"/><path class="u" d="M260.69,365.28l-1-3c3-4.12,6.05-8.15,8.87-12.37,3.11-4.66,6-9.5,9-14.22a34.2,34.2,0,0,1,2.66-3.24l1.19,0.56c-0.42,1.44-.54,3.07-1.31,4.3-4.18,6.69-8.43,13.35-12.85,19.88C265.29,360,262.88,362.59,260.69,365.28Z"/><path class="u" d="M258.69,322.27h-3l10.77-13.69,1.63,1.21Z"/><path class="u" d="M246.72,328.27l4-3q0,1,0,2c-1.8,3.33-3.23,7.08-8,7l1-3,0,0Z"/><path class="u" d="M249.69,375.27l6-5Z"/><path class="r" d="M298.07,346.1l5.59,0.88-5.56,2.45Q298.09,347.77,298.07,346.1Z"/><path class="u" d="M244.68,380.27l4-4Z"/><path class="r" d="M298.63,375.28l0,4Z"/><path class="w" d="M276,303.06a7.65,7.65,0,0,1-2,.88,1.41,1.41,0,0,1-.81-0.86,2.59,2.59,0,0,1,1.17-1.27C274.67,301.71,275.21,302.39,276,303.06Z"/><path class="r" d="M298.48,324l-0.93,3.31Z"/><path class="r" d="M297.87,340.19q0,1.08,0,2.17Q297.87,341.27,297.87,340.19Z"/><path class="y" d="M28.72,244.29l3.11,20-1.22.07L28.5,257.5c-1.43,8.81.67,16.91,4.19,24.76l2.78,5a3.25,3.25,0,0,1,.09.83l-3.81,14.18-4.06,0a2.77,2.77,0,0,1-1.31-.6c-1.62-5.49-3.42-11-4.63-16.54-1.07-4.91-1.45-10-2.14-15l-0.86-4.84-0.05,0,3.9-4.21,1.15-4.74,2-6,0.77-3.06Z"/><path class="d" d="M201.67,32.46L203,32c0.13,5.25,6.08,8.67,4.38,14.78-0.37,1.35,2.74,3.66,4.24,5.53q0.25,2,.5,4,0.22,5.94.44,11.88l-0.8.87c-2.66-3.26-3.13-7.09-3.52-11.15-0.21-2.19-2-4.24-2.62-5.52-2.37,2.17-4.46,3.94-6.37,5.89a5.49,5.49,0,0,0-1.51,2.82c-0.79,5.36-1.4,10.75-2.08,16.13l-2.11-4.94c0.65-3,1.22-6,2-9s1.75-5.66,2.5-8.52c0.41-1.56,1.26-4.24.7-4.61-3.85-2.58-8-4.69-12.07-6.94-4.07-1.35-8.06-3-12.22-4-9.72-2.19-20-2.36-28.7-8.14-3-1.81-5.82-4.55-9-5.19-4.12-.81-8.57.1-12.88,0.24-4.94.16-10.25,8.31-8.85,13.12,1,3.3,2.88,8,1.47,10-2.87,4-6.41,8.12-12.31,9.24-2.7.51-4.86,3.93-7.26,6l4.84,3.68c-6.26,3.5-6.69,10.8-10.33,16-1.1,1.58-1.88,4.43,1.66,4.82,5.92,0.64,11.86,1,17.8,1.53-3.88.33-7.79,1.11-11.64,0.87-3.51-.22-7.8-0.61-8.28,3.07s0.67,8.74,3.07,11.47c4.75,5.41,9.91,5.26,16.67,1.59a8.9,8.9,0,0,1,2.91-.45c-5,7-10.73,9.46-19,5.48-2.23-1.07-5.53-2.73-6.9,1.63-1.26-1.5-3.83-4-3.6-4.34,3.37-4.16-.44-7.84-0.46-11.69l-0.9-12.89L87.76,72.3c0.91-2,2.29-3.85,2.65-5.91,0.89-5.14,3.32-10,1.62-15.65-0.64-2.13,1.07-5,1.71-7.48,1.4-1.05,2.69-2.73,4.24-3,5.71-1.14,8.19-4.12,6.79-9.94h0.85l1.63,3.91,4.55-6.75,1.91-1.12c7.35-3.86,15-5.34,23.16-3a78.63,78.63,0,0,1,9.54,3.22c5.74,2.51,11.17,5.86,18.34,6.72l-4-7.11,6.82,5.25c1.5,1.61,2.7,4,4.54,4.68,4.88,1.82,10.06,2.8,15.05,4.33,3,0.9,4.75.09,5.64-2.82l-0.25-3.24a7.54,7.54,0,0,1,2.19.79C198.81,38.32,200.36,37.74,201.67,32.46Z"/><path class="w" d="M283.45,234.51l2.16,4.81,2.17,10.89c-3.29-1-6.61-2.86-9.86-2.75-4.41.15-9-1.1-13.4,2.25-2.4,1.85-6.54,1.37-9.86,2.09s-6.64,1.55-9.92,2.48c-1.73.49-3.37,1.3-5.05,2l-2-5,3-5,2.15-5.05-1.88-.91-3.27,4.94-4,4-5.93-2,3-3.93,11.06-10.69-1.26-1.48c-1.24,1-2.51,1.88-3.73,2.87-1.73,1.4-3.43,2.83-5.14,4.26l-2-4c2.4-3.28,7.71-5.5,4-11l0.58-1.24-1.58.27a70.43,70.43,0,0,0-4.95,6.13c-4.19,6.52-8.21,13.15-12.45,20l-2.91-3.26,0.44-2.89c4-7.8,7.16-16.26,12.28-23.26,8.6-11.78,13.77-12.24,24.78-5.86,2.16,1.25,4.5,2.21,6.75,3.3l-0.1-.05,2.14,2.22,11,6.88,6,3.23m-4.93,7.5,0,0.14-0.08-.11,0.29,1.94,0.67-.2Zm-2-4,0.32,0.2-0.32-.19-4.25-7-1.74,1.38Zm-24.93-3.06,0.61-1.56a20.46,20.46,0,0,0-2.62-.95,8.62,8.62,0,0,0-.66,1.51Z"/><path class="r" d="M300.65,262.3l-0.32-.22,0.38,0.16Z"/><path class="w" d="M288.83,251.43l-1.13-1.22Z"/><path class="f" d="M115.69,319.25c-0.68,1.93-1.9,3.86-1.94,5.8-0.2,9.8-.1,19.61-0.1,29.41a12.53,12.53,0,0,1-.67,4.89c-3.82-13.65-1.29-27.77-2.85-43.1-1.92,2-3.42,2.84-3.81,4.05-2.35,7.22-4.31,14.56-6.74,21.75-0.46,1.36-2.42,2.21-3.69,3.29l-0.22-.07c0.86-5.72,1.78-11.43,2.54-17.16,0.61-4.6,1-9.24,1.51-13.86l-0.1-1.87,2.13-.32a11.3,11.3,0,0,0,2.87-.27c0.76-.27,1.32-1.43,2-1.49,5.12-.43,5.86-2,3.18-6.89l-0.34-.36,0.11-5.64V284c6.26,3.79,1.92,9.13,3.93,12.27,2.71,4.24,1.62,8.23,1.4,12.42C112.94,312.35,112.95,315.9,115.69,319.25Z"/><path class="o" d="M115.69,319.25c-2.74-3.35-2.76-6.9-.77-10.59l8.55-1.6,1.29-8.78c2.28-1,5.06-1.61,6.71-3.27s2.18-4.44,3.2-6.73v0l0,0-0.66-8.8,3.33,5.79,0.14,3,1.17,3,0.19,13c-0.73.91-2,1.76-2.11,2.76-1.18,8.21-8.89,9.37-14,13.28Zm20.38-24a1.55,1.55,0,0,0,.39-0.16,8.32,8.32,0,0,0-.19-0.88,1.26,1.26,0,0,0-.37.16A7.88,7.88,0,0,0,136.07,295.29Z"/><path class="v" d="M122.71,320.28c5.15-3.91,12.86-5.07,14-13.28,0.14-1,1.38-1.84,2.11-2.76q0,1.46.05,2.92c-1.63,2-2.16,3.84.76,5.17a3.15,3.15,0,0,1,0,.74L138,320.33c-1.62.18-3.19,2.82-4.87,0.1-1.94,1.54-4.18,2.84-5.65,4.74-0.54.7,0.65,2.85,1.22,4.26,0.91,2.26,3,4.57,2.74,6.66a48.21,48.21,0,0,1-3.4,12.15c-0.69,1.77-2.61,3.06-4,4.56l-3.3-4.49Z"/><path class="n" d="M95.72,351.31L91.9,366.38c-2.31-1.47-2.31-1.47-2.21-17.1l6-4,0.22,0.07q0,1.46-.05,2.92t-0.09,3Z"/><path class="v" d="M120.24,357.19h6.62l-0.08,2-7.19-1Z"/><path class="f" d="M95.74,351.28q0-1.51.09-3Q95.79,349.77,95.74,351.28Z"/><path class="i" d="M51.49,380.33c0.52-5.27,1.66-10.57,1.39-15.8s-2-10.24-3.06-15.35l-0.29-2.88,2.07-1.14,3,0,1.1,16.06-0.17.41,0.21-.38,2.56,1.9-1.08.14-1.46,1.85q0,1.55,0,3.1Z"/><path class="t" d="M27.71,344.17l-2-2.92L25.88,340l15.84,4.2-0.08.11Z"/><path class="t" d="M51.6,345.15l-2.07,1.15-7.88-2,0.08-.11,4.94-1.07,4.91,1Z"/><path class="r" d="M309.7,363.29v-2.77l0.86,0.18-0.9,2.56Z"/><path class="m" d="M25.88,340l-0.13,1.24-2.16,0-2.14-3.89-2.77-1.06,1.23-1.81,4.19-5.66,2.52-1.53,3-2.93,3.23,0.08-3.76,5.78-2.58,7Z"/><path class="t" d="M21.45,337.32l2.14,3.89-2.84,1Z"/><path class="l" d="M139.64,360.15l4,15.19-9.33-1.87c0.16-10.86.3-21.71,0.55-32.57,0-.58,1-1.14,1.48-1.71Z"/><path class="f" d="M139.64,360.15l-3.29-21q0-1.47-.08-2.95l1.16-10,0.59-5.93,1.62-7.25,2,2.2c-1,7-2.08,14-2.91,21-0.16,1.38.61,2.87,1,4.31a1.19,1.19,0,0,1-.15.77l-0.07,2.83,0.16,14.11Z"/><path class="v" d="M137.43,326.26l-1.16,10C132.61,331,133,327.69,137.43,326.26Z"/><polygon class="v" points="130.58 359.58 130.95 359.79 130.55 359.95 130.58 359.58"/><path class="y" d="M95.67,345.27l-6,4c-0.15-7.88.64-15.88-2.07-23.46l-2,0q0,6.7,0,13.41c-9.44-.24-15.44-10.3-11.92-20a29.81,29.81,0,0,1,4.53,1.87,45.82,45.82,0,0,1,4.5,3.53c0.33-1.91.56-3.83,1-5.71a3.51,3.51,0,0,1,1.36-2.29c0.56-.23,1.68.5,2.33,1.06s1,1.41,2,3l3.31-9.64,1.71-.27,1.77,5.45,3.49-2.07c-0.5,4.62-.9,9.25-1.52,13.86C97.45,333.84,96.53,339.55,95.67,345.27Z"/><path class="t" d="M86.63,369.22l-6,7c-0.7-1-1.35-2-2.11-2.88s-2-3-2.78-2.87c-4.62.48-7.16-2.57-10-5.21l-0.07,0-0.94-1-1-1.15-4.07-1.89,1.18-16,5-2.63,7.88,9.67,3.09,10.9,2.3,6.72,7.62-4.62v3.89Z"/><path class="n" d="M73.71,319.27C70.2,329,76.2,339,85.64,339.25l-1.88,6c-9.59-3.7-14.91-10.54-18.1-19.3-1.58-4.33-2.63-8.86-4.3-13.15C61,312,59,311.78,57.7,311.27l-0.36-2.83,1.43-4.86,0.43-.19,0.46,0.05,1,0.81,4.43,1.94,1.46-.22c0.06,4.12,0,8.26.27,12.37,0.08,1.18,1.26,2.29,1.93,3.43a16,16,0,0,0,2-3c0.59-1.52.6-3.3,1.33-4.73,0.42-.83,1.74-1.21,2.66-1.79v3l-1,2v2Z"/><path class="e" d="M57.34,308.44l0.36,2.83q0,7.25.06,14.51,1.51,9.75,3,19.5l-1.18,16-1.29,2,0,0-2.56-1.9,0,0-1.1-16.06,1.4-2L52.7,330.28l-0.34-3.8-1-2.17,2.42-17.9Z"/><path class="b" d="M86.64,365.32L79,369.94l-2.3-6.72c1.19-1.09,2.91-2,3.46-3.31,2-5,3.7-10.13,5.49-15.22l2.34,0.4Z"/><path class="b" d="M60.77,345.28q-1.5-9.75-3-19.5c1.13,1.59,2.3,3.15,3.39,4.77,3.72,5.53,7.5,11,11,16.68,0.9,1.44,1,3.38,1.45,5.09l-7.89-9.67Z"/><polygon class="r" points="302.42 300.74 302.83 300.6 302.78 300.96 302.42 300.74"/><path class="t" d="M306.7,297.29l-0.21.32,0.17-.35Z"/><path class="n" d="M205.69,367.29l-1,1-2,0h0c0.79-5.2,1.65-10.39,2.32-15.61,0.14-1.11-.42-2.3-0.66-3.46l2.66-8.83,2.64-1.14-1.09,15.64c1.52-1.5,2.85-2.32,3.46-3.5,2-4,3.79-8.06,5.65-12.11l2-5c4.16,0.15,5.49,2.46,4.73,6.29s0.89,4.89,4.36,4.2c1-.19,1.94-0.32,2.91-0.48h0l-5,7.94-2.84,1.14-4.74-.78-0.92-7c-4.32,7.24-8.22,13.77-12.1,20.33A5,5,0,0,0,205.69,367.29Z"/><path class="k" d="M243.7,331.27l-1,3-9,8.95q0-1.46,0-2.92l5-6Z"/><path class="n" d="M233.68,340.28q0,1.46,0,2.92l-2,1.07h0q0-2,0-3.94Z"/><path class="l" d="M254.11,209.14l0.65-.38a0.76,0.76,0,0,0-.29-0.28,4.69,4.69,0,0,0-.79.14Z"/><path class="k" d="M10.06,332.23q0-1.43,0-2.87l9.86,5.09-1.23,1.81Z"/><path class="t" d="M2.88,344.12l4.77-1.84Z"/><path class="l" d="M2.89,347.07l-2.2-.77,2-2Z"/><path class="r" d="M2.68,365.33l0.84-.92Z"/><path class="f" d="M205.69,367.29a5,5,0,0,1,.34-1.43c3.88-6.56,7.78-13.09,12.1-20.33l0.92,7,4.74,0.78-6.14,9.89-6.94,11.08-1,0C209.3,371.41,211.06,367.31,205.69,367.29Z"/><path class="n" d="M152.74,342.26l-1.86-4.55c-5.71,5.57-4.25,12.09-3.21,18.53l-2.94,0q-0.26-9.57-.51-19.14l1.44-5.77,1.75-5.19,0.21-1.91,2.17-5.83c5.15-1,5.73-2.19,2.94-6.14l3.8-3.25c-0.07,2.29-.21,4.58-0.18,6.86,0.06,4.47.22,8.94,0.34,13.41v1c-1.21.41-2.74,0.5-3.55,1.31s-0.81,2.29-1.18,3.48l3.71,0.2,1,0-1,5Z"/><path class="n" d="M179.72,371.31l-1,1-3.8-.57-0.22,4.55-5,0c-3.69-3.88-8.22-7.17-9-13.06,5.52,2.9,10.95,6,19.24,6.63-1.68-3.08-2.59-5.09-3.8-6.91-3.94-5.91-10-8.6-16.47-10.76l0-2.77,14,4.75c0.62,0.88,1,2.14,1.9,2.59,4.78,2.52,5.7,6.63,5.11,11.47Z"/><path class="k" d="M159.7,352.21c6.42,2.16,12.53,4.85,16.47,10.76,1.21,1.82,2.12,3.83,3.8,6.91-8.29-.58-13.73-3.72-19.24-6.63q0-.49-0.05-1,0-1.51,0-3c1.72-.13,3.67,0,1.82-2.66C161.47,355.18,160.62,353.68,159.7,352.21Z"/><path class="r" d="M144.73,356.22l2.94,0,2,4c2.24,5.5,4.6,11,6.63,16.53,0.61,1.68.27,3.7,0.37,5.56l-3.16-4Z"/><path class="y" d="M159.7,352.21c0.92,1.46,1.77,3,2.76,4.38,1.85,2.62-.11,2.54-1.82,2.66l-2.94-1-4.09-12,3.2,0.12,2.85,3Z"/><path class="k" d="M156.82,346.43l-3.2-.12-0.88-4,2.94-2,2.09,4.22a1.26,1.26,0,0,1-.15.8l-0.84,1.16h0Z"/><path class="n" d="M157.71,358.27l2.94,1q0,1.51,0,3Z"/><path class="e" d="M157.62,345.28a1.26,1.26,0,0,0,.15-0.8l2.14-1.21,1.73-.84,6-.44,5.14-2.65,1.92-.19,5,5.28c-0.56-2.94-1.07-5.46-1.53-8-0.8-4.46-1.58-8.92-2.36-13.38l-0.18-7.82-1-31.86,9.28-7.3c-0.72,3.85-2.12,7.71-2,11.54,0.24,9.91,1.07,19.8,1.84,29.69,0.22,2.84,1.51,5.38,4.95,5,2.35-.29,5.37-0.64,6.75-2.17,3.12-3.47,5.41-7.69,8-11.61l1.39,4.84-1.46,12.86-9.64.12-9.66.81c-0.68,10.74,1.65,12.78,11.59,10.12l5.07-.83,5.71,0,0.53,3.94-2.66,8.83-6.81,18-9-4.66-0.18-.12-1.55-2.23c-2.43-6.25-7.6-6.5-13.11-6l-14-4.75-2.85-3h0Z"/><path class="f" d="M174.7,376.29l0.22-4.55,3.8,0.57Z"/><path class="f" d="M179.72,371.31l1-3.06,1.5,1.39Z"/><path class="m" d="M186.83,360.19l1.55,2.23Z"/><path class="v" d="M304.78,378c3.43-2.72,4.78-2.26,6.84,2.35Z"/><path class="v" d="M311.65,380.31l1,1Z"/><path class="n" d="M202.73,370.34l-1.48-1,1.43-1h0l0.06,2v0Z"/><path class="e" d="M51.49,380.33l4.22-12,2.18,4.11-1.81,6.69-4.66,3.12Q51.45,381.27,51.49,380.33Z"/><path class="f" d="M202.74,370.31l-0.06-2,2,0Z"/><path class="s" d="M65.7,365.3c2.85,2.63,5.39,5.69,10,5.21,0.82-.09,1.9,1.82,2.78,2.87s1.41,1.92,2.11,2.88l-0.9,3c-2.91,1.3-4.56.15-6.44-2.33s-5-4.47-7.49-6.65l-1.12-1,0.17-3.07Z"/><path class="v" d="M64.67,369.25l1.12,1-7.9,2.15-2.18-4.11q0-1.55,0-3.1l1.46-1.86,1.08-.14,0,0-0.08,1,1.33,1.83-1.64,1.12,1.77,1,1.25-.62L61,369l0.19,0.73,0.39-.64Z"/><path class="l" d="M144.73,356.22l8.78,22.16-5.77-6.1,0,0-1-3.11c-1.62-2.32-3.28-4.61-4.84-7-0.82-1.24-1.49-2.59-2.22-3.89q-0.08-7.06-.16-14.11,0-1.42.07-2.83a1.19,1.19,0,0,0,.15-0.77l2.07-4.29,2.42,0.81Z"/><path class="p" d="M146.72,369.13l1,3.11Z"/><path class="i" d="M104.76,30.27c1.4,5.82-1.08,8.8-6.79,9.94-1.55.31-2.83,2-4.24,3l-4.22-.44,5.67-5.38-0.35-.82-5,1.63-1.1-2.87,7-7.23,3-2.94,2.06,0,0.59,3.18,1.18,0.83,1-3.71,1.07,0.94Z"/><path class="v" d="M87.76,72.3L82.69,85.39c-0.41-2-1.43-4.1-1.13-6C82.39,74.23,83.69,69.13,85,64c0.32-1.27,1.37-2.35,2.78-4.65V72.3Z"/><path class="m" d="M83.59,98.28c0,3.85,3.83,7.53.46,11.69-0.23.29,2.33,2.84,3.6,4.34l-1.82,3.92-0.33.14L80.93,107l-0.6-1.85,0.3-4.89Z"/><path class="l" d="M95.69,28.15l-7,7.23-1-.07,6.75-11.19Z"/><path class="h" d="M80.09,96.22l-0.41-1.94Z"/><path class="i" d="M160.77,26.16l4,7.11c-7.16-.86-12.59-4.21-18.34-6.72a78.63,78.63,0,0,0-9.54-3.22c-8.13-2.37-15.81-.89-23.16,3A44.68,44.68,0,0,1,117,23.06c2.3-1.85,3.09-3.73.6-6l0.94-3.63c1.56,0.75,3.44,1.19,4.62,2.33,2.47,2.38,4.64,3.34,7-.55l2,4.27,2.9-6.39c4,0.39,9.7-3.31,10.45-6.79l1.17-.37,2.82,0.44,2.14,1.68,10.92,5.52q0,2.26,0,4.52L160.43,18l-6.6,2.18-5.42-2,5.17-3.84c-4.89-3.1-10.85-2.33-13.89,1.41-2.07,2.55-1.16,4.71,2.11,5.6,1.67,0.46,3.11,1.69,4.76,2.26,4.27,1.49,8.23,4.75,13.22,2.57l0.95,0Z"/><path class="v" d="M145.64,6.3c-0.75,3.48-6.45,7.18-10.45,6.79l-2.9,6.39-2-4.27c-2.41,3.89-4.58,2.93-7,.55-1.19-1.14-3.06-1.58-4.62-2.33-0.86-5.19,3.25-5.72,6.45-6.06C131.85,6.66,138.76,6.61,145.64,6.3Z"/><path class="v" d="M117.62,17.05c2.48,2.28,1.7,4.16-.6,6a44.68,44.68,0,0,0-3.31,3.24l-1.92,1.12-5.37,1.81C107.31,20.88,108.88,19.16,117.62,17.05Z"/><path class="i" d="M106.42,29.23l5.37-1.81-4.54,6.75-1.63-3.91Z"/><path class="l" d="M100.71,25.19l-2.06,0L99.19,22Z"/><path class="j" d="M97.79,16.67q0-1,0-2Q97.78,15.7,97.79,16.67Z"/><path class="j" d="M100.22,13.86l0.17,1.1-1.12-.14Z"/><path class="i" d="M169.67,8.25l1,3.64-2.93-1.66-3.09-1.9L156,5.11l0.52-1.47C161.47,3.31,165.64,5.55,169.67,8.25Z"/><path class="d" d="M164.63,8.34l3.09,1.9Z"/><path class="s" d="M151.77,8.05l-2.14-1.68Z"/><path class="i" d="M201.67,32.46c-1.31,5.27-2.86,5.86-6.9,2.69a7.54,7.54,0,0,0-2.19-.79l0.08,0-0.88-1.16L191.26,33l0.33,0.31,0,1c-6.21.5-10.14-4.06-14.94-6.71L172,24.13a8.55,8.55,0,0,0-.37-0.85l0.21-5c2.5-1.7,4.84-1.44,7.87-.79,5.85,1.24,12,1.18,18,1.65Z"/><path class="g" d="M171.59,23.28a7.93,7.93,0,0,1,.37.85l-2.29,2.25-2-.29-2.45-1.43-4.5-1.31-2.12-1.05v0L160.43,18l2.22,0.11,3-.64h3q0,0.94,0,1.89l-0.62,3.53Z"/><path class="s" d="M171.59,23.28l-3.5-.42,0.62-3.53,3.09-1Q171.7,20.78,171.59,23.28Z"/><path class="i" d="M168.67,17.44h-3l1.24-1.89Z"/><path class="e" d="M77.72,232.14l6-8.84,0.09,0.08-6,19.93L75,259.45l1.35,0.24,3.37-2.44c1.07,2.79,2.24,5.44,6,4.77l6,0,5,0.36c3.52,4.74,7.6,5.41,12,2l0.74-.92c0.86,1.08,1.5,2.55,2.61,3.15,2.74,1.49,5.69,2.58,8.56,3.83l-0.32,1.24-2.59.66-0.32-.19,0.33,0.19,1.87,6.88,3.38-9.09,2.73,3.22-2.43,10.78-2.52-.37-4.52-.86c-8.1-1.85-16.34-3.23-24.24-5.69-7-2.19-14.34,2.63-21.07-1.55a2.71,2.71,0,0,0-1.22.55c-1.18,1.22-3,2.23-3.44,3.68-1.81,5.39-3.2,10.93-4.75,16.41l-1.77.94c0.23-2.92,0-6,.78-8.74,2.23-8.14,4.86-16.18,7.33-24.26,0.62-1.62,1.58-3.22,1.74-4.88,0.13-1.3-.75-2.69-1.18-4l-0.52-5.07L71.68,253Z"/><path class="j" d="M37.69,259.27l1-3c0.66-1.66,1.71-3.28,1.89-5,0.45-4.26.56-8.57,0.7-12.86,0.16-4.76.2-9.52,0.29-14.28l5.16-7.67,7-4.09,18.95-6.21,5.21-.94-7.36,11.94-4.2,7.1c-4.39.61-2.08,4-2.58,6.22a1.16,1.16,0,0,1-.2.8,26.38,26.38,0,0,0-3.81,4,66.43,66.43,0,0,0-3.44,7.13c2,2.17,2.35,7.35-.29,7.55-4.29.32-4.83,3.2-5.82,6.12l-3.56,1.26-3,6.76-5.95,1.22v-6Zm14.46-19.84,1,0v-4.39h-1v4.36Z"/><path class="f" d="M93.65,207.2l2.21-8.55,9.85-6.37c4.67,0.08,1.62,3.42,2.2,5.22-1.38,8.86,1.35,16.74,5.82,24.2l2,2.54-0.05-.05,3,2,0-.08c0.89,1.07,1.61,2.77,2.72,3.08a56.19,56.19,0,0,0,8.19,1.1l1.46,8.73-3.46.19a2,2,0,0,0-.33-0.92c-5-3.33-10-6.71-15.16-9.79-0.6-.36-2.24,1.05-3.4,1.64l-2.16-2.81a44,44,0,0,1-4.65-24.28c-2.09,3.4-3.18,7.1-5.25,10.14-2.39,3.51-1.68,9.67-8,10,1.42-3.92,2.91-7.81,4.23-11.76A27.45,27.45,0,0,0,93.65,207.2Z"/><path class="e" d="M70.55,217.15l7.36-11.94-5.21.94-2.13-1.86c4.65-.77,9.16-3.41,14-0.87,2.64,1.38,1.86,2.63,0,4-1.82,2.25-4.08,4.28-5.36,6.81-2.44,4.85-4.4,10-6.41,15-1.57,4-2.91,8-4.35,12l-1.65,3.09a3.73,3.73,0,0,1,0,1l-3.15,8.18-1-3.22c-2.08-7,2.12-13,3.4-19.43C67.06,226.17,69,221.7,70.55,217.15Z"/><path class="p" d="M39.59,218.57l0,0.39L40,218.8Z"/><path class="p" d="M105.7,192.28l-9.85,6.37-1.67-6.46c-3,5.76-5.25,3.44-7.53,1l3-2,2.05-1v-5.95h0l6.81,5,1.3-.62-0.59-7.18,3.5,0.78C100.26,186.63,103.17,189.4,105.7,192.28Z"/><path class="q" d="M70.56,204.29l2.13,1.86-18.95,6.21"/><path class="k" d="M39.68,225.24l1.91-1.11c-0.09,4.76-.13,9.52-0.29,14.28-0.14,4.29-.25,8.59-0.7,12.86-0.18,1.71-1.23,3.33-1.89,5,0-7.27.1-14.53-.12-21.79-0.05-1.74-1.24-3.45-1.9-5.17l1.08-1.92h0L39,225.48l0.22,0.19A0.5,0.5,0,0,0,39.68,225.24Z"/><path class="z" d="M66.86,245.31a3.7,3.7,0,0,0,0-1c4.31-1.32,4.31-1.32,3.86-4.07l1.92-3.85,5.09-4.27-6,20.87-3.82-2.83Z"/><path class="q" d="M72.64,236.41l-1.92,3.85-2.21,1c1.44-4,2.78-8.06,4.35-12,2-5.06,4-10.17,6.41-15,1.27-2.53,3.54-4.56,5.36-6.81Z"/><path class="n" d="M93.65,207.2a27.45,27.45,0,0,1-.74,4.31c-1.32,4-2.81,7.85-4.23,11.76h0l-2.85.07-1-1,1.8-5.05Z"/><path class="e" d="M86.61,217.26l-1.8,5.05-1,1.07-0.09-.08Z"/><path class="p" d="M91.85,198.34c0.44,0.25.89,0.49,1.32,0.76a1.28,1.28,0,0,1-.17.36c-0.49-.13-1-0.29-1.45-0.45Z"/><path class="k" d="M37.69,259.27q0,3,0,6l-1,.07-1.15-5q0-9.33,0-18.67l0.59,0Z"/><path class="k" d="M35.47,287.22l-2.78-5c0.1-2.49.56-5,.23-7.46-0.47-3.53-1.51-7-2.31-10.48l1.22-.07,6,6.06,1.9,2-4,15.05Z"/><path class="f" d="M39.73,272.25l-1.9-2-1.1-5,1-.07,6-1.21a2,2,0,0,0,.8.18Z"/><path class="a" d="M269.69,295.48l-0.94,1.18a3.91,3.91,0,0,1-.8-1,1,1,0,0,1,.42-0.76A5.37,5.37,0,0,1,269.69,295.48Z"/><path class="j" d="M225.66,274.24c-2.1,4.82-4.33,9.59-6.17,14.51-0.37,1,.41,2.92,1.29,3.69,0.62,0.54,2.34,0,3.52-.29,2.23-.52,4.43-1.18,6.65-1.78-0.53,2.48-.56,5.24-1.72,7.38-1.81,3.34-2.16,5.31,2.43,5.5l0,0c-2.49,2.49-3.39,7-8.26,6.57-2.8-4.16,5.07-9.56-1.68-13.15l-6,7.6-2,4-3-1-0.18-2.15a3.13,3.13,0,0,1,.1-0.87l2-2c-1.65-11.4,6.29-20,8.78-30.27,0.18-.73,1.42-1.21,2.16-1.81l0.13,1.27Z"/><path class="n" d="M225.66,274.24l-1.93-2.8,10-11.14,3,3Z"/><path class="a" d="M237.68,251.27l2,5-1,2-2.93,0C235.4,255.62,234,252.74,237.68,251.27Z"/><path class="aa" d="M235.72,258.2l2.93,0c3.67,3.36.58,4.1-2,5.05l-3-3Z"/><path class="j" d="M238.7,297.28l-4.91,6-2.11,0,0,0C234.32,301.63,234.22,296.75,238.7,297.28Z"/><path class="g" d="M300.69,278.27l-0.32-.18,0.31,0.19h0Z"/><path class="j" d="M233.68,340.28l-2,.06c-0.34-1.93-.8-3.85-1-5.8-0.3-3.29,1-7.36-4-8.18s-5,3.79-6.67,6.48a4.4,4.4,0,0,0-.32,1.43l-2,5c-0.94-1.26-2.41-2.42-2.68-3.81-0.32-1.62.42-3.44,0.7-5.17h0l1.92-2.1,2.13-6.86h0l1.1-1,2.81-1.1c1.44,0,3.24.62,4.25,0,2.55-1.62,4.65-1.32,5.73,1.2s1.22,5.73,2.15,8.49a33,33,0,0,0,2.93,5.34Z"/><path class="k" d="M231.68,303.27l2.11,0-0.09,1-7.95,10-7.56,3.29,1.53-14-4,.67,6-7.6c6.75,3.58-1.13,9,1.68,13.15C228.29,310.31,229.2,305.77,231.68,303.27Z"/><path class="n" d="M215.71,304.29l4-.67-1.53,14,7.56-3.29-2.13,4.94-2.81,1.1-1.1,1h0l-5.32,2.56-1.69-4.6q0-1.5,0-3c3-.72,3.77-2,0.93-4l0-4Z"/><path class="k" d="M246.72,328.27l-3,3Z"/><path class="x" d="M18.09,279.36c-0.05-1.61.46-3.56-.27-4.76-1.61-2.65-.76-3.74,1.78-4.44,0.69,5,1.07,10.05,2.14,15,1.21,5.59,3,11,4.63,16.54a2.77,2.77,0,0,0,1.31.6c-1.17,1.5,4.94,4.46-1,5l-8.06-14c-0.49-2.85.36-6.16-2.78-8.11l-0.15.08,0-3Z"/><path class="l" d="M23.73,256.34l-1.15,4.75-2.51-1.27-1.39,5.48,0.05,0"/><path class="h" d="M30.62,264.31c0.8,3.49,1.83,6.95,2.31,10.48,0.33,2.43-.13,5-0.23,7.46-3.52-7.85-5.62-16-4.19-24.76Z"/><path class="s" d="M31.75,302.23l3.81-14.18,2.05,8.19-1.76,10.31L35.17,301l-1.16.16v10.26l-0.71,0-1.53-6Z"/><path class="aa" d="M31.75,302.23q0,1.55,0,3.1l-0.42,7.86-4.67-5.92c5.95-.54-0.17-3.5,1-5Z"/><path class="l" d="M37.61,296.25l-2.05-8.19a3.27,3.27,0,0,0-.09-0.83l0.29,0.08,2.07,2.18,0.26,3.77Z"/><path class="s" d="M18.69,265.29l1.39-5.48,2.51,1.27Z"/><path class="i" d="M85.73,120.16l0.1-1.94,1.82-3.92c1.37-4.36,4.67-2.71,6.9-1.63,8.27,4,14,1.52,19-5.48l5-5.06,2.48,0.72c-0.88,2.13-2,3.88-2.2,5.73-0.11,1,1.2,2.95,2.1,3.11a64.83,64.83,0,0,0,8.77.46,5.54,5.54,0,0,0,.9.17c1.39,3.33,3.62,4.54,7,2.82l2-.91,3.72,1.88c-0.8,1.13-1.58,2.27-2.41,3.38-1.14,1.53-2.32,3-3.48,4.54l-8.18,1.82,2.34,1.49c1.46,1,2.92,2.77,4.38,2.77,5.23,0,10.47-.59,15.7-1l3.07,1c-3.84,2.09-2.71,4.87-1.09,7.72l-5.19,1.67c2.55-5.72-.6-5.49-3.41-5.15-1.53.19-3,1.08-4.47,1.65-3.73-3.32-7.25-.54-10.84.35l-5-1c-4.19-1.86-3,3.86-7.37,3.45l6.29,5.27,1.94,0.18a27.82,27.82,0,0,1,3.69,3.74,27.6,27.6,0,0,1,2.13,4.78c-1.47.47-3,1.48-4.4,1.3-4.94-.62-9.84-1.64-15.38-2.62a18.78,18.78,0,0,0-.93,3.75c-0.39,4.82,5,11.78,10.78,13.25,4.07,1,8.65.4,12.51,1.83,8.91,3.3,16.49,1.88,24.12-3.6,3.85-2.77,8.8-4,13.39-6l1.89,4.42-0.78,1-4,3.06-3,2c-4.94,2.78-10,5.39-14.79,8.41-3,1.86-5.54,4.33-8.29,6.53-5.4,2.58-8.26,7-10,12.62-1.45,4.51-.5,7.42,3.9,9.15,3.33,1.31,6.6,2.75,10,4,2.86,1,6.72,1.45,2.51,5.65a18,18,0,0,0,1.72,2.32c-5.92,4.95-12,6.9-19.43,3.23-6.39-3.15-9.4-1.83-10.49,3.42l-2-.41,0,0.08-3-2,0.05,0.05-0.14-1c-0.19-1.6-.07-3.32-0.62-4.78-1.66-4.43-3.57-8.76-5.39-13.13-0.64-6.17-.77-12.44-2.06-18.47-1.33-6.19-3.15-12.15-2-18.65,0.31-1.81-1.18-3.93-1.85-5.91l-0.83-1.88-3.1-3.22,0,0-8.52-11-3.58-8.94-1.24-12.95-0.08-3.09Zm25.8,45.6-1.18.94c1.6,1.92,3.14,3.88,4.81,5.74,2.91,3.25,5.37,8.14,9,9.28,6.81,2.15,13.09-1.73,19.08-4.85-4.55-1.57-8.55-3-12.57-4.31a13.31,13.31,0,0,0-2,0c-2.82-.44-5.82-0.47-8.39-1.53C117.19,169.72,114.44,167.55,111.53,165.77ZM117.89,132l-0.31-2.1a32.89,32.89,0,0,0-6.1-1.56c-1.19-.09-2.47,1-3.7,1.49,0.85,1.31,1.71,3.73,2.55,3.73C112.86,133.56,115.37,132.6,117.89,132Zm-15,5.26-3.76-12.94C95.9,128.1,97,132.64,102.87,137.27Z"/><path class="ab" d="M193.54,72.36l2.11,4.94h0l1.92,13q0.46,7.42.91,14.83l-1.87,3.14c-1.44,1-3.78,1.67-4.15,3-1.28,4.37-3.85,5.13-7.8,4.15a8.55,8.55,0,0,0-4.42,0c-3.8,1.19-6.29-.49-9.2-2.71-2.67-2-6.25-2.89-9.42-4.27-1.95-1.16-3.84-2.42-5.85-3.46-2.24-1.16-4.57-2.14-6.87-3.2l-0.64,1.51,1.9,1.08,0.69,4.87-0.46,3-1.75.81-8.93-.65c-4,0-6.23-1.9-6.08-6,0.24-6.54-1.82-13.38,2.43-19.48,0.36-.51-0.38-1.79-0.61-2.71,1.07-1.29,2-3.55,3.23-3.69,3.73-.44,2.74,2.75,2.95,4.89-2,4.18.5,10.68,5.07,10.57,5.61-.14,10.55,2.24,15.92,2.37a9.46,9.46,0,0,0,3.88-.62c5.63-2.45,11.2-1.8,16.8,0,3.73-3.43,3.73-3.43,2.2-5.4l-4.83-10,3.52-.51,0.43-1.32-5.87-3.22-2.08-1.12c-2.79-4.49-6.6-6.49-11.9-4.9l-3.36,1.36-3.69.21c-0.78-1.25-1.32-3.3-2.38-3.62-4.69-1.41-9.52-2.34-14.31-3.41-5.29-1.18-10.7-2-15.86-3.59-3.72-1.16-4-3.89-1.36-6.94,4.23-4.87,4.87-10.18,1.88-15.66-2-3.74,1.18-9.14,5.46-9,4.86,0.14,9.71.44,14.56,0.68,8.7,5.78,19,5.95,28.7,8.14,4.16,0.94,8.15,2.63,12.22,4,1.27,3,2.71,6,3.74,9.11A37.19,37.19,0,0,1,191.54,59c0.32,2.28.47,4.58,0.8,6.85S193.13,70.2,193.54,72.36Z"/><path class="c" d="M145.74,31.2c-4.85-.23-9.71-0.54-14.56-0.68-4.28-.12-7.49,5.29-5.46,9,3,5.48,2.34,10.79-1.88,15.66-2.64,3-2.36,5.77,1.36,6.94,5.16,1.61,10.57,2.41,15.86,3.59,4.79,1.07,9.62,2,14.31,3.41,1.06,0.32,1.6,2.37,2.38,3.62l-5.3.24-0.68-.21c-1.59-.15-3.49-0.94-4.73-0.35-7,3.33-13.5-.27-18.39-3.24-6-3.62-10.4-4.4-16-.85l-5.9,0-3.13-.06-2-.05L96.85,64.6c2.4-2.1,4.56-5.52,7.26-6,5.9-1.11,9.44-5.2,12.31-9.24,1.41-2-.51-6.66-1.47-10-1.4-4.8,3.91-13,8.85-13.12,4.31-.14,8.76-1.05,12.88-0.24C139.92,26.65,142.74,29.4,145.74,31.2Z"/><path class="i" d="M106.77,68.39l5.9,0,2.15,2.6-7.91,1,0,1.72a35.61,35.61,0,0,1,5.8,1.67c1.18,0.55,2,1.89,3,2.88l-14,4.07-3.92,2.39,1.12,1.7,2.9-1.89,16.91-.37,2,0.14,5,1C129,85.42,130,84.68,129,80.9c-1.43-5.2-6.2-6.52-9.32-9.71,4.36,1.05,8.82,1.81,13,3.37,1,0.36,1.4,3.53,1.2,5.31-0.28,2.52-1.37,4.95-2.12,7.41q-0.05.47-.11,0.94l-2.9,2.39-0.13-1.06-7,1-10.71.12c-5.93-.5-11.88-0.89-17.8-1.53-3.54-.38-2.76-3.24-1.66-4.82,3.64-5.22,4.07-12.53,10.33-16l2,0.05C104.64,70.81,105.68,70.69,106.77,68.39Z"/><path class="c" d="M110.82,90.65l10.71-.12c-0.7,2.25-1.49,4.49-2.09,6.77-0.41,1.58-.58,3.22-0.85,4.84l-5,5.06a8.89,8.89,0,0,0-2.91.45c-6.76,3.67-11.92,3.82-16.67-1.59-2.4-2.73-3.55-7.76-3.07-11.47s4.76-3.29,8.28-3.07C103,91.76,106.94,91,110.82,90.65Z"/><path class="i" d="M198.48,105.09l-0.91-14.83c2.19-2.52,1.07-10.06-1.92-13h0c0.67-5.38,1.29-10.76,2.08-16.13a5.49,5.49,0,0,1,1.51-2.82c1.91-1.94,4-3.72,6.37-5.89,0.65,1.28,2.41,3.32,2.62,5.52,0.39,4.05.86,7.89,3.52,11.15l-0.86,7.2-0.37-.11c-0.6-1-1.18-2.07-1.82-3.06s-1.23-2.44-1.9-2.47c-1.09-.05-2.91.65-3.21,1.47a41.93,41.93,0,0,0-1.63,7.59c-0.2,1.22,0,2.49-.13,3.73-0.13,1.89-.32,3.78-0.55,6.39l8.83-6.42c0,2-.58,5.42,0,5.64,4,1.43,1.2,4,1.35,6l-0.88,2.19-0.33,1.64-4.14-5.47-3.52,7.06-2,6.72-0.78.27Z"/><path class="v" d="M167.71,26.09l2,0.29,6.94,1.31c4.79,2.65,8.73,7.21,14.94,6.71l1.12-.08-0.08,0,0.25,3.24c-5.07-.92-10.19-1.64-15.2-2.81-3.42-.8-6.7-2.22-10-3.37l-6.82-5.25,0,0.08,0-2.89,4.5,1.31Z"/><path class="c" d="M193.54,72.36c-0.4-2.17-.87-4.33-1.19-6.51s-0.49-4.57-.8-6.85a37.19,37.19,0,0,0-1.15-6.57c-1-3.11-2.47-6.08-3.74-9.11,4.06,2.26,8.23,4.36,12.07,6.94,0.56,0.37-.29,3.06-0.7,4.61-0.76,2.86-1.77,5.65-2.5,8.52S194.19,69.37,193.54,72.36Z"/><path class="i" d="M167.58,31.41c3.34,1.15,6.62,2.57,10,3.37,5,1.17,10.13,1.9,15.2,2.81-0.89,2.92-2.69,3.73-5.64,2.83-5-1.52-10.18-2.51-15.05-4.33C170.28,35.41,169.08,33,167.58,31.41Z"/><path class="v" d="M210.8,81.28l-0.7,2.17-8.83,6.42c0.23-2.61.42-4.5,0.55-6.39,0.08-1.24-.06-2.51.13-3.73a41.93,41.93,0,0,1,1.63-7.59c0.3-.82,2.12-1.53,3.21-1.47,0.68,0,1.31,1.57,1.9,2.47s1.22,2,1.82,3.06l0.32,3.06Z"/><path class="x" d="M210.8,81.28l0-2,1.85,1Z"/><path class="ab" d="M172.67,166.24l0.78-1,3.37-2.8,4.89,0.85,0.12,13c-0.41.95-1.16,1.89-1.16,2.84,0,3.2.22,6.41,0.38,9.61,0,1,.14,2,0.18,2.56a59.07,59.07,0,0,0,6.44-3.23,32.13,32.13,0,0,0,4.14-3.87l3.72,0.09c0,2.82,1.23,6.75-.17,8.27-6.13,6.66-13,12.61-19.62,18.82-0.42-.51-1.27-1.13-1.18-1.52,1.17-5.1-2.32-7.25-5.62-9.94-5.26-4.3-7-14-4.62-20.37,0.95-2.56.94-5.48,1.37-8.23l3-2Z"/><path class="w" d="M175.73,211.32c6.61-6.21,13.49-12.17,19.62-18.82,1.4-1.52.18-5.45,0.17-8.27l10.1,4.15-1.89,6.95-4.23,2.9-8.79,11.09a71.75,71.75,0,0,1-6.62,5c-6.41,3.81-13,7.4-19.45,11.07-1-.86-2-1.78-3.07-2.55a32.24,32.24,0,0,0-3-1.7l3.66-2.8Z"/><path class="c" d="M191.8,184.13a32.13,32.13,0,0,1-4.14,3.87,59.07,59.07,0,0,1-6.44,3.23c0-.59-0.13-1.58-0.18-2.56-0.15-3.2-.39-6.41-0.38-9.61,0-.95.75-1.89,1.16-2.84l2.86,1.12,7.14,5.69-0.07,1.21Z"/><path class="t" d="M184.69,177.35l-2.86-1.12q-0.06-6.49-.12-13l-1-6.05,1-1.9,1.9-2.11,0.08-2.94c0.57-2.26-1.61-6.12,3.38-5.79l-1.46,11.89,2.14,3.68-2.15,4.33-0.84,1L184,168.21l-0.25,3Z"/><path class="b" d="M198.55,182.31l-0.94-.87-0.9-1.06"/><path class="v" d="M215.67,191.29l9.09,1.9-17.21,1,4.63-2.74Z"/><path class="k" d="M212.18,191.4l-4.63,2.74,0.05,0-3.87,1.2,1.89-6.95Z"/><path class="ac" d="M183.7,171.26q0.13-1.52.25-3l0.79-2.88,0.84-1q0.06,3.45.13,6.9l-0.13.14Z"/><path class="ab" d="M191.76,184.25l0.07-1.21Z"/><path class="ac" d="M197.61,181.45l0.94,0.87Z"/><path class="o" d="M207.55,194.15l17.21-1,4.9-.89c-1.14,1.79-.76,3.15,1.17,4.05l0.87,2.75c-3.05-.46-6.09-1.12-9.16-1.34-5.11-.36-10.43-2.13-15.1,1.64l-2.78,4.9-5.75,1.18c1.62-2.52,2.4-4,3.42-5.26,1.68-2.09,3.52-4.06,5.29-6.08Z"/><path class="q" d="M231.68,189.28l-0.31-.19,0.32,0.17h0Z"/><path class="e" d="M212.8,242.3l-0.44,2.89-3,16.32-1.43,1.81,0.45,2.2a15.2,15.2,0,0,0-1.52,3.61c-1,7.29-2,14.6-2.84,21.92-0.38,3.32-.4,6.68-0.58,10L203,304.2c-0.46-1.66-1.3-3.31-1.33-5-0.14-7.66,0-15.32-.09-23a50.47,50.47,0,0,0-.84-6.27l-1.32-3.76,0.09-1.94c4.36-4.75,3.85-10.75,4.28-16.52l7.92-20.49,2.95,0a107.28,107.28,0,0,0-3,10.31C211.4,239,212.39,240.72,212.8,242.3Z"/><path class="o" d="M212.8,242.3c-0.41-1.58-1.4-3.27-1.12-4.71a107.28,107.28,0,0,1,3-10.31l0,0,1-1,0,0c2.3-2.27,3.56-6.92,2.4-8.88-0.37-2.13,7.18-3.75.4-6.28a3.79,3.79,0,0,0-.2-0.91l2.16-2.08c1.61-.24,3.22-0.5,4.83-0.73,5.24-.73,8-3.59,7.75-8,2.11,0.34,4,.39,4.22,3.6,0.1,1.2,3.43,2.8,5.44,3.07,6.7,0.91,10.2,5.73,13.91,10.44-2.25-1.09-4.59-2-6.75-3.3-11-6.39-16.18-5.92-24.78,5.86C220,226,216.83,234.49,212.8,242.3Z"/><path class="j" d="M209.32,261.5l3-16.32,2.91,3.26c4.25-6.85,8.26-13.48,12.45-20a70.46,70.46,0,0,1,4.95-6.14l1,1c3.73,5.5-1.58,7.72-4,11-3.88,5-7.83,10-11.56,15.08-0.41.56,0.42,2,.68,3.08l-9.59,15.14-0.87-2.06-0.45-2.2Z"/><path class="u" d="M227.75,247.26l5.93,2q0,1,0,2l-9,10c-1.3.48-3.39,0.63-3.74,1.49-1.28,3.16-3.39,1.78-5.37,1.5,1.11-2,2.28-3.88,3.3-5.88,1.37-2.67,2.63-5.4,3.94-8.11Z"/><path class="h" d="M233.68,251.29v-2l4-4,3,1-3,5c-3.65,1.46-2.28,4.34-2,6.92l-2,2.11-10,11.14-0.13-1.27,3-6.87Z"/><path class="a" d="M218.81,252.44c-0.26-1-1.09-2.52-.68-3.08,3.73-5.12,7.68-10.08,11.56-15.08l2,4-3,4-7,8Z"/><path class="t" d="M275.63,228.76"/><path class="g" d="M283.46,234.51"/><path class="h" d="M228.69,242.28l3-4c1.71-1.42,3.41-2.86,5.14-4.25,1.22-1,2.48-1.91,3.73-2.87l1.26,1.48-11.06,10.69Z"/><path class="j" d="M228.69,242.28l2.06,1-3,3.93-5,3H221.7Z"/><path class="a" d="M240.67,246.28l-3-1,3.27-4.94,1.88,0.91Z"/><path class="h" d="M268.68,232.27l-6-5.63,1.74-1.38,4.25,7h0Z"/><path class="a" d="M243.75,229.21l-2.67-1a8.62,8.62,0,0,1,.66-1.51,20.46,20.46,0,0,1,2.62.95Z"/><path class="a" d="M233.67,223.28l-1-1,1.58-.27Z"/><path class="o" d="M258.72,217.28l-0.08,1.37-2.14-2.22,1.23-.21Z"/><path class="h" d="M270.7,236.26l0.92,1.77-0.67.2-0.29-1.94Z"/><path class="h" d="M270.67,236.28l0.08,0.11,0-.14Z"/><path class="h" d="M268.68,232.28l0.32,0.19-0.32-.2h0Z"/><path class="b" d="M69.67,276.14a2.71,2.71,0,0,1,1.22-.55c6.73,4.18,14-.63,21.07,1.55,7.9,2.46,16.15,3.84,24.24,5.68l4.52,0.86,2.52,0.36,1.53,14.23-1.29,8.78-8.55,1.6c0.22-4.19,1.31-8.18-1.4-12.42-2-3.13,2.33-8.48-3.93-12.27,0,5.07,0,9.26,0,13.44a7.68,7.68,0,0,1-1-.19c-1-1.7-2.6-3.32-2.79-5.1-0.45-4.13-1.76-7.54-6-8.61s-8.81-1.5-13.23-2.21c-2.53-1.2-5.13-2.83-6.94,1-3.23-1.67-6.11-4.56-10.28-3Z"/><path class="ac" d="M94.46,310.88l-1.71.27c-1.3-.57-3-0.8-3.81-1.78-1.46-1.85.71-11.93,2.67-14l0.48,4,3.21-1.64c0.46,0.62.87,1.73,1.39,1.79,4.39,0.44,4.71,3.42,4.47,6.82l0.49,5a7.88,7.88,0,0,1,.09.86l-2.13.32a24.55,24.55,0,0,1-1.11-4.12c-0.19-2,0-4,0-6.43C92.6,303.8,93.8,307.44,94.46,310.88Z"/><path class="p" d="M101.75,312.06a7.86,7.86,0,0,0-.09-0.86c1-2.17,2-4.35,3.12-6.5,1.25-2.51,2.56-5,3.84-7.48a7.68,7.68,0,0,0,1,.19q-0.06,2.82-.11,5.64l-1.83,2.44,1.27,0.64,0.9-2.73c2.68,4.94,1.94,6.46-3.18,6.89-0.71.06-1.27,1.22-2,1.49A11.3,11.3,0,0,1,101.75,312.06Z"/><path class="k" d="M94.46,310.88c-0.67-3.44-1.87-7.08,4-9,0,2.48-.14,4.47,0,6.43a24.55,24.55,0,0,0,1.11,4.12l0.1,1.87-3.49,2.07Z"/><path class="p" d="M124.77,298.28L123.24,284l2.43-10.77h1l4.95,3,2.42,3.22,0.66,8.8h0c-1,2.29-1.55,5.06-3.2,6.72S127.05,297.23,124.77,298.28Z"/><path class="f" d="M138.91,307.16q0-1.46-.05-2.91-0.09-6.49-.19-13c5.11-.33,5.23-4.41,6-8q0-.48.07-1l3,1q-0.08,4-.16,8l-3.88,11c-0.68,2.52-1.53,5.13,2.72,4.93l-0.92,2.7-4.65.24Z"/><path class="n" d="M144.68,283.28c-0.78,3.59-.9,7.67-6,8l-1.17-3-0.14-3L134,279.47l-2.42-3.22,5.09-2.88C137,279.41,139.73,282.81,144.68,283.28Z"/><path class="p" d="M137.35,285.26l0.14,3Z"/><path class="p" d="M136.07,295.29a7.88,7.88,0,0,1-.17-0.88,1.26,1.26,0,0,1,.37-0.16,8.32,8.32,0,0,1,.19.88A1.55,1.55,0,0,1,136.07,295.29Z"/><path class="p" d="M134.69,288.27l0,0v0h0Z"/><path class="e" d="M140.85,310.12l4.65-.24,7.23,2.36c2.79,3.95,2.21,5.14-2.94,6.14l-3,0-2.57,1-2.51-4.05-2-2.2a3.17,3.17,0,0,0,0-.74Z"/><path class="o" d="M140.85,310.12l-1.17,2.21c-2.92-1.33-2.39-3.17-.76-5.17Z"/><path class="l" d="M57.34,308.44l-3.58-2c-0.85,6.28-1.63,12.09-2.42,17.9l1,2.18,0.34,3.8c-0.06,4.6-1.2,9.48,3.27,12.94l-1.4,2-3,0q0-.52,0-1c-0.68-5-1.49-10.06-2-15.11-0.88-8.35-3.72-16.88,1.83-24.78a2,2,0,0,0,0-1l2.37-2.89,5.05,3.22Z"/><path class="l" d="M57.17,363.34l-1.46,1.86Z"/><path class="e" d="M55.7,361.29l-0.21.38,0.17-.41Z"/><path class="h" d="M25.88,340l0.68-2.78,17.13,3,3,2.87-4.94,1.07Z"/><path class="y" d="M46.66,343.14l-3-2.87c-0.35-2.34,6.22-4.66,0-7l-9.94-8.59c1-2,2.64-3.87,2.75-5.88,0.23-4.06-.39-8.16-0.67-12.25l1.76-10.31,0.47-3L46.44,301c0.19-2.64-2.12-6,2.47-5.72l2.43,8a2,2,0,0,1,0,1c-5.55,7.9-2.71,16.43-1.83,24.78,0.53,5.05,1.34,10.07,2,15.11Z"/><path class="aa" d="M29.66,324.33l-3,2.93-2.81-1.16-8.05-23.82a1.42,1.42,0,0,1,.1-1l1.76-1.23c2.58,6.71,4.6,13.81,12,17.15Z"/><path class="f" d="M19.91,334.46l-9.86-5.09-2.38-3.18a0.6,0.6,0,0,0-.6-0.11l-1.2-.93,0.6-4.8,6.42,0c0.59,1.3,1.3,2.56,1.76,3.91,1.38,4,3.8,5.87,8.09,4.07l0.93,0,0.44,0.54Z"/><path class="aa" d="M43.7,333.26c6.21,2.35-.37,4.67,0,7l-17.13-3,2.58-7a48.51,48.51,0,0,0,5.19,2.66C37.37,334,40.41,337.13,43.7,333.26Z"/><path class="l" d="M29.66,324.33q0-3.54,0-7.08l1.72-4.05,0.42-7.86,1.53,6,0.71,0V301.16l1.16-.16,0.69,5.55c0.27,4.09.89,8.19,0.67,12.25-0.11,2-1.79,3.92-2.76,5.87a3.39,3.39,0,0,0-.87-0.27Z"/><path class="h" d="M32.89,324.41a3.39,3.39,0,0,1,.87.27l9.94,8.59c-3.29,3.87-6.33.72-9.37-.42a48.51,48.51,0,0,1-5.19-2.66Z"/><path class="f" d="M23.82,326.11l2.8,1.16L24.1,328.8l-0.44-.54-1-1-0.06-1Z"/><path class="aa" d="M141.68,315.28l2.51,4.05-2.39,16.93-2.07,4.29c-0.34-1.44-1.12-2.93-1-4.31C139.6,329.24,140.68,322.27,141.68,315.28Z"/><path class="aa" d="M139.57,341.33q0,1.42-.07,2.83Z"/><path class="aa" d="M91.62,295.32c-2,2.11-4.13,12.19-2.67,14,0.77,1,2.51,1.21,3.81,1.78l-3.31,9.64c-1-1.63-1.36-2.51-2-3s-1.77-1.29-2.33-1.06A3.51,3.51,0,0,0,83.76,319c-0.46,1.87-.69,3.8-1,5.71a45.82,45.82,0,0,0-4.5-3.53,29.81,29.81,0,0,0-4.53-1.87q0-1,0-2l1-2q0-1.5,0-3l1.28-3.2,4.43-.17,3.37,1.32,2.93-17.48c0.51-.47,1.16-1.44,1.5-1.34a39.1,39.1,0,0,1,4.44,1.88Z"/><path class="q" d="M59.54,366.11l-1.33-1.83,5.44-1.13,1,1.15,0.94,1,0.07,0-0.86.88-4.2.06Z"/><path class="y" d="M63.66,363.15l-5.44,1.13,0.08-1,1.29-2Z"/><path class="l" d="M65.63,365.26l-0.94-1Z"/><path class="ac" d="M80.4,308.9l-4.43.17c-1.25-3-.91-8-7.82-5.25l5.42,2.26-0.33,1.21c-1.57-.25-3.15-0.47-4.71-0.76a20.4,20.4,0,0,1-2-.57l-1.46.22-1-6.9-3.44,5-1-.81-0.1-5.12,0.16-1.16,1.77-.94,4.32,1.05,2.93-6.22L69,295.4l5.6,2,3.15-.59,4,1.28Zm-1.82-7.25-1.75-1.23-1.24,1.77A3.05,3.05,0,0,0,77,303,5.06,5.06,0,0,0,78.58,301.66Z"/><path class="y" d="M66.52,306a20.39,20.39,0,0,0,2,.57c1.56,0.29,3.14.51,4.71,0.76l0.33-1.21-5.42-2.26c6.91-2.72,6.58,2.22,7.82,5.25l-1.28,3.2c-0.92.58-2.24,1-2.66,1.79-0.72,1.43-.73,3.21-1.33,4.73a16,16,0,0,1-2,3c-0.67-1.14-1.84-2.25-1.93-3.43C66.49,314.23,66.58,310.09,66.52,306Z"/><path class="o" d="M59.55,298.32l0.1,5.12-0.46-.05-0.43.19-5.06-3.22a0.39,0.39,0,0,0-.5-0.11l2.27-28.34c0.06,7.43.2,14.86,0.13,22.29C55.58,297.08,56.47,298.63,59.55,298.32Z"/><path class="k" d="M60.63,304.25l3.44-5,1,6.9Z"/><path class="y" d="M74.7,315.27l-1,2Z"/><path class="p" d="M56,343.23c-4.47-3.46-3.33-8.34-3.27-12.94Z"/><path class="p" d="M52.37,326.48l-1-2.18Z"/><path class="k" d="M219.68,334.27a4.4,4.4,0,0,1,.32-1.43c1.71-2.69,1.69-7.29,6.67-6.48s3.75,4.89,4,8.18c0.17,1.95.64,3.86,1,5.8q0,2,0,3.94c-1,.16-1.95.29-2.91,0.48-3.47.69-5.1-.49-4.36-4.2S223.84,334.42,219.68,334.27Z"/><path class="k" d="M215.68,330.27c-0.28,1.73-1,3.56-.7,5.17,0.27,1.39,1.74,2.55,2.68,3.81-1.86,4-3.63,8.14-5.65,12.11-0.61,1.19-1.94,2-3.46,3.5l1.09-15.64,2.07-4.92Z"/><path class="b" d="M211.73,334.31l-2.07,4.92L207,340.37l-0.53-3.94-1.84-8.14,0-1.46c2.31-1.63,5.08-3,4.43-6.58l2.65-4h1q0,1.5,0,3Z"/><path class="ad" d="M233,199.37c0.27,4.42-2.51,7.28-7.75,8-1.61.22-3.22,0.48-4.83,0.73l-2.85-2.73c-0.62-4.63-4.91-2.31-7.19-3.79l-3-2.18c4.68-3.77,10-2,15.11-1.64,3.07,0.22,6.11.88,9.16,1.34Z"/><path class="t" d="M263.26,219.23l-4.54-2-1-1.07"/><path class="s" d="M254.11,209.14l-0.42-.51a4.69,4.69,0,0,1,.79-0.14,0.76,0.76,0,0,1,.29.28Z"/><path class="l" d="M6.61,327.2l-0.85,2.9-2-1.89a4.28,4.28,0,0,0,0-.65c0.31-.11.61-0.23,0.91-0.36l1.84-.06Z"/><path class="q" d="M3.81,327.56a4.33,4.33,0,0,1,0,.65l-3,.08L0,325.16Z"/><path class="l" d="M7.07,326.08a0.6,0.6,0,0,1,.6.11l-1.06,1-0.05-.07Z"/><path class="s" d="M152.73,312.24l-7.23-2.36,0.92-2.7,3.17-8.92,0.06-.11,0.64-.91,6.27-13.05,2.35,1.11c-2.29,4.31-5.2,8.44-3.52,14.24l8.45-10.94,0.08-.19,2-2,4-5.07,5.8-4.13L187.53,270l2.21-1.44c1.91-1.71,6-2.07,3.83-6.27l0.15-4,1-.06,4.75,6q0,1-.08,1.94l-9.85,6.08-5.64,3.79-9.28,7.3-3.78,4.93-4.2,2.92c-3.68,4-7.68,7.82-6.53,14.05l-3.46,3a5.93,5.93,0,0,1-.17.72Z"/><path class="y" d="M156.53,309a5.88,5.88,0,0,0,.17-0.72c1.56,1.19,3.68,2.07,4.56,3.64,1.74,3.11,3.8,2.53,6.23,1.46l1.44,8c-1.69.71-6.22,0.78-3,5.91l-0.28,1.94-1.87,2,0.13,1.16-0.15,1.82-3.36,4.87-0.48,4.19-2.14,1.21-2.09-4.22,1-5c1.23-1.85,3.66-3.85,3.45-5.51-0.52-4.05-1-7.5,3-10.15,0.6-.4.28-2.18,0.39-3.32-1.14.42-3,.57-3.29,1.31-1.4,3.8-2.39,7.75-3.52,11.64-0.12-4.47-.28-8.94-0.34-13.41C156.31,313.57,156.46,311.28,156.53,309Z"/><path class="k" d="M156.69,329.27c1.13-3.9,2.12-7.85,3.52-11.64,0.27-.74,2.15-0.89,3.29-1.31-0.11,1.14.21,2.92-.39,3.32-4,2.65-3.52,6.1-3,10.15,0.21,1.66-2.22,3.66-3.45,5.51l-1,0,1-5v-1Z"/><path class="p" d="M141.8,336.26l2.39-16.93,2.57-1,0.86,5.86-0.21,1.91-1.75,5.19-1.44,5.77Z"/><path class="y" d="M156.7,330.28l-1,5-3.71-.2c0.36-1.19.4-2.71,1.18-3.48S155.49,330.68,156.7,330.28Z"/><path class="l" d="M147.62,324.21l-0.86-5.86,3,0Z"/><path class="l" d="M145.66,331.31l1.75-5.19Z"/><path class="y" d="M157.62,345.28l-0.84,1.16Z"/><path class="z" d="M183.94,276.08l5.64-3.79L200.76,270a50.47,50.47,0,0,1,.84,6.27c0.1,7.66,0,15.32.09,23,0,1.67.86,3.32,1.33,5l0.47,4.28c-2.63,3.92-4.92,8.14-8,11.61-1.38,1.53-4.4,1.88-6.75,2.17-3.44.43-4.73-2.12-4.95-5-0.76-9.89-1.59-19.78-1.84-29.69C181.82,283.79,183.22,279.93,183.94,276.08Z"/><path class="o" d="M163.77,331.22l1.87-2,1.87,1.75,0.81-.71-2.4-3c-3.22-5.12,1.32-5.19,3-5.91l-1.44-8,2.27-1.16,1.06-.28,4.81,3.31,0.18,7.82c-4.93,2.85-4.73,6.53-2.08,11,0.84,1.41.69,3.41,1,5.13l-1.92.19-3-3-0.16-.18-1-3.06-1.92,1.27-2.94-.18,0.15-1.82,1-.65Z"/><path class="t" d="M193.77,326.31l9.64-.12a0.82,0.82,0,0,1,.51.71c-3.83,2.58-7.35,5.41-8.23,10.34-9.93,2.66-12.27.62-11.58-10.12,1.12,1.16,2,2.78,3.41,3.36,1.87,0.8,4.35,1.58,6.09,1C196.94,330.33,194,328.09,193.77,326.31Z"/><path class="j" d="M175.63,315.24l-4.81-3.31,0-.37,0.1-5.34-0.07-17.9,3.77-4.93Z"/><path class="b" d="M203.48,308.48L203,304.2l0.4-3.14,5.62-9.72a10.55,10.55,0,0,1-.57,5.9c-1.09,2.56-.36,4.08,2,5.07l0.11,1.94a3.09,3.09,0,0,0-.1.87,44.35,44.35,0,0,0-2.85,3.44c-1,1.52-1.88,3.17-2.8,4.76Z"/><path class="p" d="M174.72,339.15c-0.3-1.73-.15-3.73-1-5.13-2.65-4.42-2.85-8.1,2.08-11,0.79,4.46,1.56,8.92,2.36,13.38,0.46,2.53,1,5.05,1.53,8Z"/><path class="n" d="M204.87,313.32c0.93-1.59,1.77-3.24,2.8-4.76a44.35,44.35,0,0,1,2.85-3.44q0.09,1.07.18,2.15c-2.12,4.13-5,8.15-1.66,13,0.65,3.62-2.12,4.95-4.43,6.58a2.11,2.11,0,0,1-.69.07,0.82,0.82,0,0,0-.51-0.71Q204.14,319.76,204.87,313.32Z"/><path class="ac" d="M163.76,334.2l2.94,0.18,2.93,1.79,0.16,0.18L167.66,342l-6,.44-1.24-3.36Z"/><path class="b" d="M193.77,326.31c0.24,1.78,3.17,4-.16,5.16-1.74.6-4.22-.19-6.09-1-1.37-.58-2.29-2.2-3.41-3.36Z"/><path class="s" d="M203.92,326.9a2.11,2.11,0,0,0,.69-0.07c0,0.48,0,1,0,1.45l-3.88,8.13-5.07.83C196.57,332.31,200.09,329.48,203.92,326.9Z"/><path class="ac" d="M200.77,336.41l3.88-8.13,1.83,8.14Z"/><path class="p" d="M167.66,342l2.13-5.65,3,3Z"/><path class="p" d="M160.4,339.07l1.24,3.36-1.73.84Z"/><path class="g" d="M60.64,366.24l4.2-.06q-0.08,1.54-.17,3.07l-3.14-.2A3.27,3.27,0,0,1,61,369c0-.45,0-0.89,0-1.33Z"/><path class="m" d="M59.67,368.25l-1.77-1Z"/><path class="l" d="M59.67,368.25l-1.77-1,1.65-1.12,1.09,0.13c0.09,0.47.19,0.93,0.28,1.39Z"/><path class="q" d="M61,369a3.27,3.27,0,0,0,.58.09l-0.39.64Z"/><path class="v" d="M159.79,26.2c-5,2.18-9-1.08-13.22-2.57-1.65-.58-3.1-1.81-4.76-2.26-3.26-.89-4.18-3.05-2.11-5.6,3-3.74,9-4.51,13.89-1.41l-5.17,3.84,5.42,2,4.81,2.09v0Z"/><path class="s" d="M158.63,22.26l-4.81-2.09,6.6-2.18Z"/><path class="d" d="M159.79,26.2l-1.15-3.9,2.12,1.05q0,1.45,0,2.89Z"/><path class="s" d="M176.6,27.69l-6.94-1.31L172,24.13Z"/><path class="d" d="M192.66,34.32l-1.12.08q0-.52,0-1l0.19-.19Z"/><path class="d" d="M191.59,33.35L191.26,33l0.52,0.11Z"/><path class="s" d="M167.71,26.09l-2.45-1.44Z"/><path class="n" d="M88.69,223.27c6.33-.37,5.62-6.53,8-10,2.07-3,3.15-6.74,5.25-10.14a44,44,0,0,0,4.65,24.28l-1.82,9c1,7.45,2,14.91,3.12,22.34,0.17,1.1,1.41,2,2.15,3l-0.64,1.67-0.74.92-6-2.06V228.69c-2.54.65-4.4,1.76-5.91,1.39-5.77-1.4-5.91,2.3-6.13,6.15L85.73,262c-3.8.67-5-2-6-4.77a9.78,9.78,0,0,1-.09-1l2.06,0L82,256.47l-0.32-.21c0.59-2.34,2.28-5.11,1.56-6.95-2.37-6.09.64-11.76,0.53-17.62,0-.81,1.19-1.64,1.83-2.46L86.42,232c3.32-2.63,4.08-5.39,2.26-8.76h0Z"/><path class="z" d="M59.55,298.32c-3.08.31-4-1.24-3.94-4.13,0.07-7.43-.07-14.86-0.13-22.29l1.16-7.72,0.1-1.18,0.38,0.11,0.39-.06a24.31,24.31,0,0,1,2.8-1.92c1.93-1,3.93-1.8,5.9-2.69l1.6,5.73c-2.47,8.08-5.1,16.11-7.33,24.26-0.76,2.77-.55,5.82-0.78,8.74Z"/><path class="o" d="M109.42,263.39l0.64-1.67,4.56,2.59c2.43,2,4.75,1.66,7-.32l7.33-3.51,15.67-6.35c1,1.68,3,3.45,2.84,5-0.32,3.78-2.29,5.53-6.83,4.45-10.4-2.46-13.65.05-14,9.69h-1l-2.73-3.22-3.38,9.09-1.87-6.88h0l2.59-.66,0.32-1.24c-2.87-1.25-5.82-2.34-8.56-3.83C110.91,265.93,110.27,264.46,109.42,263.39Z"/><path class="h" d="M85.73,262l4.91-25.79c0.84,1.37,2.08,2.65,2.43,4.14a44.35,44.35,0,0,1,.61,6.91l-2,14.7Z"/><path class="aa" d="M81.66,256.3l-2.06,0c0.13-1.84-.08-3.78.46-5.49,1-3.13,1-5.71-2.23-7.45l6-19.93,1-1.07,1,1q-0.1,2.94-.2,5.88c-0.64.82-1.84,1.65-1.83,2.46,0.1,5.85-2.91,11.52-.53,17.62,0.71,1.83-1,4.6-1.56,6.95Z"/><path class="aa" d="M68.73,291.06l-2.93,6.22-4.32-1.05c1.55-5.48,2.94-11,4.75-16.41,0.49-1.45,2.26-2.47,3.44-3.68q-0.12,1.6-.23,3.2-0.37,5.54-.74,11.08Q68.72,290.74,68.73,291.06Z"/><path class="n" d="M91.68,262l2-14.7c1,1.17,2.32,2.19,2.81,3.53,1.29,3.58,2.19,7.3,3.25,11l-3.06.56Z"/><path class="h" d="M77.84,243.31c3.25,1.74,3.21,4.33,2.23,7.45-0.54,1.71-.33,3.66-0.46,5.49a9.58,9.58,0,0,0,.08,1l-3.37,2.44L75,259.45Z"/><path class="o" d="M67.81,264.17l-1.6-5.73c-2,.89-4,1.72-5.9,2.69a23.88,23.88,0,0,0-2.79,1.92l3.18-6.75h0l7.67-1.05c0.43,1.35,1.3,2.75,1.18,4C69.39,261,68.43,262.55,67.81,264.17Z"/><path class="s" d="M68.37,255.24l-7.67,1.05,3-2.8,3.15-8.18,1,4.86Z"/><path class="o" d="M96.67,262.33l3.06-.56,2.94,0.48,6,2.06C104.28,267.74,100.2,267.07,96.67,262.33Z"/><path class="p" d="M120.71,283.69l-4.52-.86Z"/><path class="o" d="M117.69,272.27l-0.33-.19,0.32,0.19h0Z"/><path class="l" d="M70.55,217.15c-1.51,4.56-3.49,9-4.42,13.69-1.28,6.44-5.48,12.41-3.4,19.43l-2.86.09,3.69-19.09a1.16,1.16,0,0,0,.2-0.8l2.58-6.22Z"/><path class="aa" d="M63.56,231.26l-3.69,19.09-1.15,3-6.82,2-1.5.6-0.19.07c1-2.92,1.53-5.8,5.82-6.12,2.63-.2,2.26-5.38.29-7.55a66.43,66.43,0,0,1,3.44-7.13A26.38,26.38,0,0,1,63.56,231.26Z"/><path class="v" d="M56.75,263l-0.1,1.18-5,1.25-4.2-4.31-0.83-3.86L50.21,256l0.2-.07,1.27,0.41Z"/><path class="aa" d="M46.65,257.27l0.83,3.86-3,3.08a2,2,0,0,1-.8-0.18Z"/><path class="aa" d="M52.15,239.43v-4.36h1v4.39Z"/><path class="aa" d="M66.35,224.25l-2.58,6.22C64.27,228.25,62,224.86,66.35,224.25Z"/><path class="j" d="M121.61,264c-2.24,2-4.56,2.35-7,.32a2.35,2.35,0,0,0,.61-0.77c2-10-3.34-18.1-7.23-26.53-0.27-.59-2.1-0.47-3.21-0.68l1.82-9,2.16,2.81,2.1,3.93c0.3,1.55.08,3.61,1,4.58C118.64,245.82,118.41,255.55,121.61,264Z"/><path class="n" d="M127.65,239.25l3.46-.19-1.46-8.73,2.06-1.05,6.95,0,3.07,3.78-3.49,2.15,0.48,1.25,7-2.22,2,0-1,4-8.08,2L127,240.08a2.6,2.6,0,0,1,.17-0.69A0.89,0.89,0,0,1,127.65,239.25Z"/><path class="m" d="M103.67,162.28c0.66,2,2.16,4.1,1.85,5.91-1.11,6.5.72,12.46,2,18.65,1.29,6,1.42,12.3,2.07,18.47l-1.72-7.81c-0.59-1.8,2.47-5.14-2.2-5.22-2.53-2.88-5.45-5.65-3-10-0.06-1.69-.18-3.37-0.18-5.06,0-2.33.09-4.67,0.15-7l0.76-3.92c0-.69,0-1.39,0-2.08S103.59,162.92,103.67,162.28Z"/><path class="b" d="M127.65,239.25a0.89,0.89,0,0,0-.45.14,2.6,2.6,0,0,0-.17.69l11.56,0.21-0.91,1-4.12.86c-7.25,0-14.16-1-19.72-6.36a13.68,13.68,0,0,0-3-1.69l-2.1-3.93c1.16-.59,2.81-2,3.4-1.64,5.17,3.08,10.15,6.46,15.16,9.79A2,2,0,0,1,127.65,239.25Z"/><path class="o" d="M107.91,197.5l1.72,7.81c1.81,4.37,3.73,8.7,5.39,13.13,0.55,1.47.43,3.18,0.62,4.78l-1.91-1.53C109.26,214.24,106.53,206.36,107.91,197.5Z"/><path class="k" d="M131.71,229.28l-2.06,1.05a56.1,56.1,0,0,1-8.19-1.1c-1.1-.3-1.82-2-2.72-3.08l2,0.41,11,1.94Q131.72,228.89,131.71,229.28Z"/><path class="k" d="M115.72,224.18l3,2Z"/><path class="k" d="M113.72,221.7l1.91,1.53,0.14,1Z"/><path class="p" d="M58.73,253.32l1.15-3,2.86-.09,1,3.22-3,2.8h0Z"/><path class="o" d="M68.51,241.24l2.21-1c0.45,2.75.45,2.75-3.86,4.07Z"/><polygon class="o" points="39.59 218.57 39.97 218.8 39.55 218.96 39.59 218.57"/><path class="o" d="M39,225.48l-1.25,1.89Z"/><path class="o" d="M39.68,225.24a0.5,0.5,0,0,1-.48.43Z"/><path class="o" d="M89.62,191.24l2.05-1Z"/><path class="f" d="M85.63,229.23q0.1-2.94.2-5.88l2.85-.07c1.82,3.37,1.06,6.13-2.26,8.76Z"/><path class="b" d="M103.42,164.19q0,1,0,2.08l-3.85-4.6,2.07-.33,0.87,0.71Z"/><path class="s" d="M44.44,264.21l3-3.08,4.2,4.31-3.17,6.76a3.73,3.73,0,0,0-.86.13l-5.84,8-4,9.17-2.07-2.18,4-15.05Z"/><path class="n" d="M210.51,302.31c-2.41-1-3.13-2.51-2-5.07a10.55,10.55,0,0,0,.57-5.9l-5.62,9.72c0.18-3.34.2-6.7,0.58-10,0.83-7.32,1.8-14.63,2.84-21.92a15.2,15.2,0,0,1,1.52-3.61l0.87,2.06,9.59-15.14,2.89-2.15h1.09c-1.31,2.7-2.57,5.43-3.94,8.11-1,2-2.2,3.92-3.3,5.88-5,5.86-6.08,13.09-7.23,20.5a30.59,30.59,0,0,0,6.62-7c3.1-4.69,5.88-9.58,8.8-14.39l2.85,0-3,6.87c-0.75.6-2,1.07-2.16,1.81-2.49,10.22-10.43,18.86-8.78,30.27Z"/><path class="k" d="M209,320.25c-3.33-4.82-.46-8.85,1.66-13l3,1q0,2,0,4l-2,4Z"/><path class="k" d="M210.51,302.31l2.15-.06-2,2Z"/><path class="f" d="M211.73,334.31l1-15,1.69,4.6,5.32-2.56-2.13,6.86-1.92,2.1h0Z"/><path class="k" d="M215.68,330.27l1.92-2.1Z"/><path class="f" d="M219.72,321.31l1.1-1Z"/><path class="f" d="M211.69,316.28l2-4c2.84,2.07,2.08,3.32-.93,4h-1Z"/><path class="f" d="M31.35,313.2l-1.72,4.05c-7.4-3.34-9.42-10.45-12-17.15l1-6.8,8.06,14Z"/><path class="r" d="M18.62,293.29l-1,6.8-1.76,1.23-1.16-4.12,0,0,0.1-1.94,1.7-3.13-1.75-1.23,1-5.76C19,287.13,18.13,290.44,18.62,293.29Z"/><path class="t" d="M15.69,285.27L14,284l1.76-1.72Z"/><path class="aa" d="M37.82,289.49l4-9.17,5,8,2.08,7c-4.59-.31-2.28,3.08-2.47,5.72l-8.36-7.72Z"/><path class="n" d="M85.73,120.16l0.62,1.07Z"/><path class="d" d="M183.66,150.24q0,1.47-.08,2.94l-3.08.27,1.18,1.84-1,1.91-3.9,5.2-3.37,2.8-1.89-4.42c-4.59,2-9.54,3.25-13.39,6-7.62,5.48-15.21,6.9-24.12,3.6-3.86-1.43-8.44-.8-12.51-1.83-5.77-1.46-11.17-8.42-10.78-13.25a18.78,18.78,0,0,1,.93-3.75c5.54,1,10.43,2,15.38,2.62,1.39,0.17,2.93-.84,4.4-1.3a27.6,27.6,0,0,0-2.13-4.78,27.9,27.9,0,0,0-3.68-3.74l8.08,0,1.87,0.07,5.91,9.57-3.83,3.34-2.93,0c-3.16,0-6.35-.29-9.44.16-1.26.18-2.28,2-3.42,3.05,1,1,1.74,2.35,2.89,2.82,4.27,1.73,8.62,3.28,13,4.67,6.73,2.13,15.61-1.08,19.09-7.21,2.92-5.14,5.11-10.68,7.95-15.87,1.13-2.07,2.84-4.63,4.83-5.25,4.13-1.29,4.12-4.66,4.29-7.46,0-.84-3.88-1.91-6-2.87,0.39-2.33,1.94-5.51,1-6.84-5.18-7.1-10.35-14.4-18.77-18.23l-1.9-1.08,0.64-1.51c2.29,1.06,4.63,2,6.87,3.2,2,1,3.9,2.3,5.85,3.46,3.73,7,13.66,13.72,19.68,12.36-0.47,5.75,0,11.47-1.59,16.57C177.93,143.07,182,146.09,183.66,150.24Z"/><path class="c" d="M168,129.39c2.11,1,6,2,6,2.87-0.17,2.8-.16,6.17-4.29,7.46-2,.62-3.7,3.18-4.83,5.25-2.84,5.19-5,10.73-7.95,15.87-3.49,6.14-12.36,9.34-19.09,7.21-4.39-1.39-8.74-2.94-13-4.67-1.15-.47-1.94-1.85-2.89-2.82,1.13-1.07,2.16-2.87,3.42-3.05,3.09-.45,6.29-0.16,9.44-0.16-1,6.26,1.16,8.56,7.69,8.17,1-.06,2.16.43,2.91,0a52,52,0,0,0,5.19-3.44c-1.54-1.25-2.9-3.06-4.66-3.63-2.58-.85-5.45-0.81-8.2-1.16l3.83-3.34-5.91-9.58,9.59-2.39-0.27-1.3a80.94,80.94,0,0,0-8.93.85c-0.9.18-1.51,1.8-2.26,2.77l-8.08,0-1.94-.18,1.08-8.72,5,1c3.36,5.22,8,5.06,10.84-.35,1.49-.57,2.93-1.47,4.47-1.65,2.81-.34,6-0.57,3.41,5.15l5.19-1.67,7.14-3.58,4.71-5,1.56,3.1Z"/><path class="c" d="M175.73,211.32l-13.48,7c-0.91-.76-2.36-1.36-2.62-2.29-1.28-4.65-3.91-7.91-7.79-10.93a46.1,46.1,0,0,1-10.07-11.7c-1-1.59.48-4.76,0.82-7.21,2.75-2.2,5.33-4.67,8.29-6.53,4.8-3,9.85-5.63,14.79-8.41-0.43,2.76-.42,5.67-1.37,8.23-2.38,6.42-.65,16.07,4.62,20.37,3.29,2.69,6.79,4.84,5.62,9.94C174.46,210.2,175.32,210.81,175.73,211.32Z"/><path class="d" d="M142.6,186.2c-0.35,2.45-1.83,5.62-.82,7.21a46.1,46.1,0,0,0,10.07,11.7c3.88,3,6.51,6.28,7.79,10.93,0.26,0.93,1.72,1.54,2.62,2.29l-3.66,2.8-26.86,7.36-11-1.94c1.09-5.24,4.1-6.56,10.49-3.42,7.45,3.67,13.52,1.72,19.43-3.23a18,18,0,0,1-1.72-2.32c4.22-4.2.35-4.6-2.51-5.65-3.36-1.23-6.63-2.67-10-4-4.4-1.73-5.35-4.64-3.9-9.15C134.35,193.24,137.21,188.78,142.6,186.2Z"/><path class="c" d="M148.64,113l1.75-.81c5.46,4.73,9,10.36,8.21,17.93l-3.81.09-3.07-1c-1.17-.63-2.33-1.76-3.52-1.8-5.51-.17-11,0-16.56,0l-2.34-1.49L137.5,124C143.87,123,147.39,119.13,148.64,113Z"/><path class="o" d="M111.53,165.77c2.91,1.78,5.66,4,8.77,5.23,2.57,1.06,5.57,1.09,8.39,1.53a13.31,13.31,0,0,1,2,0c4,1.33,8,2.74,12.57,4.31-6,3.12-12.27,7-19.08,4.85-3.61-1.14-6.06-6-9-9.28-1.67-1.86-3.21-3.82-4.81-5.74Z"/><path class="d" d="M118.59,102.14c0.27-1.62.44-3.26,0.85-4.84,0.6-2.28,1.38-4.52,2.09-6.77l7-1,0.13,1.06,2.9-2.39c-1.45,3.24-2.85,6.5-4.36,9.71-2.52,5.35-.18,9.81,2.5,14.23a64.83,64.83,0,0,1-8.77-.46c-0.91-.16-2.21-2.11-2.1-3.11,0.21-1.85,1.32-3.6,2.2-5.73Z"/><path class="c" d="M129.75,112.16c-2.67-4.42-5-8.88-2.5-14.23,1.51-3.21,2.91-6.47,4.36-9.71q0.06-.47.11-0.94l3.74-3.14c0.23,0.92,1,2.2.61,2.71-4.25,6.1-2.19,12.93-2.43,19.48-0.15,4.09,2,6,6.08,6l0,1.91-2,.91-7-2.82A5.54,5.54,0,0,1,129.75,112.16Z"/><path class="d" d="M131.65,127.35c5.52,0,11-.15,16.56,0,1.19,0,2.35,1.17,3.52,1.8-5.23.37-10.47,1-15.7,1C134.56,130.12,133.11,128.32,131.65,127.35Z"/><path class="d" d="M139.67,114.24l0-1.91,8.93,0.65c-1.26,6.16-4.77,10.06-11.14,11.07,1.16-1.51,2.34-3,3.48-4.54,0.83-1.11,1.61-2.25,2.41-3.38Z"/><path class="v" d="M154.79,130.19l3.81-.09,2.25,4.24-7.15,3.58C152.08,135.06,150.95,132.27,154.79,130.19Z"/><path class="e" d="M117.89,132c-2.52.59-5,1.55-7.56,1.56-0.84,0-1.7-2.42-2.55-3.73,1.24-.53,2.51-1.58,3.7-1.49a32.89,32.89,0,0,1,6.1,1.56Z"/><path class="ab" d="M140.63,136.08c-2.8,5.42-7.49,5.57-10.84.35C133.38,135.54,136.91,132.76,140.63,136.08Z"/><path class="d" d="M102.87,137.27c-5.82-4.62-7-9.16-3.76-12.94Z"/><path class="d" d="M124.79,135.46l-1.08,8.72-6.29-5.27C121.82,139.32,120.6,133.6,124.79,135.46Z"/><path class="d" d="M130.64,112.33l7,2.82C134.26,116.87,132,115.66,130.64,112.33Z"/><path class="k" d="M102.52,162.06l-0.87-.71-1.91-4.17,3.1,3.22Z"/><path class="c" d="M172.67,166.24l-4,3.06Z"/><path class="ad" d="M102.52,162.06l0.32-1.66,0.83,1.89q-0.13,1-.25,1.91Z"/><path class="c" d="M183.66,150.24c-1.7-4.16-5.73-7.17-4-12.94,1.57-5.1,1.12-10.82,1.59-16.57-6,1.36-15.95-5.38-19.68-12.36,3.18,1.38,6.75,2.23,9.42,4.27,2.91,2.22,5.41,3.91,9.2,2.71a8.55,8.55,0,0,1,4.42,0c4,1,6.53.23,7.8-4.15,0.37-1.28,2.71-2,4.15-3a45.25,45.25,0,0,0-1.62,5.39c-0.15.83,0.47,1.81,0.75,2.72l2,6a54.89,54.89,0,0,0-8.18,2.14c-1.1.46-1.6,2.34-2.37,3.57,4.1,1.71.94,4,.68,6.2-0.22,2,.62,4,1,6L187,144.45C182.05,144.12,184.23,148,183.66,150.24Z"/><path class="c" d="M185.51,92.25c1.53,2,1.53,2-2.2,5.4-5.6-1.8-11.17-2.44-16.8,0a9.46,9.46,0,0,1-3.88.62c-5.37-.12-10.31-2.5-15.92-2.37-4.57.11-7.07-6.38-5.07-10.57l4,0a5.59,5.59,0,0,1,.16.88c0.86,2.28.92,5.51,4.88,4.11l15.24,2,7.84-2,3.69-1.21C179.66,91.39,181.46,94.77,185.51,92.25Z"/><path class="d" d="M145.6,85.32l-4,0c-0.21-2.14.78-5.33-2.95-4.89-1.21.14-2.16,2.4-3.23,3.69l-3.74,3.13c0.74-2.47,1.84-4.9,2.12-7.41,0.2-1.78-.23-4.94-1.2-5.31-4.16-1.56-8.63-2.32-13-3.37L114.82,71l-2.15-2.6c5.56-3.55,10-2.77,16,.85,4.89,3,11.44,6.58,18.39,3.24,1.24-.59,3.14.2,4.73,0.35C144.38,74.36,144.77,79.73,145.6,85.32Z"/><path class="d" d="M185.51,92.25c-4.05,2.52-5.85-.86-8.09-3.09-4-2.26-8-4.55-12-6.78-1.53-.85-3.12-1.57-4.68-2.36l1-2.59,1.83-.27c3,0.38,4.26-1,4.11-3.87,1.37,0.75,3.16,1.19,4,2.33,1.69,2.24,3,3.64,5,.47l2.08,1.12c-0.89,2.27-1.08,4.26,1.92,5.05Z"/><path class="i" d="M168,129.39l-0.85,3.07-1.56-3.11c-1-8.91-9.29-13-13.28-19.94a2.81,2.81,0,0,0-1.43-.24l-0.69-4.87c8.42,3.83,13.59,11.13,18.77,18.23C169.91,123.88,168.35,127.06,168,129.39Z"/><path class="d" d="M150.85,109.18a2.81,2.81,0,0,1,1.43.24c4,6.94,12.27,11,13.28,19.94l-4.71,5-2.25-4.24c0.74-7.57-2.75-13.2-8.21-17.93Q150.62,110.67,150.85,109.18Z"/><path class="c" d="M176.68,76.1c-2,3.17-3.32,1.76-5-.47-0.86-1.14-2.65-1.57-4-2.33q-0.48,0-.95-0.06l-1.92-2C170.08,69.61,173.89,71.61,176.68,76.1Z"/><path class="v" d="M163.54,77.17l-1.83.27c-1.67-.64-3.38-1.18-5-1.94s-2.87-1.65-4.29-2.49l5.3-.24,3.69-.2,2.12,0.8Q163.54,75.27,163.54,77.17Z"/><path class="d" d="M195.65,77.31c3,2.89,4.11,10.43,1.92,13Z"/><path class="d" d="M195.74,116.33c-0.27-.91-0.9-1.88-0.75-2.72a45.25,45.25,0,0,1,1.62-5.39l1.87-3.14,1.36,2.34Z"/><path class="c" d="M180.68,82.27c-3-.79-2.81-2.79-1.92-5.05l5.88,3.22-0.43,1.32Z"/><path class="d" d="M163.55,73.37l-2.12-.8,3.35-1.37,1.93,2Z"/><path class="i" d="M152.44,73c1.43,0.84,2.8,1.78,4.29,2.49s3.32,1.3,5,1.94l-1,2.59c-1.19.34-2.5,1.17-3.54,0.92-4.24-1-5.7,1.51-7.18,4.73l12.81,0.89-3.61,3,6.69,2.76-15.24-2-4.88-4.11a5.59,5.59,0,0,0-.16-0.88c-0.83-5.59-1.22-11,6.16-12.52Z"/><path class="d" d="M106.77,68.39c-1.09,2.3-2.14,2.42-3.13-.06Z"/><path class="v" d="M114.82,71l4.83,0.22c3.12,3.19,7.88,4.51,9.32,9.71,1,3.77,0,4.52-3.26,4.31-0.29-5.82-1.65-6.77-10.06-7-1-1-1.79-2.33-3-2.88a35.61,35.61,0,0,0-5.8-1.67l0-1.72Z"/><path class="e" d="M115.64,78.21c8.41,0.24,9.77,1.19,10.06,7l-5-1-0.92-1.43-1.08,1.29-16.91.37-0.1-2.2Z"/><path class="v" d="M101.65,82.27l0.1,2.2-2.9,1.89-1.12-1.7Z"/><path class="v" d="M118.66,84.11l1.08-1.29,0.92,1.43Z"/><path class="ab" d="M197.78,122.36l-2-6,4.1-8.9,0.78-.26,4.83,0.41c0.23-3,1.25-6-2.87-7.14l3.52-7.06,4.14,5.47-2.23,8.3q-0.11,1.57-.22,3.14l-2.09,6"/><path class="d" d="M202.58,100.44c4.12,1.1,3.1,4.17,2.87,7.14l-4.83-.41Z"/><path class="ab" d="M211.46,95l-0.88,2.19Z"/><path class="c" d="M176.81,162.4l3.9-5.2,1,6Z"/><path class="x" d="M147.68,234.26l-2,0a6,6,0,0,1-.92-0.32,0.52,0.52,0,0,1-.1-0.45c1.26-.93,2.53-1.85,4.09-3l-3.07-2.26a20.9,20.9,0,0,0,4.55-1.5c4.06-2.45,5.66-1,5.29,4.85l9.13-6.25c6.49-3.68,13-7.27,19.45-11.07a71.62,71.62,0,0,0,6.62-5q0,5.06.07,10.11l-9.75,24-2.42,0,1.08-5.14,2-4h0l3-7h0l1-2.17,0.44-6.62-20.39,12.8-7,3C155,231.66,151.36,231.69,147.68,234.26Z"/><path class="v" d="M181,243.45l9.75-24c0.91-1.12,2.2-2.11,2.66-3.4,2.15-5.89,4.06-11.86,6.06-17.8l4.23-2.9,3.87-1.2c-1.77,2-3.61,4-5.29,6.08-1,1.27-1.8,2.74-3.42,5.26l5.75-1.18-0.71,3.16-3.06,5.14c-0.81.21-2.13,0.19-2.34,0.66-3,6.84-5.89,13.76-8.85,20.63-1.93,4.48-3.95,8.91-5.93,13.37l-1.29-.36Z"/><path class="h" d="M164.65,225.38l-9.13,6.25c0.37-5.89-1.23-7.3-5.29-4.85a20.9,20.9,0,0,1-4.55,1.5l-7,1-6.95,0q0-.39,0-0.78l26.86-7.36a32.24,32.24,0,0,1,3,1.7C162.67,223.6,163.63,224.52,164.65,225.38Z"/><path class="n" d="M199.51,198.23c-2,5.94-3.92,11.91-6.06,17.8-0.47,1.29-1.75,2.27-2.66,3.4q0-5.06-.07-10.11Z"/><path class="c" d="M181.69,155.29l-1.18-1.84,3.08-.27Z"/><path class="ad" d="M184.75,165.33L184,168.21Z"/><path class="q" d="M203.94,207.46l0.71-3.16,2.78-4.9,3,2.17q0.17,1.13.33,2.28l-0.17,2.29-5,4.18Z"/><path class="z" d="M199.52,264.27l-4.75-6,0.8-14.06,7.77-15v-0.32c4.28-.27,5,1,3.81,4.93-1.42,4.57-2.25,9.32-3.34,14C203.38,253.51,203.88,259.52,199.52,264.27Z"/><path class="ac" d="M203.81,247.75c1.09-4.67,1.92-9.42,3.34-14,1.22-3.92.47-5.2-3.81-4.93L218.5,211.1c6.78,2.54-.77,4.16-0.41,6.28l-1.54,2.89-0.78.91-1.4,3c-1.5.48-4.36-.23-2.65,3Z"/><path class="o" d="M200.76,270l-11.17,2.32,9.85-6.07Z"/><path class="o" d="M211.73,227.26c-1.71-3.27,1.15-2.57,2.66-3l1.31,2.05,0,0-1,1,0,0Z"/><path class="n" d="M209.32,261.5l-1.43,1.81Z"/><path class="t" d="M218.5,211.1l-15.16,17.73s0,0.31,0,.31l-7.78,15-0.8,14.06-1,.06-1.16-7c-2.63-5.48,1.79-9.43,3.06-14.06l6.12-11.83L213.84,210h1.36l3.1,0.14A3.79,3.79,0,0,1,218.5,211.1Z"/><path class="e" d="M215.69,226.26l-1.31-2.05,1.39-3,0.78-.91,1.54-2.89C219.25,219.35,218,224,215.69,226.26Z"/><path class="g" d="M218.3,210.19l-3.1-.14,1.4-3.64,1-1,2.85,2.73Z"/><path class="e" d="M214.7,227.26l1-1Z"/><path class="h" d="M223.73,263.33c-2.92,4.81-5.7,9.7-8.8,14.39a30.59,30.59,0,0,1-6.62,7c1.15-7.4,2.28-14.63,7.23-20.5,2,0.28,4.1,1.66,5.37-1.5,0.35-.86,2.45-1,3.74-1.49Z"/><path class="aa" d="M223.73,263.33l0.93-2.07,9-10-7.1,12Z"/><path class="f" d="M91.62,295.32l1-2a54.7,54.7,0,0,0-2.35-6.81,38,38,0,0,0-3.63-5.17c4.42,0.71,8.91,1.12,13.23,2.21s5.51,4.48,6,8.61c0.19,1.78,1.81,3.41,2.79,5.1-1.28,2.49-2.59,5-3.84,7.48-1.07,2.15-2.08,4.34-3.12,6.5l-0.49-5c4.52-7.29,2.22-15.61-5.17-17.39l-0.69,8.78-3.21,1.64Z"/><path class="k" d="M86.65,281.3a38,38,0,0,1,3.63,5.17,54.69,54.69,0,0,1,2.35,6.81,39.15,39.15,0,0,0-4.44-1.88c-0.33-.1-1,0.86-1.5,1.34l-1.63,1.06-6.36-2.5,1-9C81.53,278.47,84.12,280.1,86.65,281.3Z"/><path class="n" d="M79.71,282.29l-1,9-0.93,5.55-3.15.59c0.68-3.89,1.54-7.75,1.94-11.67,0.1-1-1.22-2.23-1.89-3.35a17.45,17.45,0,0,0-3,2.7,52.67,52.67,0,0,0-3,5.28q0.37-5.54.74-11.08C73.6,277.73,76.48,280.62,79.71,282.29Z"/><path class="k" d="M95.31,297.64L96,288.86c7.39,1.77,9.69,10.1,5.17,17.39,0.24-3.4-.08-6.37-4.47-6.82C96.18,299.38,95.77,298.26,95.31,297.64Z"/><path class="f" d="M109.83,303.41l-0.9,2.73-1.27-.64,1.83-2.44Z"/><path class="e" d="M181,243.45l1.43,3.44,1.29,0.36c2-4.46,4-8.89,5.93-13.37,3-6.87,5.81-13.79,8.85-20.63,0.21-.47,1.54-0.45,2.34-0.66L194.43,231l-7.58,22.33,0.86,3c-1,.63-2.85,1.4-2.77,1.87,1,6.43-3.33,6.22-7.5,6.29,0-2.47,0-5-3.73-4.1l-2.94,0a47.89,47.89,0,0,0-7.36-.28c-2,.21-4,1.21-5.93,1.86l0,0-2,2-1,.94-5.21,2.65-12.54,5.73-5.09,2.88-4.95-3c0.32-9.64,3.57-12.15,14-9.69,4.54,1.08,6.5-.67,6.83-4.45,0.14-1.58-1.83-3.35-2.84-5l1.76-1.41,10.33-3.5a31.27,31.27,0,0,0,1.56,5c1.86,3.72,2.14,3.7,4.12.62l2.5-3.9c1.95,6.12,1.95,6.12,4.76,3.3l3-10.1,4-2.1,2,1.36Zm-3.88,2.6-0.9-.75-1.47,1.91,0.58,0.52Z"/><path class="k" d="M136.7,273.37l12.54-5.73,1.39,2.64-5.89,12q0,0.48-.07,1C139.73,282.81,137,279.41,136.7,273.37Z"/><path class="n" d="M144.75,282.32l5.89-12,2.09,0.05-3.09,12.91-1.89.08Z"/><path class="j" d="M143.7,302.26l3.89-11,2.11-.06,0,6a6.06,6.06,0,0,0-.08,1l-0.06.11Z"/><path class="k" d="M149.7,291.22l-2.11.06q0.08-4,.16-8l1.89-.08C152.27,285.88,152,288.54,149.7,291.22Z"/><path class="k" d="M143.7,302.26l5.89-4-3.17,8.92C142.18,307.39,143,304.78,143.7,302.26Z"/><path class="b" d="M48.91,295.27l-2.08-7q0.41-8,.82-15.95a3.71,3.71,0,0,1,.86-0.13c0.74,6,1.34,12,2.27,17.9,0.54,3.43,1.61,6.77,2.44,10.15a0.39,0.39,0,0,1,.5.11l-2.36,2.89Z"/><path class="n" d="M13.8,303.34l2-1,8.05,23.82-1.19.15c-2.22-3.95-4.39-7.93-6.73-11.81-0.39-.65-1.54-0.86-2.34-1.27Z"/><path class="k" d="M12.88,320.33q0-1,0-2.1l0.65-5,0.07,0c0.8,0.41,1.94.61,2.33,1.27,2.34,3.88,4.5,7.86,6.73,11.81l0.06,1,0,1c-4.29,1.8-6.7,0-8.09-4.07C14.18,322.89,13.48,321.63,12.88,320.33Z"/><path class="e" d="M4.72,327.2l1.15-2,1.2,0.93-0.51,1.05Z"/><path class="n" d="M22.73,328.3l0-1,1,1Z"/><path class="j" d="M77.78,296.85l0.93-5.55,6.35,2.5c-0.39,3-.87,6.09-1.13,9.15-0.2,2.41-.12,4.85-0.17,7.28l-3.37-1.32,1.35-10.78Z"/><path class="ac" d="M83.77,310.22c0-2.43,0-4.86.17-7.28,0.26-3.06.74-6.1,1.13-9.15l1.63-1.06Z"/><path class="j" d="M68.69,290.41a52.67,52.67,0,0,1,3-5.28,17.45,17.45,0,0,1,3-2.7c0.67,1.12,2,2.3,1.89,3.35-0.39,3.91-1.25,7.78-1.94,11.67l-5.6-2-0.3-4.34Q68.72,290.74,68.69,290.41Z"/><path class="y" d="M78.58,301.66A5.06,5.06,0,0,1,77,303a3.05,3.05,0,0,1-1.4-.79l1.24-1.77Z"/><path class="y" d="M53.21,300.25c-0.83-3.38-1.9-6.72-2.44-10.15-0.93-5.94-1.53-11.93-2.27-17.9l3.17-6.76,5-1.25-1.17,7.72Z"/><path class="t" d="M217.6,205.37l-1,1-5.85-2.56c-0.11-.76-0.22-1.52-0.33-2.27C212.69,203.06,217,200.74,217.6,205.37Z"/><path class="x" d="M149.7,291.22c2.34-2.68,2.57-5.34-.06-8l3.09-12.91,1.91-2.11,0.32,0.19-0.32-.19L154.45,265l1-.94,2-2,0,0,2.16,0.53,4.11,1.67,0,0-2,11.15-3.33,4.87-3.17,1.21,2,0.91-0.71,1.86-6.27,13.05-0.56,0Z"/><path class="t" d="M156.57,284.19l0.71-1.86,1.15-2.12,3.33-4.87c3-2.28,5.83-4.78,9-6.77s4.52-4.53,3-8.18c3.71-.87,3.7,1.63,3.73,4.1q0.1,1.35.2,2.71l-1.59,4.4c-2.4-2.17-3.7.17-5.3,1.29l-7.17,7.34-1,1.92-0.11,0-3.58,3.13Z"/><path class="ac" d="M171,306.22q0,2.67-.1,5.34l-1.1.65-2.27,1.16c-2.43,1.07-4.49,1.65-6.23-1.46-0.88-1.57-3-2.45-4.56-3.64l3.46-3,2.7-.64,2.1-.46-0.3,1.8,1.17-1.6a2.32,2.32,0,0,0,.83-0.17Z"/><path class="f" d="M171,306.22l-4.29-2q0-6.49,0-13l4.2-2.92Q170.93,297.26,171,306.22Z"/><path class="e" d="M176.06,271.61l1.58-4.4c1.82,0,3.74-.34,5.43.13s3,1.74,4.46,2.67l-11.89,7.26Z"/><path class="n" d="M158.92,285.31l3.59-3.13,1.34,6.42-8.45,10.94C153.72,293.75,156.62,289.62,158.92,285.31Z"/><path class="aa" d="M163.85,288.61l-1.34-6.42,0.11,0,1-1.93,7.17-7.33-0.91,8.49-4,5.07-2,2Z"/><path class="k" d="M166.69,291.23q0,6.49,0,13a2.31,2.31,0,0,1-.83.17,2.47,2.47,0,0,0-.87-0.2l-2.1.46-2.7.64C159,299.05,163,295.22,166.69,291.23Z"/><path class="p" d="M187.53,270c-1.48-.92-2.85-2.22-4.46-2.67s-3.61-.12-5.43-0.13q-0.1-1.36-.2-2.71c4.17-.07,8.51.14,7.5-6.29-0.07-.47,1.8-1.24,2.77-1.87a7.43,7.43,0,0,1,0,.82,36.62,36.62,0,0,0,.26,5.35,57.88,57.88,0,0,0,1.79,6.06Z"/><path class="ac" d="M187.69,257.16a7.43,7.43,0,0,0,0-.82l-0.86-3,5.71-2.07,1.16,7-0.15,4C189.54,262.95,189.21,259.37,187.69,257.16Z"/><path class="f" d="M169.84,281.39l0.91-8.49c1.6-1.12,2.9-3.46,5.3-1.29q-0.21,2.83-.42,5.65Z"/><path class="v" d="M187.69,257.16c1.52,2.21,1.85,5.79,5.88,5.13,2.19,4.2-1.92,4.57-3.83,6.27a57.74,57.74,0,0,1-1.79-6.05A36.62,36.62,0,0,1,187.69,257.16Z"/><path class="n" d="M163.92,288.42l2-2Z"/><path class="k" d="M149.74,297.2l0.56,0-0.64.91A6.06,6.06,0,0,1,149.74,297.2Z"/><path class="p" d="M165.92,327.29l2.4,3-0.81.71-1.87-1.75Z"/><path class="ac" d="M163.77,331.22l1.14,0.51-1,.65Z"/><path class="p" d="M169.63,336.16l-2.93-1.79,1.92-1.27Z"/><path class="f" d="M169.76,312.21l1.1-.65,0,0.37Z"/><path class="aa" d="M102.68,262.25l-2.94-.48c-1.06-3.66-2-7.38-3.25-11-0.48-1.34-1.85-2.37-2.81-3.53a44.35,44.35,0,0,0-.61-6.91c-0.35-1.49-1.59-2.77-2.43-4.14,0.22-3.85.36-7.55,6.13-6.15,1.51,0.37,3.37-.75,5.91-1.39v33.57Z"/><path class="u" d="M104.78,236.33c1.11,0.21,2.93.09,3.21,0.68,3.89,8.42,9.28,16.49,7.23,26.53a2.35,2.35,0,0,1-.61.77l-4.56-2.59c-0.74-1-2-1.95-2.15-3C106.74,251.24,105.8,243.78,104.78,236.33Z"/><path class="aa" d="M81.71,256.26L82,256.47l-0.36-.17Z"/><path class="s" d="M58.73,253.32l2,3-3.18,6.75-0.39.06L56.75,263l-5.07-6.65,0.22-1Z"/><path class="aa" d="M146.37,252.71l-1.76,1.41-15.67,6.35-2.24-3.2c4.4,0.79,6.05-.94,4.73-5.05a39.54,39.54,0,0,0-1.75-4v0l3-1.95,3-3,2-2,0.91-1,8.08-2,2,1c-1,4.91-.82,10.56-8.94,11.68Zm-7.57-9.13-0.4.19,0.4,0.2v-0.39Z"/><path class="n" d="M126.69,257.27l2.24,3.2L121.61,264c-3.2-8.44-3-18.17-9.75-25.29-0.92-1-.7-3-1-4.58a13.59,13.59,0,0,1,3,1.68c5.56,5.34,12.46,6.36,19.72,6.36l2.15,1.11-3,3-3,1.95v0l-9.15-4.72-1.08.81,4.25,8.92,2.92,3.08Q126.64,256.81,126.69,257.27Z"/><path class="j" d="M51.9,255.35l-0.22,1-1.27-.41Z"/><path class="k" d="M148.69,239.29l-2-1,1-4c3.68-2.57,7.35-2.6,11,0l-5,3Z"/><path class="k" d="M138.66,229.32l7-1,3.07,2.26c-1.56,1.12-2.83,2-4.09,3a0.52,0.52,0,0,0,.1.45,6,6,0,0,0,.92.32l-7,2.22-0.48-1.25,3.49-2.15Z"/><path class="k" d="M135.7,243.27l-2.15-1.11,4.12-.86Z"/><path class="n" d="M47.65,272.33q-0.41,8-.82,15.95l-5-8Z"/><path class="o" d="M14.8,290.95l1.75,1.23Z"/><path class="t" d="M14.69,280.28l-0.19.32,0.18-.33h0Z"/><path class="ab" d="M137.68,157.33c2.75,0.34,5.61.31,8.2,1.16,1.76,0.58,3.12,2.38,4.66,3.63a52,52,0,0,1-5.19,3.44c-0.76.39-1.94-.1-2.91,0-6.52.4-8.71-1.91-7.69-8.17Z"/><path class="ab" d="M133.73,144.34c0.74-1,1.36-2.59,2.26-2.77a80.94,80.94,0,0,1,8.93-.85l0.27,1.3-9.59,2.39Z"/><path class="g" d="M193.7,127.47c-0.87.33-1.3,1.82-1.92,2.78l-0.07,2,0,5-2.76,3c-0.37-2-1.21-4.09-1-6,0.25-2.21,3.41-4.49-.68-6.2,0.77-1.23,1.27-3.11,2.37-3.57a54.89,54.89,0,0,1,8.18-2.14"/><path class="e" d="M162.81,86.57L150,85.68c1.47-3.22,2.93-5.76,7.18-4.73,1,0.25,2.36-.58,3.54-0.92,1.56,0.78,3.16,1.51,4.68,2.35,4,2.23,8,4.52,12,6.78l-3.69,1.21-4.9-2.21-4.31-1.41Z"/><path class="d" d="M162.81,86.57l1.71,0.19,4.31,1.41,4.9,2.21-7.84,2-6.69-2.76Z"/><path class="d" d="M145.76,86.2l4.88,4.11C146.69,91.71,146.62,88.49,145.76,86.2Z"/><path class="i" d="M163.55,73.37l3.16-.13q0.47,0,.95.06c0.15,2.9-1.16,4.26-4.11,3.87Q163.54,75.27,163.55,73.37Z"/><path class="a" d="M176.64,242.06l-4,2.1-2.9,1.09-3-.22,3-9.75,2.54-2.35a29.19,29.19,0,0,0-3.26-1.24,25.07,25.07,0,0,0-3.28-.42l20.39-12.8-0.44,6.62-1,2.16h0l-3,7h0l-2,2-1.9,2.08Z"/><path class="h" d="M165.7,231.27a25.07,25.07,0,0,1,3.28.42,29.19,29.19,0,0,1,3.26,1.24l-2.54,2.35c-1.71,1.43-3.93,2.54-5,4.34-3.52,5.7-3.89,5.89-8.29,1.1-1-1.06-1.79-2.28-2.67-3.42l5-3Z"/><path class="k" d="M181.65,234.26l3-7Z"/><path class="k" d="M176.64,242.06l1.07-3.76,2,0,0,0-1.08,5.14Z"/><path class="k" d="M179.61,236.22l2-2-2,4,0,0Z"/><path class="k" d="M184.66,227.26l1-2.16Z"/><path class="s" d="M194.43,231l6.44-18.43,3.06-5.14,1.68,2.86-5,12.91-5.09,9.94Z"/><path class="z" d="M200.6,223.23l5-12.91,5-4.18,3.27,3.9-12.1,15.35Z"/><path class="v" d="M213.84,210l-3.27-3.9,0.17-2.29,5.85,2.55-1.4,3.64h-1.36Z"/><path class="n" d="M191.78,130.25c0.63-1,1.06-2.45,1.92-2.78"/><path class="ac" d="M195.57,244.17l7.78-15Z"/><path class="o" d="M216.55,220.27l-0.78.91Z"/><path class="m" d="M194.43,231l1.08,2.15q0.05,2,.11,4c-1.26,4.63-5.68,8.58-3.06,14.06l-5.71,2.07Z"/><path class="p" d="M195.62,237.22q-0.05-2-.11-4l5.09-9.94,1.14,2.16Z"/><path class="j" d="M153.7,237.3c0.89,1.15,1.69,2.36,2.67,3.42,4.4,4.79,4.77,4.6,8.29-1.1,1.11-1.8,3.33-2.91,5-4.34l-3,9.75-10,4.18-10.33,3.5L139.76,251c8.12-1.12,7.91-6.77,8.94-11.68Z"/><path class="o" d="M156.7,249.21l10-4.18,3,0.22a34.18,34.18,0,0,0-1.68,6c-0.1.94,1,2,1.63,3-2.81,2.82-2.81,2.82-4.76-3.3l-2.5,3.9c-2,3.08-2.27,3.1-4.12-.62A31.27,31.27,0,0,1,156.7,249.21Z"/><path class="k" d="M173.71,260.4c1.56,3.65.34,6.11-3,8.18s-6,4.49-9,6.77l2-11.15,2.57,4.73,4.43-8.5Z"/><path class="b" d="M170.76,260.43l-4.43,8.5-2.57-4.73,0,0-4.11-1.67-2.16-.53c2-.65,3.91-1.65,5.93-1.86A47.89,47.89,0,0,1,170.76,260.43Z"/><path class="p" d="M169.64,254.26c-0.58-1-1.73-2.09-1.63-3a34.18,34.18,0,0,1,1.68-6l2.9-1.09Z"/><path class="b" d="M154.63,268.22l-1.91,2.11-2.09-.05-1.39-2.64,5.21-2.65,0.18,3.23h0Z"/><path class="p" d="M177.16,246.05l-1.79,1.68-0.58-.52,1.47-1.91Z"/><path class="b" d="M157.43,262l-2,2Z"/><path class="s" d="M14.71,297.2l-0.78,2.65-1.18-.8,2-1.81Z"/><path class="f" d="M13.5,313.22l-0.65,5C9.35,316.08,12.33,314.77,13.5,313.22Z"/><path class="t" d="M3.66,312.25l0.21-.32-0.17.36Z"/><path class="k" d="M159.63,262.54l4.11,1.67Z"/><path class="k" d="M158.42,280.22l-1.15,2.12-2-.91Z"/><path class="n" d="M154.63,268.22l0.32,0.19-0.32-.19h0Z"/><path class="n" d="M163.59,280.23l-1,1.93Z"/><path class="f" d="M165,304.18a2.47,2.47,0,0,1,.87.2l-1.17,1.6Z"/><path class="x" d="M126.69,257.27q-0.05-.46-0.07-0.93l-2.92-3.07-4.25-8.92,1.08-.81,9.15,4.72a39.55,39.55,0,0,1,1.75,4C132.75,256.33,131.09,258.06,126.69,257.27Z"/><path class="k" d="M129.66,248.23l3-1.95Z"/><polygon class="n" points="138.8 243.57 138.8 243.97 138.4 243.77 138.8 243.57"/><path class="aa" d="M123.7,253.27l2.92,3.07Z"/><path class="f" d="M191.71,132.29l0.07-2"/><path class="i" d="M168.82,88.17l-4.31-1.41Z"/><path class="x" d="M179.61,236.22l0.06,2-2,0Z"/></svg>