<svg xmlns="http://www.w3.org/2000/svg" viewBox="0 0 296.23 501.16"><defs><style>.a{fill:#021732;}.b{fill:#d7dfe5;}.c{fill:#cfb5b1;}.d{fill:#032a5b;}.e{fill:#635b53;}.f{fill:#816664;}.g{fill:#9e807c;}.h{fill:#1f2425;}.i{fill:#1e2f12;}.j{fill:#063c33;}.k{fill:#5f9074;}.l{fill:#425f41;}.m{fill:#a46466;}.n{fill:#bcc498;}.o{fill:#707855;}.p{fill:#afb34d;}.q{fill:#9c2626;}.r{fill:#ac3c4a;}.s{fill:#8b953f;}.t{fill:#a3ba62;}.u{fill:#96b041;}.v{fill:#cb5363;}.w{fill:#9d556a;}.x{fill:#ca6d8f;}</style></defs><title>henry</title><path class="a" d="M930.4,588.38l2.28,2.65c1.46,3.92,3,7.82,4.36,11.77,2.29,6.65,4.46,13.33,6.68,20,0.28,9.07.57,18.15,0.82,27.22,0.06,2.31,0,4.62,0,6.93l-1.78.49L939,650.82c-0.38,1.31-1,2.24-.83,3.05a99.14,99.14,0,0,0,8.5,26.22,7,7,0,0,1,.25,2.42c-3.11-4.22-5.83-8.61-9.24-12.38-4-4.41-7.84-9.18-14.11-10.91-2.6-.72-4.92-2.46-7.39-3.7-0.69-.35-1.56-1-2.14-0.79-2.05.61-4,1.51-6,2.3,1,1.46,1.65,3.38,3,4.3,3.38,2.31,7.21,4,10.57,6.3a38.42,38.42,0,0,1,6.27,6c2.52,2.79,4.84,5.76,7.23,8.67a3.51,3.51,0,0,1,1.08,1.63c0,5.59,4.47,8.73,7.89,11.41s5.27,5.76,7.53,8.9c1.82,2.53.75,4.71-2.32,5.14s-3.81,2.33-3.29,5.44c1,5.81,1.42,11.71,1.85,17.59,0.37,5,.45,10,0.59,15,0.08,3,0,5.95,0,8.71-3,.32-5.5.46-8,0.9-2.15.39-3.26,1.66-1.72,3.77,1.39,1.91,3,3.67,4.48,5.52a4,4,0,0,1,1.06,1.6c0.3,2.24,1.17,2.64,3.13,1.46,0.43-.26,2.19.67,2.16,0.8-0.46,2.07-.49,4.9-1.86,5.94-1.77,1.34-4.43,3.09-7.1.59s-5.28-5.15-8.38-6.93c-4.59-2.65-8.48-6.54-13.86-7.86-2-.49-2.64.07-2.73,2a52.22,52.22,0,0,1-.65,6.61c-0.84,4.8,2.46,7.51,5.09,10.59,0.71,0.83,1.76,1.6,2,2.55,0.12,0.55-1.48,2.11-1.69,2a47,47,0,0,1-5-3.12c-0.72-.48-1.4-1-2.09-1.54-1.13-.85-2.27-1.7-3.38-2.58-0.86-.67-1.61-1.85-2.53-2-2.47-.35-4.31-1.1-4-4.56l-1.18.58a7.09,7.09,0,0,0-.1,2.3c0.94,3.14,2,6.26,3.07,9.35a9.4,9.4,0,0,0,1.71,2.84c2.22,2.59,4.76,4.93,6.71,7.7a8.86,8.86,0,0,1,1.06,5.19c0,0.42-2.39,1-3.69,1.07-4.52.18-9.18-.43-12.69,3.51a2.24,2.24,0,0,1-2.15.29c-2.87-1.95-6.09-3.66-8.31-6.22a151.55,151.55,0,0,1-11-14.8c-1.84-2.73-3-5.9-4.45-8.89a13.88,13.88,0,0,0-.62-1.88c-2.76-4-5.68-7.86-8.32-11.92-1-1.59-1.32-3.64-2.22-5.34-2.94-5.55-6.25-10.93-9-16.59-2-4.28-3.38-8.9-5-13.36s-3.37-8.65-4.82-13.06c-1-3-1.5-6.06-2.27-9.08-0.35-1.36-.43-3-1.27-4-3.06-3.53-2.39-7.27-1.26-11.19a12.16,12.16,0,0,0,.17-3.21c0-4.3-.48-8.7.29-12.86,0.38-2.06,3.11-3.68,4.74-5.47L834,664.48c0.13,6.36.13,6.36-3.36,7.07,0.5,2.4,1.13,4.77,1.44,7.18s-0.33,4.36-3.37,4.67c-2.25.23-2.76,1.88-2.46,3.94,0.95,6.52-3.77,12.12-10.26,12-4.21-.1-8.4-0.66-12.6-0.93-2.86-.18-5.61.21-8.44-1.49-2.17-1.31-5.77,1.47-7.2,3.67a7.24,7.24,0,0,1-4.4,2.67c-1.9.36-2.67,0.87-2.78,2.86-0.06,1.17-1,2.29-1.47,3.44a9.64,9.64,0,0,0-1.08,2.65c-0.76,7.47-4.36,9.21-10.89,5.42-1.91-1.11-4.31-1.34-6.36-2.26-1.26-.56-3-1.48-3.26-2.56-0.66-2.64-.42-5.49-0.9-8.19a4.79,4.79,0,0,0-2.1-2.95c-0.63-.36-1.93.44-2.92,0.72a23.42,23.42,0,0,1,1.51,3.08,14,14,0,0,1,1.13,5.05c0,0.6-2.37,1.64-3.42,1.41a5.36,5.36,0,0,1-3.49-2.62c-1.67-4.25-1.38-9.11,1-12.57a23,23,0,0,0,4-10.9c0.27-2.35,3.29-4.24,1.42-8.14-2.24,3-4.3,5.7-6.22,8.47s-3.82,5.91-5.79,8.83c-2.32,3.44-5.71,3.76-9.43,3.18a24.62,24.62,0,0,0-3.67-.13c-5.52,0-5.47,0-7.23-5.41-0.23-.71-1.25-1.16-1.9-1.74-0.27.73-.91,1.55-0.77,2.19,1.1,4.76,1.06,4.91-4.11,6.88l1.84,2.79-4.87,1.7c0.44-1.71.82-3.43,1.31-5.13,2.13-7.35,4.85-14.59,6.26-22.08a60.58,60.58,0,0,1,7-19.08c8.31-14.55,16.92-28.92,25.29-43.43,4.93-8.55,9.64-17.23,14.44-25.84a21.43,21.43,0,0,0,2.16,2.88c2.13,2.05,4.38,4,6.58,6l-0.71.72c-2.3,1.66-3.82,3.43-2.09,6.52a7.17,7.17,0,0,1,.29,6.3c-0.9,2.41-1,5.11-1.5,7.67-0.73,3.77-1.3,7.58-2.31,11.27-0.76,2.77,0,9.36,1.89,10a19.25,19.25,0,0,0,6.46,1c1,0,1.88-1.39,2.8-2.17,2.53-2.13,4.65-1.48,5.2,1.74a16.55,16.55,0,0,1-.13,3.72l7-2.2-1.16-2.73a1.27,1.27,0,0,0,.09-0.47c2.38,0.77,2.1,2.75,2.29,4.65,0.07,0.73,1,1.36,1.58,2,0.54-.69,1.53-1.38,1.53-2.07a41.3,41.3,0,0,0-.74-4.81,7.5,7.5,0,0,1,.09-3.12c0.1-.3,1.56-0.21,2.39-0.2,4.77,0.05,10,2,13.45-3.33a1.13,1.13,0,0,1,.43,0l5.33,9.67,0.62-5.9,0.48,0,0.24,3.29,3.93-5.57c4.89,0,5.38-.32,7.3-5.34l-0.11-3.77c0.51-3.21.87-6.45,1.6-9.61,0.38-1.65,1.62-3.32,3.6-2.09a2.63,2.63,0,0,0,4-.84,60.55,60.55,0,0,0,3.41-6.68l2.86-2.39,3.87-4.31L848,597.68l-7.11,1.45-4.8-1.56-2.67.13c-0.12-1.89.47-4.36-.5-5.58-3.28-4.13-4-8.1-1.09-12.59,3.49,1,5,.16,5.61-3.15a4.41,4.41,0,0,1,.89-1c3.94-2.26,3.94-2.25,1.74-5.77,1.46-.72,3,0.21,4,2.4,0.35,0.75.66,1.85,1.26,2.08,2.42,0.93,5,1.44,7.43,2.39a36.55,36.55,0,0,1,4.16,2.55c2.25,1.27,4.44,3.14,6.84,3.5,4,0.58,8.08.16,12.08,0.16,0.86,3.3-5.28,3.65-2.82,7.64,0.72-.39,1.53-0.56,1.78-1a6.07,6.07,0,0,1,4.87-3.45,4.85,4.85,0,0,0,1.94-1.23c3.3-2.56,6.58-5.16,9.89-7.7a5.77,5.77,0,0,1,1.53-.58,56.67,56.67,0,0,0,5.76-2.17c4.94-2.47,9.29-3.27,14.83,1.63,3.24,2.87,6.2,6.06,9.54,8.81,1.43,1.18,3.48,1.6,5.24,2.37h0Zm-42.13,50.15c2.23-1.33.86-2.36-.42-3.05-2.34-1.27-6.19-.09-8.19,2.33L879.14,639a25.13,25.13,0,0,0,5,1.43C885.68,640.5,888,641.41,888.27,638.53Zm-44.81-10-2-2,5.44-.75-0.51,1.56c1.77-.6,3.67-0.71,4.74-1.72,2.44-2.28,3.83-.49,5.38.91,0.64,0.58,1,1.52,1.66,2a13.08,13.08,0,0,0,2.61,1.23c-0.4-1.56-1.17-3.25-.84-3.5,1.13-.85,2.4-2.67,4.18-0.63,0.31,0.35,1.5-.08,2.28-0.15a31.68,31.68,0,0,0-7.8-4.13c-4.68-1.82-9.41-4.41-13.91.5a3.86,3.86,0,0,1-2.33,1.1c-2.73.23-2.43,1.67-1.57,3.44l0.69,7.36a18,18,0,0,0,1.77,4.06c1.1,1.44.94,2.1-.73,2.54l-2.3.59a11.07,11.07,0,0,0,.53,2.42,23.52,23.52,0,0,0,1.71,2.64,27.33,27.33,0,0,0,2.17-2.16c1-1.18,1.72-2.51,2.71-3.66,1.6-1.85,3.32-9.15,1.76-10.58C847.92,628.61,845.4,628.91,843.46,628.57ZM772.59,643c-7.61,9.45-11.39,20.12-13.85,31.77l42.61-3.57C793.57,660,782.35,652.34,772.59,643Zm54.57,11.7c1.05,0.73,1.84,1.3,2.65,1.83a17.8,17.8,0,0,0,2.83,1.72,2.39,2.39,0,0,0,2.05,0,2.47,2.47,0,0,0,.25-2.08C834,653.19,830.79,652.44,827.15,654.74Zm44.07-24-1.19,1,3.51,6.93c0.79-1.65,2.35-3.51,1.92-4.29C874.64,632.86,872.7,631.92,871.22,630.73Zm-35.44,7.57c3.26-2.81,2.49-5.81-1.56-8.54Zm-19.29,6.78-1.25-.39-0.53,2.84,0.69,0.21Z" transform="translate(-656.26 -303.7)"/><path class="b" d="M765.91,588.86c-4.81,8.62-9.51,17.3-14.44,25.84-8.37,14.51-17,28.89-25.29,43.43a60.58,60.58,0,0,0-7,19.08c-1.4,7.49-4.13,14.73-6.26,22.08-0.49,1.69-.88,3.42-1.31,5.13l0,0-2.79,8.86-1.25,4-4.92,16.66-1,3.59c-0.1-1.29-.27-2.58-0.3-3.87-0.19-8.61.31-17.27-2.38-25.65l-0.06-1.48-0.14-1.21,0.11-2a11,11,0,0,0,.38-2.2c-0.1-3.61-.27-7.22-0.42-10.83q-0.15-3.48-.3-7V681.9c0.3-5.17.61-10.34,0.84-15.52a3.12,3.12,0,0,0-1.23-.79L698,662.7c3.35-1.36,2.43-4.6,2.69-7,0.28-2.65-.67-5.42-0.8-8.15-0.06-1.2.94-2.47,0.83-3.65-0.47-4.94-1.17-9.85-1.79-14.77,0.37-6.6,2.91-12.54,5.17-18.65a253.08,253.08,0,0,0,8-26.48c2.77-11.09,6.38-22,9.82-32.9,0.73-2.32,2.25-4.4,3.45-6.57,2.45-4.41,5.79-8.47,4.63-14.13-0.55-2.64-.65-5.38-1-8.07l0.84-12,2.17,5.9c-0.45,6,2.41,10.79,5.58,15.48a17.26,17.26,0,0,0,1.06,3.41c2.4,4.34,3.35,4.77,7.4,2,9.37-6.48,18.53-13.26,27.82-19.86,5.34-3.79,10.94-7.25,16.1-11.26A204.47,204.47,0,0,0,806,492.25c4-3.82,4-7.2,1-11.53a2.46,2.46,0,0,1-.16-1l1.89,0.26c1.47,2.13,3.12,4.15,4.36,6.41,2.86,5.19,5.51,10.49,8.25,15.74,1,1.87,1.28,3.46-.32,5.41-5.64,6.88-11.25,13.8-16.51,21-5,6.85-9.63,14-14.25,20.79,4.27,3.83,7.7,3.28,10-.63,1.69,1.34,2.93,3,4.49,3.41,2.16,0.52,4.57-.1,6.85.07,1.08,0.08,2.78.59,3.06,1.33,2.51,6.49,8.31,7.21,13.93,8.32q0,4.88,0,9.75c-0.59.85-1.86,1.91-1.67,2.51,1.21,3.78-1.32,6.1-3,8.76q0-2.33,0-4.65l-0.76-.22-2.45,2.89-1.63.54c-0.6-5.34-1.86-6.16-6.94-4.52a8.15,8.15,0,0,0-.95.32,12.84,12.84,0,0,1-9.94.78c-3.42-1.16-6.93-2.06-10.4-3.07l-4.51.2-2.75-1.59-1.08,2.64-4.39.27,1.43-.83-6.71-3.41-4.5-2.74L767.23,571a1.8,1.8,0,0,0-.43-0.84,7.78,7.78,0,0,1-5.05-3.87c-0.74-1.3-2.35-.52-2.58,1.3-3.11-.39-6.23-0.68-9.31-1.19-2.84-.46-3.75.13-3.3,2.51L744,570.41c-0.58.55-1.65,1.1-1.65,1.66,0,4.12.16,8.24,0.28,12.36l0.79,5.72,0.67-.06-0.31-5.74,0.65-3.41,2.86,5.75c0.62-.78,2-1.75,1.93-2.56-0.32-3.11,1.29-4.75,3.7-6l7.76-2.43-0.27-.78L752.2,576l-1.6-4.18,2.64-.36,7.59,1.18,0.09,0.09,2.25,1L765,582l0.34,1.64-0.64.59-1.27-.45,0.59,1,2,3.6A0.48,0.48,0,0,0,765.91,588.86Zm-65.53,93.05L699.9,683l0.36,0.1c0-.42,0-0.84.07-1.25h0ZM721,620.82l0.47,0H721l-2-8-0.85-.16L717,617a13.94,13.94,0,0,0-1.45,2.75c-0.58,2.09-.34,4.67-1.5,6.3-3,4.22-.22,7.31.88,11.11a5.22,5.22,0,0,0,1.25-.88c1.81-3.33,3.76-6.61,5.28-10.07,0.43-1-.39-2.5-0.63-3.77Zm42.42-70.16-6.72-1.07-0.31.7,10,9,2.57,2.08,4.23,7.72,3.64-8.47c1.46-1.56,1.2-5.66-.44-6.76a1.88,1.88,0,0,0-.49.38c-3.6,1.88-4.69-.26-5-3.89l-1.57,2-3.42-3.2ZM720.3,572.42c-0.63-3.81,3.29-3.29,5-4.86L725,566.4l-5.74.77,0.73,5.22L715,591.85l6.36-7.43c2.79-2,2.72-6.31-.16-8.93Zm14.86-26.79,3.85-5.2c-3.78-1.89-3.81-1.89-6.17,1.06Zm49.32,2.83c4.15,0.53,5-.3,5-5.19Zm-43.91,17.63c-6.11-2.9-10.77-2.63-10.54,2Z" transform="translate(-656.26 -303.7)"/><path class="a" d="M698,662.7l0.2,2.89c-0.12,3.36-.35,6.72-0.31,10.07a58.88,58.88,0,0,0,.7,6.24q0,0.71,0,1.41l-0.72,10.75c-0.91.83-2.42,1.54-2.62,2.52a45.63,45.63,0,0,0-.75,8.25c-0.06,2.95.2,5.89-3.39,7.17-0.5.18-.77,1-1.43,2a9.58,9.58,0,0,1-.62-2.33c0.24-6.78-2.31-12.87-4.47-19.09a11.39,11.39,0,0,1-.2-4.3,6.39,6.39,0,0,0-2.3-5.56c-0.84-.77-0.87-2.63-0.94-4a40,40,0,0,1,.34-4.93,44.41,44.41,0,0,0-5,3,3.64,3.64,0,0,0-1.33,2.59c0.3,4.18.83,8.35,1.34,12.51a2.14,2.14,0,0,0,.78,1.39c2.73,1.8,2.34,4.29,2.16,7.09-0.22,3.4-1.34,4.86-4.85,5.64-2.33.51-3.45,0.21-4.17-1.61-1.37-3.46-3.32-7-3.5-10.55a140.05,140.05,0,0,1,.62-21.41c0.72-7.12,4.18-14.17-1.11-21-1-1.31-.82-3.58-1.06-5.43-0.81-6.24-2.41-12.54-2.09-18.73,0.25-4.76-1-8.79-2.64-13.14-3.69,4.46-1.4,10.19-2.62,15.16l-1,.06-0.63-7.47q0-4-.06-8,0-1,0-2c1.16-8.05,2.12-16.15,3.55-24.15,1.23-6.9,2.71-13.8,6.63-19.83a20.67,20.67,0,0,1,1.92-2.21c4.6,0.68,8.14-1.25,11.28-4.4a9.58,9.58,0,0,1,2.83-1.53c1.37-.63,2.81-1.1,4.14-1.8,3.39-1.81,6.55-4.29,10.14-5.42,4.72-1.49,9.67-2.13,13.66-5.48,2.3-1.93,4.85-3.55,7.13-5.5a12.81,12.81,0,0,0,2-3.08c-1.22-.22-2.53-0.83-3.63-0.57-3,.72-5.87,1.81-8.8,2.75l0.66-1.35c1.68-.83,3.33-2.28,5-2.38,5.76-.32,7.79-4.62,10.53-8.56,1.53-2.2,2.21-5.55,5.71-6,0.31,2.69.42,5.43,1,8.07,1.17,5.65-2.17,9.72-4.63,14.13-1.2,2.17-2.72,4.25-3.45,6.57-3.44,10.92-7.05,21.81-9.82,32.9a253.08,253.08,0,0,1-8,26.48c-2.25,6.11-4.8,12-5.17,18.65a2.79,2.79,0,0,0-1,1c0,1.76.34,3.51,0.34,5.27,0,7,0,14.08-.08,21.12C698.15,658.59,698.06,660.64,698,662.7Z" transform="translate(-656.26 -303.7)"/><path class="c" d="M696.55,400.12l-0.46-2.3L696,396.6l-0.05-.8-0.26-8.63a74.14,74.14,0,0,0,1.17-9c0.07-5.85-.28-11.7-0.39-17.55a9.89,9.89,0,0,1,.58-2.59c0.81-3,1.63-6,2.44-9.07l0.09-.09c1.6-.19,2.35-0.81,1.24-2.4l6.88-3.24a2.7,2.7,0,0,0,1,1c3.17-.28,6.35-0.51,9.47-1.09,1.28-.24,2.41-1.27,3.6-1.95l3.35-.8a20.73,20.73,0,0,0,4.74.52c3.41-.4,6.74-1.37,9.63,1.63a3.69,3.69,0,0,0,3.11.89c4.89-1.58,10.22,1.78,15-1.47a13.85,13.85,0,0,1,4.61-1.58c2.67-.63,5.76-2.17,8-1.4,4,1.39,6.74-.07,8.88-2.58,3.22-3.77,6.88-4.68,11.69-3.05V329.6l1.74-.35c1,1.76,1.85,3.55,2.91,5.24a6.17,6.17,0,0,0,1.74,1.3l0.76,0.69c0,2.63-.73,5.42,1.76,7.46-1.28,4.48,1.82,7.92,2.82,11.86l1.53,2.63c-1.53,2.85-.86,5.65-0.08,8.56,0.51,1.88.33,3.95,0.72,5.88,0.44,2.17,1.18,4.27,1.78,6.41,0.33,3.61.42,7.26,1,10.82,0.59,3.34-.57,5.26-3.62,6.31l-1.87.2-11.25-2.47c-4.12-2.27-8.62-2.86-13.21-2.87a14.9,14.9,0,0,0-3.61.91l-6.67.46-2.2.36-1.11.25a1.81,1.81,0,0,0-.71-0.56c-4.64,1.38-9.88,1.63-12.65,6.59l-2.13,0a17.55,17.55,0,0,0-3.38-1.89c-4.49-1.35-9-2.53-13.55-3.78l-1-.22a3.27,3.27,0,0,0-1.33-.78c-4.07.16-8.23,0-12.18,0.77-2.77.55-5.26,2.45-7.88,3.75L697.88,400Zm30.89-55.34c-1.83.51-3.88,0.74-5.57,1.64a31.85,31.85,0,0,0-6.23,4.53c-0.42.38,0.15,2.81,0.4,2.83,2.83,0.25,3.52,2.92,5.28,4.28,4.91,3.8,10.35,6,16.69,3.55a6.23,6.23,0,0,1,1.89.05c1.77,0,3.55-.05,5.32-0.18a14.87,14.87,0,0,0,3.78-.55c3-1,5.55,1.78,8.83.46,2.59-1,5.7-3.43,8.85-.38,0.5,0.49,2.14,0,3.18-.31a94,94,0,0,0,9.05-3c2.59-1.08,5.91-2,7.29-4,2.14-3.2,3.24-7.23,4.13-11.07,0.63-2.74-1.48-4.17-4.17-3.28-3.09,1-6.51,1.33-8.77,4.22a3.44,3.44,0,0,1-2.59,1.29c-4.22-.63-8.18-0.8-12.27,1.22a43.09,43.09,0,0,1-11.14,3.56c-3.16.59-7.57,1.52-9.55-.06C737.42,346,732.34,346.39,727.44,344.78Z" transform="translate(-656.26 -303.7)"/><path class="d" d="M828.58,561.83c-5.62-1.11-11.42-1.83-13.93-8.32-0.29-.75-2-1.26-3.06-1.33-2.28-.17-4.69.45-6.85-0.07-1.56-.38-2.8-2.07-4.49-3.41-2.33,3.92-5.76,4.47-10,.63,4.62-6.77,9.21-13.94,14.25-20.79,5.27-7.17,10.87-14.09,16.51-21,1.6-2,1.35-3.54.32-5.41l5-.82c-1.49-4.49-1.28-4.85,2.77-5.6l0.7,0.74c4.11,10,8.55,19.79,18.1,26,4,4.88,10.46,5.62,15.28,9.11L872,537.2l15.28,10.35c2.69,2.35,5.28,4.82,8.09,7,4.68,3.64,9.51,7.11,14.27,10.64l5.56,4.66,7,7,4.82,7.49,1.3,2.65c-1.77-.77-3.81-1.19-5.24-2.37-3.33-2.75-6.29-5.94-9.54-8.81-5.55-4.9-9.89-4.1-14.83-1.63a56.67,56.67,0,0,1-5.76,2.17,5.77,5.77,0,0,0-1.53.58c-3.31,2.54-6.59,5.14-9.89,7.7a4.85,4.85,0,0,1-1.94,1.23,6.07,6.07,0,0,0-4.87,3.45c-0.25.46-1.06,0.63-1.78,1-2.46-4,3.68-4.34,2.82-7.64-4,0-8.12.43-12.08-.16-2.4-.35-4.6-2.23-6.84-3.5a36.55,36.55,0,0,0-4.16-2.55c-2.41-1-5-1.46-7.43-2.39-0.6-.23-0.92-1.33-1.26-2.08-1-2.19-2.52-3.13-4-2.4l-1.88,0H833.7l-0.4-1.17,4.84-2.28,0-.55h-5l-3.16-.39Zm2.25-2c2-.56,3.67-0.72,5-1.42,3.83-2,7.55-4.2,11.29-6.37a1.88,1.88,0,0,0,.9-1.22c0-.71-0.17-2-0.43-2.07a5.56,5.56,0,0,0-3.35.19c-3,1.78-5.68,4.64-8.91,5.56C832.45,555.35,831.84,556.9,830.82,559.86Z" transform="translate(-656.26 -303.7)"/><path class="e" d="M810.79,359.78c-0.33,2.79.07,5.75-1.08,7.85-3.58,6.54.87,10.94,3.31,16.73,0.66-1.42,1.26-2.11,1.24-2.78-0.14-5.46-.64-10.93-0.51-16.38A5.36,5.36,0,0,0,810.79,359.78Zm-1.31-7,0.93-.78-4.49-5.75C805.22,351.38,805.92,352.36,809.47,352.77Z" transform="translate(-656.26 -303.7)"/><path class="c" d="M806.8,479.75a2.46,2.46,0,0,0,.16,1c3,4.33,3,7.71-1,11.53a204.47,204.47,0,0,1-15.9,13.67c-5.16,4-10.76,7.47-16.1,11.26-9.29,6.6-18.45,13.38-27.82,19.86-4.05,2.8-5,2.37-7.4-2a17.44,17.44,0,0,1-1.06-3.4L734.09,521c2.29-.15,2-1.72,1.62-3.15-0.59-2.44-1.31-4.84-2.13-7.83a11.42,11.42,0,0,1,3.19.39c2.85,1.32,5.54,3,8.45,4.21s6.44,1.35,8.92,3.07c3.72,2.58,7.07,1.11,9.64-.67,3.65-2.52,6.6-6.11,9.59-9.47,3.23-3.64,5.62-8.21,9.34-11.17a50.31,50.31,0,0,0,10.57-12.17c3-4.49,5.67-9.16,8.74-13.57,2-2.87,3.27-5.75,2.53-9.28l0.16-1.28,0.53-1.38,1.74-7.4Z" transform="translate(-656.26 -303.7)"/><path class="f" d="M804.71,460l-0.16,1.29c-2.11,2.74-4,5.65-6.37,8.17-3.36,3.63-7.16,6.85-10.48,10.51-1.22,1.35-1.29,3.72-2.47,5.14-2.15,2.59-4.74,4.82-7.11,7.22a3.19,3.19,0,0,0-1.13,1.58c-0.17,4.54-3.19,6.43-6.89,7.89a12.76,12.76,0,0,0-4.3,2.49c-5.48,5.42-12,3.17-17.44,1.25s-10.39-6.33-15.71-9.33c-2.34-1.32-5.13-1.84-7.71-2.72l-5.22-14.17c2.16,1.82,4.21,3.8,6.51,5.43a74,74,0,0,0,6.6,3.78c0.54,3.28,2.95,4.59,5.75,5.51,1.2,3.82,4.7,3.93,7.73,4.71s6.06,1.22,9,2.13c3.52,1.08,10.44-.74,12.55-3.57l0.23,0h0.24l2.82-1.36a1.11,1.11,0,0,1,.06-0.51l1.32-1.43,1.28-2c3.68-1.52,4.71-3.63,3.29-8.3L774,488.28l-1.9-.71-2.24-.24,0-1.94a2.39,2.39,0,0,1,.6-0.28c2.83,0.69,5.55-3.29,4.8-7l0.54-2.08c3.35-1.24,3.91-2.69,1.83-4.71l0.9-5.27c1.73,0.17,3.37.25,3.57-2.18a1.77,1.77,0,0,1,.93-1.25c3.92-1.5,3.56-5,3.93-8.16q0-.88-0.05-1.76l2.07-2.23a19.17,19.17,0,0,0-2.72-2.09,9.32,9.32,0,0,0-2.59-.54L781.53,443c1.09-.16,2.67-0.87,3.18-0.4,2.24,2.06,3.79.59,5.87-.27,1.59-.66,3.75.05,5.65,0.15q-0.8,2.51-1.59,5c-0.06.2-.08,0.41,0,0.15l1.88,3.8,2.47,0.3,0.28,5.12,4.65-4.88-1.79-5.61,5.19,3.56L807,451.25l-1.74,7.4Zm-17.57,2.35c-0.49,3.21-1.15,6.89-1.5,10.6,0,0.44,1.74,1.61,2.47,1.45,3.29-.69,8.32-7.38,8.89-12.18l-7.83,4.12Z" transform="translate(-656.26 -303.7)"/><path class="e" d="M792.53,329.26l-1.74.34c-0.72-1.28-.56-4-3.45-2.14l-2.07-2.83-0.5.21,0.5,3.75c-3,2.1-6,4.11-9,6.21s-6.44,1.52-7.45-1.23a41.61,41.61,0,0,0,4-2.42,4.8,4.8,0,0,0,.88-1.91l0.55-.47L776,331c2.13-3.47.32-7.52-6.88-15.73l4.69-.28-0.41-1.87,0.13-.41-0.42.12-3.35-1L759.88,309h0l-1.33-.73,0,0-0.69-.69h0a9,9,0,0,0,2.44-.1,12.83,12.83,0,0,0,2.42-1.36L774,309.64h0l5.24,0.11,0.25-.25c1.29,0.57,2.88.84,3.81,1.78,4.36,4.36,9.08,8.58,9.44,15.42Z" transform="translate(-656.26 -303.7)"/><path class="g" d="M807.29,450l-5.19-3.56,1.79,5.61-4.65,4.88L799,451.79l-2.47-.3-1.88-3.8c-0.05.26,0,0,0-.15q0.79-2.52,1.59-5c-1.9-.1-4.06-0.81-5.65-0.15-2.08.86-3.63,2.33-5.87,0.27-0.51-.47-2.09.24-3.17,0.4l-1-1.28a3.49,3.49,0,0,1,1.17-.89c3.51-.62,7.06-1,10.54-1.78,1.19-.25,2.19-1.67,3.34-1.77,3.9-.31,4.58-3.34,5.51-6.1,1.86-5.48,3.55-11,5.33-16.53a23.62,23.62,0,0,1,1.2-2.44l2.75,13.48c-2.77,2.61-1,6.43-1.37,9.88l-1.55,2.27-0.35,0,0.16,0.21,0.37,2.25Z" transform="translate(-656.26 -303.7)"/><path class="g" d="M768.84,333.56c1,2.74,4.57,3.29,7.45,1.23s5.94-4.11,9-6.21l-0.5-3.75,0.5-.21,2.07,2.83c2.89-1.85,2.73.87,3.45,2.14,0,1.1,0,2.2,0,3.68-4.81-1.63-8.48-.71-11.69,3.05-2.14,2.51-4.87,4-8.88,2.58-2.24-.78-5.32.77-8,1.4a13.85,13.85,0,0,0-4.61,1.58c-4.76,3.25-10.08-.11-15,1.47a3.69,3.69,0,0,1-3.11-.89c-2.88-3-6.22-2-9.63-1.63a20.75,20.75,0,0,1-4.74-.52,11.75,11.75,0,0,1,2.78-1.27c3.54-.6,7.11-1,10.66-1.53h0c1,4.65,4.33.53,6.13,2.24l0.58-2.94,0.67,0.67,1.1,2.79,4.19-1.51,1.53,2.17,3.42-2.91,4.72,0.69,0.41-3.74c2.35,2.92,5.47,1.89,7.23-2Q768.73,333.26,768.84,333.56Z" transform="translate(-656.26 -303.7)"/><path class="e" d="M768.63,333c-1.76,3.92-4.87,5-7.23,2L761,338.72l-4.72-.69-3.42,2.91-1.53-2.17-4.19,1.51-1.1-2.79c-0.26-1.8-.17-3.75-0.84-5.38-2.58-6.23-7.2-10.73-12.87-14.23a4.74,4.74,0,0,1,.35-0.37c5.27,1.46,9.41,4.32,11.84,9.39,0.94,2,2,3.86,2.95,5.79l1-.41-3.91-9.94h0a33.59,33.59,0,0,1,3.63,3.89,44.32,44.32,0,0,1,2.71,5.4l3.39-2.64,2.29,3.33,0.7-1.2,4.26,0.85V328.8l0.87-.36,3.4,5.06,1.09-2.9Z" transform="translate(-656.26 -303.7)"/><path class="e" d="M758.38,309.08a7.65,7.65,0,0,1-2.13.23A147.23,147.23,0,0,0,739.5,307c11.52,2.91,23.65,4.39,30.63,16.39a4.3,4.3,0,0,1-1.51.19c-2.36-3.72-6.52-5-9.86-7.32-9.46-6.7-19.9-8.43-31.06-6.33-4.75.89-4.7,1.13-7.48-.11,4.15-1.36,7.61-2.58,11.12-3.61a57.41,57.41,0,0,1,6.85-1.49c1.91-.31,3.86-0.42,5.79-0.54a59.21,59.21,0,0,1,8.53-.36c2.47,0.2,4.89,1.15,7.33,1.76l-4.87.77,0,0.69,3,0.64h0l0.69,0.69,0,0ZM728,308.6l0.25,0.1,0-.11H728Z" transform="translate(-656.26 -303.7)"/><path class="a" d="M829.07,495.74c-4.05.75-4.26,1.12-2.77,5.6l-5,.82c-2.74-5.25-5.39-10.55-8.25-15.74-1.24-2.25-2.89-4.28-4.36-6.41,3.85-.08,4.85,3.33,5.93,5.71,1.8,4,3.64,6.74,8.6,6.79C825.18,492.54,827.12,494.6,829.07,495.74Z" transform="translate(-656.26 -303.7)"/><path class="a" d="M699,708c2.69,8.37,2.19,17,2.38,25.65,0,1.29.2,2.58,0.3,3.87l-2,8.89-1,.15c-0.35-.71-1-1.44-1-2.14a123.62,123.62,0,0,1,.8-13c1-6.85-1-13.53-.66-20.3A10.71,10.71,0,0,1,699,708Z" transform="translate(-656.26 -303.7)"/><path class="e" d="M699.52,348.92c-0.82,3-1.64,6-2.44,9.07a9.89,9.89,0,0,0-.58,2.59c0.1,5.85.45,11.7,0.39,17.55a74.14,74.14,0,0,1-1.17,9,5.51,5.51,0,0,1-.75-1.76c-0.28-7.65-.8-15.3-0.61-22.94,0.09-3.68,1.37-7.38,2.44-11C697.1,350.46,698.58,349.77,699.52,348.92Z" transform="translate(-656.26 -303.7)"/><path class="e" d="M738.62,337.53c-3.56.5-7.12,0.93-10.66,1.53a11.75,11.75,0,0,0-2.78,1.27l-3.35.8-3.38-1.07,1.67-4.23,1.72,1.19,0.14,0.3-0.16-.27v-2.32l5.36,2.3,0,0,0.53-2.63,6.82,1.79,2.14-1.39Z" transform="translate(-656.26 -303.7)"/><path class="a" d="M847.87,522.5c-9.55-6.23-14-16-18.1-26,3.52,0.88,3.12,4.43,4.61,6.69,0.88,1.33,1.9,2.56,2.88,3.81a4.18,4.18,0,0,1,.78.57c1,6,6.29,8.78,9.56,13.07A4.28,4.28,0,0,1,847.87,522.5Z" transform="translate(-656.26 -303.7)"/><path class="e" d="M745.36,336.82l-0.58,2.94c-1.8-1.71-5.18,2.41-6.13-2.24-0.25-1.28-.17-2.76-0.8-3.8-1.41-2.3-3.18-4.39-4.81-6.56q0.19-.19.39-0.36l9.12,8.47-3.49-7.49,0.42-.34Zm-2.38-.55-0.2,0,0.09,0.23Z" transform="translate(-656.26 -303.7)"/><path class="a" d="M702.66,733.95l4.92-16.66c0.63,0.55,1.87,1.19,1.79,1.62-0.44,2.67-1.21,5.29-1.8,7.94-0.42,1.91-.75,3.84-1.1,5.76-0.25,1.36-.49,2.72-0.74,4.08l-1,0Z" transform="translate(-656.26 -303.7)"/><path class="g" d="M759.88,309l9.91,2.82,3.35,1,0.3,0.29,0.41,1.87-4.69.28c-2.43-1.35-4.9-2.63-7.26-4.09A11.07,11.07,0,0,1,759.88,309Z" transform="translate(-656.26 -303.7)"/><path class="g" d="M718.44,340.06l3.38,1.07c-1.2.67-2.32,1.71-3.6,1.95-3.12.58-6.3,0.81-9.47,1.09a2.7,2.7,0,0,1-1-1C710.68,340,714.93,341.32,718.44,340.06Z" transform="translate(-656.26 -303.7)"/><path class="e" d="M697.86,694.06l0.72-10.75q0.15,3.48.3,7c0.15,3.61.32,7.22,0.42,10.83a11,11,0,0,1-.38,2.2l-1-1.14q0-.46,0-0.92Z" transform="translate(-656.26 -303.7)"/><path class="g" d="M792.53,329.26l0.15-2.57,6.13,3.61c-2.52,1.25-2,3.38-1.61,5.5a6.17,6.17,0,0,1-1.75-1.3C794.38,332.81,793.49,331,792.53,329.26Z" transform="translate(-656.26 -303.7)"/><path class="f" d="M807.45,437.88l1.54-2.26v0.22l1.34,1.15h3.57l1.39-.53a0.64,0.64,0,0,1,.48-0.25l0.94,0.36-4.79,3.51-4.28.21-0.37-2.24Z" transform="translate(-656.26 -303.7)"/><path class="a" d="M698.43,788.14a2.31,2.31,0,0,1,.24,1.76,1.46,1.46,0,0,1-1.31.56" transform="translate(-656.26 -303.7)"/><path class="a" d="M872,537.2l-8.87-5.59c3-1.25,3.95,2.32,6.3,2.85C870.46,534.69,871.18,536.25,872,537.2Z" transform="translate(-656.26 -303.7)"/><path class="a" d="M922.24,576.88l-7-7C918.36,570.29,922.43,574.36,922.24,576.88Z" transform="translate(-656.26 -303.7)"/><path class="a" d="M708.83,713.32l2.79-8.86c0.07,2.18.08,4.37,0.21,6.55S710.91,713.94,708.83,713.32Z" transform="translate(-656.26 -303.7)"/><path class="e" d="M738.62,316.18L725,312.86c5.06-1,9.51.62,13.93,2.38Z" transform="translate(-656.26 -303.7)"/><path class="e" d="M723.38,314.26l-9.93-.67C717.42,311,721.08,311.16,723.38,314.26Z" transform="translate(-656.26 -303.7)"/><path class="g" d="M757.91,307.64l-3-.64,0-.69,4.87-.77,2.94,0.64a12.81,12.81,0,0,1-2.42,1.36A9,9,0,0,1,757.91,307.64Z" transform="translate(-656.26 -303.7)"/><path class="e" d="M732.32,317.89L727.76,316l0.43-.95c1.88-.06,3.87-0.37,4.48,2.44A4.76,4.76,0,0,0,732.32,317.89Z" transform="translate(-656.26 -303.7)"/><path class="e" d="M728.25,323.23l-2.83-1.17,0.42-.91,2.8,1.71Z" transform="translate(-656.26 -303.7)"/><path class="e" d="M700.84,346.44c1.11,1.59.36,2.21-1.24,2.4Z" transform="translate(-656.26 -303.7)"/><path class="a" d="M928.36,587l-1.3-2.65,2.55,2.55-1.26.1h0Z" transform="translate(-656.26 -303.7)"/><path class="e" d="M728.64,322.85l1.88,1.23-0.59.75-1.69-1.61Z" transform="translate(-656.26 -303.7)"/><path class="e" d="M733,327.17l-1.85-1.4,0.65-.77,1.58,1.81C733.29,326.93,733.16,327,733,327.17Z" transform="translate(-656.26 -303.7)"/><path class="e" d="M774,309.64l0.45-1.53,0.79,0.37-1.26,1.15h0Z" transform="translate(-656.26 -303.7)"/><path class="d" d="M928.35,587l1.26-.1,0.78,1.45Z" transform="translate(-656.26 -303.7)"/><path class="e" d="M736.83,325.82l0.22-.52a1.06,1.06,0,0,1,.5.25,1,1,0,0,1-.19.51Z" transform="translate(-656.26 -303.7)"/><path class="a" d="M698,701.22q0,0.46,0,.92l-1.09-.79Z" transform="translate(-656.26 -303.7)"/><path class="a" d="M698.81,705.32l0.14,1.21-1.27-.67Z" transform="translate(-656.26 -303.7)"/><path class="g" d="M758.38,309.08l0.19-.79L759.9,309Z" transform="translate(-656.26 -303.7)"/><path class="e" d="M739.06,327.8l-0.18-1,0.6,0.69Z" transform="translate(-656.26 -303.7)"/><path class="e" d="M769.43,324.84c0.14,0.27.29,0.53,0.41,0.8a0.8,0.8,0,0,1-.21.22l-0.46-.75Z" transform="translate(-656.26 -303.7)"/><polygon class="e" points="67.42 16.97 67.68 16.89 67.64 17.12 67.42 16.97"/><path class="e" d="M773.71,329.23l-0.23-1.09,0.78,0.62Z" transform="translate(-656.26 -303.7)"/><polygon class="e" points="116.81 23 116.64 23.06 116.67 22.89 116.81 23"/><path class="e" d="M696,395.8l0.05,0.8Z" transform="translate(-656.26 -303.7)"/><path class="e" d="M779.18,309.74l-0.18-.41,0.42,0.16Z" transform="translate(-656.26 -303.7)"/><path class="e" d="M763.08,319.85l-0.18-.52,0.51,0.19Z" transform="translate(-656.26 -303.7)"/><path class="e" d="M763.42,319.52l0.15,0.48-0.48-.14Z" transform="translate(-656.26 -303.7)"/><path class="e" d="M744.54,322.34l-0.26-.16,0.27,0.15h0Z" transform="translate(-656.26 -303.7)"/><path class="e" d="M769.17,325.1l-0.18-.42,0.44,0.16Z" transform="translate(-656.26 -303.7)"/><path class="h" d="M790.38,639.52l1.16,2.73-7,2.2a16.55,16.55,0,0,0,.13-3.72c-0.55-3.22-2.67-3.87-5.2-1.74-0.92.78-1.85,2.15-2.8,2.17a19.25,19.25,0,0,1-6.46-1c-1.86-.62-2.65-7.21-1.89-10,1-3.69,1.58-7.5,2.31-11.27,0.5-2.56.61-5.26,1.5-7.67a7.17,7.17,0,0,0-.29-6.3c-1.73-3.09-.21-4.86,2.09-6.52,3.18,4.76,3.4,9.74,1.38,15a19.21,19.21,0,0,0-.8,5.39c-0.09,1.27.45,2.64,0.14,3.81-1,3.84-2.26,7.63-3.46,11.42-0.68,2.15-.7,3.72,2.23,3.83a13.93,13.93,0,0,1,3.37,1,33.68,33.68,0,0,0,1.64-4.56c0.17-.82-0.06-2.4-0.53-2.59-3.42-1.37-1.56-3.6-1-5.52,0.77-2.62,1.75-5.17,2.62-7.75,0.2-.61.29-1.25,0.48-1.86,0.41-1.35.85-2.68,1.27-4l-0.84-.32c0.7-2.24,6.22-1.56,3.55-5.85,2.28-1.54,2.14-3.16.14-4.82l8.51,0.77c1.1,0.45,2.2.91,3.31,1.35s2.23,0.85,3.35,1.27L796,607.11l5.31,1.33-5,1.73a3.63,3.63,0,0,0,2.93.86c1.77-.29,2.85,0,2.77,2.06l0,0c-0.35,1.18-1.16,2.48-.89,3.48,0.16,0.6,2,.73,3.14,1.07,2.44-.5,4.91-1,5.74-3.86,3.41-.18,7.88,2.21,8.91-3.7l1.52,0.2,0.88-.13-0.64-.46v-1.25l7.59-.63c1.84-1.1,4-3.36,5.4-3,1.65,0.45,2.67,3.22,4.16,5.25,0.51-4.34,2.93-6.51,6.91-7.07l-2.86,2.39a60.55,60.55,0,0,1-3.41,6.68,2.63,2.63,0,0,1-4,.84c-2-1.23-3.21.44-3.6,2.09-0.73,3.16-1.09,6.4-1.6,9.61l-0.51-.07-0.89-1.08-1.69,2.36V626l-5.42-.84-0.17-.15,0.15,0.17a39.6,39.6,0,0,1,1.28,4.55,26.25,26.25,0,0,1,.07,4.08l-3.93,5.57L817.91,636l-0.48,0-0.62,5.9-5.33-9.67a1.13,1.13,0,0,0-.43,0c-3.44,5.35-8.67,3.38-13.45,3.33-0.84,0-2.3-.1-2.39.2a7.5,7.5,0,0,0-.09,3.12,41.3,41.3,0,0,1,.74,4.81c0,0.69-1,1.38-1.53,2.07-0.55-.68-1.51-1.32-1.58-2-0.2-1.9.09-3.88-2.29-4.65l-1.73-6.12-4.66,5Zm-2.7-35.5-0.37.81c0.8,1.5,1.59,3,2.41,4.5,0.36,0.65.8,1.25,1.21,1.87,0.65-.49,1.72-0.89,1.87-1.5,0.3-1.2.59-3.21,0-3.67C791.37,605,789.42,604.64,787.68,604Z" transform="translate(-656.26 -303.7)"/><path class="b" d="M772.59,643c9.76,9.3,21,17,28.76,28.2l-42.61,3.57C761.2,663.16,765,652.49,772.59,643Z" transform="translate(-656.26 -303.7)"/><path class="i" d="M804.26,617.67c-1.1-.34-3-0.47-3.14-1.07-0.27-1,.54-2.31.89-3.48l0.18,0.15-0.14-.18c0.08-2-1-2.34-2.77-2.06a3.63,3.63,0,0,1-2.93-.86l5-1.73,0,0,2.65,0.77c2.15-3.41,4.14-6.44,6-9.55a10.4,10.4,0,0,0,.73-2.78l1.31-1.18,7.17-4.23c0.91,3.31-1,5.31-3.88,7.16,1,0.23,1.48.55,1.75,0.4,4.55-2.48,9-2,13.59,0,0.6,0.27,1.8-.83,2.72-1.3l2.67-.13a16.31,16.31,0,0,0,1.6,2.81,13.45,13.45,0,0,0,2.4,1.83l0.81-3.08,7.11-1.45,0.61,1.06-3.87,4.31c-4,.55-6.4,2.73-6.91,7.07-1.49-2-2.51-4.8-4.16-5.25-1.42-.39-3.56,1.87-5.4,3l-7.59.63a2.47,2.47,0,0,0,.77-1c-0.21-1.81-.55-3.6-0.85-5.39-1.32.89-2.7,1.69-3.94,2.68a23.74,23.74,0,0,0-2.67,2.74c-0.55.61-1,1.31-1.52,2,1,0.14,1.91.32,2.87,0.42,1.19,0.12,2.39.18,3.58,0.26-1,5.9-5.5,3.52-8.91,3.7L807.52,611v2.56l-0.25.29C804.66,613.87,803.83,615.26,804.26,617.67Z" transform="translate(-656.26 -303.7)"/><path class="h" d="M833.41,597.71c-0.92.47-2.12,1.56-2.72,1.3-4.58-2-9-2.5-13.59,0-0.27.15-.8-0.17-1.75-0.4,2.85-1.86,4.79-3.85,3.88-7.16l0.1,0.07a20.55,20.55,0,0,0,4.21,2.49c0.82,0.26,2-.58,3-0.93-0.62-1-1-2.35-1.93-3.06s-2.21-.75-3.34-1.09l1.51-4.43,1.08-1.63c1.7-2.67,4.23-5,3-8.76-0.19-.6,1.08-1.66,1.67-2.51l3.41-2.73c-0.4,1.09-.5,2.53-1.26,3.18-1.72,1.45-1.51,2.8-1.15,3.65l6-4.52c-0.9,1.72-2.1,3.35-2.59,5.18-0.34,1.27.55,2.15,1.85,0.73l2.6-.68c-0.58,3.31-2.12,4.19-5.61,3.15-2.91,4.49-2.19,8.46,1.09,12.59C833.88,593.36,833.29,595.82,833.41,597.71Z" transform="translate(-656.26 -303.7)"/><path class="j" d="M784,606.45c2.68,4.29-2.85,3.6-3.55,5.85l0.84,0.32c-0.43,1.34-.86,2.68-1.27,4-0.19.61-.28,1.26-0.48,1.86-0.87,2.59-1.85,5.14-2.62,7.75-0.56,1.92-2.42,4.14,1,5.52,0.47,0.19.7,1.76,0.53,2.59a33.68,33.68,0,0,1-1.64,4.56,13.93,13.93,0,0,0-3.37-1c-2.93-.11-2.92-1.68-2.23-3.83,1.21-3.79,2.45-7.57,3.46-11.42,0.31-1.18-.23-2.55-0.14-3.81a19.21,19.21,0,0,1,.8-5.39c2-5.3,1.8-10.27-1.38-15l0.71-.72,2.64,0,2.62,1.43q0,0.28.06,0.56a20,20,0,0,0,1.36,3.64A22.88,22.88,0,0,0,784,606.45Z" transform="translate(-656.26 -303.7)"/><path class="h" d="M840.83,626.52c-0.86-1.77-1.16-3.21,1.57-3.44a3.86,3.86,0,0,0,2.33-1.1c4.5-4.91,9.22-2.32,13.91-.5a31.68,31.68,0,0,1,7.8,4.13c-0.78.07-2,.5-2.28,0.15-1.79-2-3.06-.22-4.18.63-0.32.24,0.44,1.93,0.84,3.5a13.08,13.08,0,0,1-2.61-1.23c-0.67-.52-1-1.46-1.66-2-1.56-1.4-2.94-3.19-5.38-.91-1.07,1-3,1.12-4.74,1.72l0.51-1.56-5.44.75Z" transform="translate(-656.26 -303.7)"/><path class="h" d="M843.46,628.57c1.94,0.33,4.46,0,5.69,1.16,1.56,1.43-.16,8.73-1.76,10.58-1,1.15-1.75,2.48-2.71,3.66a27.33,27.33,0,0,1-2.17,2.16,23.52,23.52,0,0,1-1.71-2.64,11.07,11.07,0,0,1-.53-2.42l2.3-.59c1.66-.44,1.82-1.1.73-2.54a18,18,0,0,1-1.77-4.06l1.88,2.61C845.77,633.51,844.57,631,843.46,628.57Z" transform="translate(-656.26 -303.7)"/><path class="i" d="M822.08,633.77a26.25,26.25,0,0,0-.07-4.08,39.6,39.6,0,0,0-1.28-4.55l0,0,5.42,0.84-2.91,3.52,0.62,0.77,5.49-1.82C827.46,633.44,827,633.8,822.08,633.77Z" transform="translate(-656.26 -303.7)"/><path class="k" d="M827.15,654.74c3.64-2.3,6.87-1.56,7.78,1.44a2.47,2.47,0,0,1-.25,2.08,2.39,2.39,0,0,1-2.05,0,17.8,17.8,0,0,1-2.83-1.72C829,656,828.21,655.48,827.15,654.74Z" transform="translate(-656.26 -303.7)"/><path class="i" d="M837.43,576.4l-2.6.68c-1.8-2.27.4-2.81,1.6-3.9a12.23,12.23,0,0,0,1.63-2.35l0.13-1.13,1.88,0c2.2,3.52,2.2,3.51-1.74,5.77A4.41,4.41,0,0,0,837.43,576.4Z" transform="translate(-656.26 -303.7)"/><path class="k" d="M871.22,630.73c1.48,1.19,3.41,2.13,4.25,3.67,0.43,0.78-1.13,2.64-1.92,4.29L870,631.76Z" transform="translate(-656.26 -303.7)"/><path class="i" d="M879.66,637.8c2-2.42,5.85-3.61,8.19-2.33,1.28,0.7,2.64,1.72.42,3.05Z" transform="translate(-656.26 -303.7)"/><path class="i" d="M843.46,628.57c1.11,2.47,2.31,4.94-.06,7.92l-1.88-2.61-0.69-7.36,0.66,0.08Z" transform="translate(-656.26 -303.7)"/><path class="l" d="M790.38,639.52l-6.29-1.64,4.66-5,1.73,6.12A1.32,1.32,0,0,1,790.38,639.52Z" transform="translate(-656.26 -303.7)"/><path class="h" d="M777.28,597.72l-2.64,0c-2.2-2-4.45-3.91-6.58-6a21.43,21.43,0,0,1-2.16-2.88,0.48,0.48,0,0,1,.15-0.51l11.18,8Z" transform="translate(-656.26 -303.7)"/><path class="l" d="M835.79,638.3l-1.56-8.54C838.28,632.5,839,635.49,835.79,638.3Z" transform="translate(-656.26 -303.7)"/><path class="h" d="M879.66,637.8l8.61,0.72c-0.31,2.89-2.59,2-4.09,1.86a25.13,25.13,0,0,1-5-1.43Z" transform="translate(-656.26 -303.7)"/><path class="l" d="M829.38,628.42l-5.49,1.82-0.62-.77,2.91-3.52v-0.09l2.58-1.28,0.51,0.07Q829.32,626.54,829.38,628.42Z" transform="translate(-656.26 -303.7)"/><path class="l" d="M840.88,599.14l-0.81,3.08a13.45,13.45,0,0,1-2.4-1.83,16.31,16.31,0,0,1-1.6-2.81Z" transform="translate(-656.26 -303.7)"/><path class="h" d="M816.5,645.08l-1.08,2.66-0.69-.21,0.53-2.84Z" transform="translate(-656.26 -303.7)"/><path class="d" d="M694.12,546.86l13-6.26c2.93-.94,5.82-2,8.8-2.75,1.1-.26,2.41.35,3.63,0.57a12.81,12.81,0,0,1-2,3.08c-2.28,1.95-4.83,3.57-7.13,5.5-4,3.35-8.94,4-13.66,5.48-3.59,1.13-6.75,3.61-10.14,5.42-1.32.7-2.77,1.17-4.14,1.8a9.58,9.58,0,0,0-2.83,1.53c-3.14,3.15-6.69,5.07-11.28,4.4,1-4.67,5.78-5.36,8.61-8.11,1.32-1.28,3.43-1.76,5.18-2.59,2.38-1.27,4.84-2.4,7.11-3.85a36.9,36.9,0,0,0,4.2-3.6Z" transform="translate(-656.26 -303.7)"/><path class="g" d="M691.78,403.85l1.14,0.1a13.63,13.63,0,0,0,2.57,2.62c2.15,1.25,3.57,2.81,3.49,5.42-0.29,1.3-.65,2.58-0.87,3.89-1,5.88.09,11.43,3.8,16,2.65,3.3,6.1,5.95,9.13,8.95,4.74,4.69,13.72,4.64,16.65-1.09,2.48-4.85,8.4-4.48,10.13-9.45l0.77,0.57-0.93,3.75-1.79,2.76q0,0.26,0,.52a7.47,7.47,0,0,1-2.74,0c-2.34-1-3.1.05-3.29,2.16l0.06,1.46-3.13,2.68-1.58,1.89a0.75,0.75,0,0,1-.36.25c-1,.1-2.17-0.15-2.83.34-3.64,2.71-7,1.52-10.48-.33-3.23-1.73-6.48-3.39-9.73-5.08l-0.69-.63c-0.11-4.14-1.08-8-4.14-11-0.33-1.51-1.07-3.06-.9-4.51,0.47-4,.08-4.54-3.7-5.19a4.37,4.37,0,0,1-2.91-2.1c-0.36-.83.47-2.18,0.77-3.3,0.47,1.48-.61,4,2.36,3.84,2.72-.13,3.52-1.8,3.17-4.29a19.38,19.38,0,0,1-.06-2.32L691,407l0.67-3.12Z" transform="translate(-656.26 -303.7)"/><path class="h" d="M699,412c0.08-2.61-1.34-4.17-3.49-5.42a13.63,13.63,0,0,1-2.57-2.62,8.26,8.26,0,0,1,1.15-2.46,9.4,9.4,0,0,1,2.48-1.37l1.33-.09c-2.1,4.11-2.08,4.08,2.07,7.22a5,5,0,0,1,.9,2l0.53,2.56c0,0.22.07,0.44,0.12,0.66,2.86,13.06,4.61,12.77,14.26,14,5.48-.16,11-0.29,16.44-0.54,0.57,0,1.11-.78,1.66-1.2,7.15-2.73,7.9-9,8.59-15.36l0.13-3.47,0.21-1.33,2.29,1.77c-0.48-5.53,3.42-3.54,5.95-3.67,2.88-.15,2.32,2.23,2.63,3.76l-3.78,1.15-0.81-.13c-1.64-.17-3,0.06-3.06,2.14-1.77,4.35-3.33,8.8-5.36,13a10.53,10.53,0,0,1-9.93,6.23,116.84,116.84,0,0,1-16.49-.64C705.22,426.89,699.69,420.65,699,412Z" transform="translate(-656.26 -303.7)"/><path class="c" d="M691,407l4.71,4.71-4.13,1.45-1.24,1.25-0.11.08c-0.3,1.12-1.13,2.47-.77,3.3a4.37,4.37,0,0,0,2.91,2.1c3.79,0.65,4.17,1.23,3.7,5.19-0.17,1.45.57,3,.89,4.52l-0.29.69c-2.11,1.31-2.22,2.63,0,4l0.35,3c-2.15,1.07-3.91.47-5.53-1.17a12.69,12.69,0,0,0-2.36-1.52,0.71,0.71,0,0,1,0-.59l-0.56-2.14a4.81,4.81,0,0,0-.17-0.57l0.18-1.22a0.61,0.61,0,0,0,.12-0.29,3.46,3.46,0,0,0-.27-0.54l-1.32-7.9,0.57-7.37,2.1-6Z" transform="translate(-656.26 -303.7)"/><path class="m" d="M687.71,414l-0.57,7.37c-2.09-5.73-3.76-11.55-3.41-17.74,0-.84.79-1.64,1.2-2.45l1.39,1.43a1,1,0,0,1,0,.58l-0.66.67,0,0,0.64,4.14a4.22,4.22,0,0,0,0,.59Z" transform="translate(-656.26 -303.7)"/><path class="c" d="M686.32,402.58l-1.39-1.43c0.87-.93,1.58-2.22,2.65-2.66a3.44,3.44,0,0,1,3.19.57c0.6,0.77.26,2.28,0.33,3.47l-0.66.63Z" transform="translate(-656.26 -303.7)"/><path class="a" d="M693.51,547.47a36.9,36.9,0,0,1-4.2,3.6c-2.27,1.44-4.73,2.58-7.11,3.85Z" transform="translate(-656.26 -303.7)"/><path class="g" d="M690.43,403.15l0.66-.63,0.68,1.32-0.08.08Z" transform="translate(-656.26 -303.7)"/><path class="h" d="M656.3,611.82q0,1,0,2Q656.28,612.81,656.3,611.82Z" transform="translate(-656.26 -303.7)"/><path class="g" d="M688.46,429.24a3.46,3.46,0,0,1,.27.54,0.61,0.61,0,0,1-.12.29Z" transform="translate(-656.26 -303.7)"/><path class="g" d="M725.18,494.78l-0.24-1.27c2.58,0.88,5.37,1.41,7.71,2.72,5.32,3,10.08,7.36,15.71,9.33s12,4.17,17.44-1.25a12.76,12.76,0,0,1,4.3-2.49c3.7-1.46,6.72-3.35,6.89-7.89a3.19,3.19,0,0,1,1.13-1.58c2.38-2.4,5-4.63,7.11-7.22,1.18-1.42,1.25-3.79,2.47-5.14,3.32-3.66,7.12-6.88,10.48-10.51,2.34-2.52,4.26-5.43,6.37-8.17,0.74,3.53-.53,6.41-2.53,9.28-3.07,4.41-5.77,9.08-8.74,13.57a50.31,50.31,0,0,1-10.57,12.17c-3.72,3-6.11,7.53-9.34,11.17-3,3.37-5.95,7-9.59,9.47-2.57,1.77-5.92,3.25-9.64.67-2.48-1.72-6-1.87-8.92-3.07s-5.59-2.89-8.45-4.21a11.42,11.42,0,0,0-3.19-.39c0.82,3,1.54,5.4,2.13,7.83,0.35,1.43.67,3-1.62,3.15-0.36-1.46-.69-2.93-1.12-4.37a1.85,1.85,0,0,0-.88-0.41l-2.17-5.9-3-9.5-1.25-4.62Z" transform="translate(-656.26 -303.7)"/><path class="n" d="M790.81,574.91c3.47,1,7,1.92,10.4,3.07a12.84,12.84,0,0,0,9.94-.78,8.15,8.15,0,0,1,.95-0.32c5.08-1.64,6.34-.82,6.94,4.51-2.5,2.26-4.89,4.67-7.54,6.75a51,51,0,0,1-6,3.57L802,589.54l-1.38-3.15c-1.13-.93.14-4.78-3.39-2.79l-1.45,7.18-3.47,2.12-5.68.92-2.69.57-1.4-.07a0.68,0.68,0,0,0-.54,0c-2.37-2.59-5.79-4.36-6.39-8.31l0.42-.44,2.43-.67,1.15,2.34c0.63-.52,1.21-1.43,1.84-1.45,2.71-.11,3.9-1.71,4.54-4l1.44-1.24Z" transform="translate(-656.26 -303.7)"/><path class="o" d="M805.49,591.72a51.12,51.12,0,0,0,6-3.57c2.65-2.08,5-4.49,7.54-6.75l1.63-.54,2.14,3.62-1.5,4.43-2,2.59-0.1-.07-7.17,4.23c-1.17-1-2.44-3-3.49-2.89a83.4,83.4,0,0,0-10.45,2.32c-0.77-1.4-1-2.49,1.18-2.66S803.43,592,805.49,591.72Z" transform="translate(-656.26 -303.7)"/><path class="l" d="M776.78,560.58L773.15,569l-4.23-7.72c-0.21-3-2-6.12.37-9l1.57-2c0.3,3.64,1.39,5.77,5,3.89l-0.77,6.91Z" transform="translate(-656.26 -303.7)"/><path class="i" d="M765.35,583.64L765,582l0.93-5.24L771,577c0.54,1.36,1.09,2.72,1.62,4.08,1.32,3.42-.62,7.66,2.64,10.6-1.3,2.52-1.92.13-2.52-.46C770.23,588.76,767.81,586.18,765.35,583.64Z" transform="translate(-656.26 -303.7)"/><path class="g" d="M720.82,622.48c0.24,1.27,1.06,2.79.63,3.77-1.53,3.46-3.47,6.74-5.28,10.07a5.22,5.22,0,0,1-1.25.88c-1.1-3.8-3.88-6.89-.88-11.11,1.16-1.63.92-4.2,1.5-6.3A13.9,13.9,0,0,1,717,617c0,2.39,0,4.78,0,7.71Z" transform="translate(-656.26 -303.7)"/><path class="l" d="M786,581.75c-0.64,2.32-1.84,3.92-4.54,4-0.62,0-1.21.93-1.84,1.45l-1.15-2.34c-2.61-2.7-.86-5.63-0.43-8.49h0l4.39-.27Z" transform="translate(-656.26 -303.7)"/><path class="e" d="M698,662.7c0.05-2.05.14-4.11,0.15-6.16,0-7,.1-14.08.08-21.12,0-1.76-.32-3.51-0.34-5.27a2.79,2.79,0,0,1,1-1c0.62,4.92,1.32,9.83,1.79,14.77,0.11,1.18-.89,2.45-0.83,3.65,0.13,2.73,1.08,5.49.8,8.15C700.44,658.1,701.36,661.34,698,662.7Z" transform="translate(-656.26 -303.7)"/><path class="e" d="M744.38,580.94l-0.65,3.41-1.16.08c-0.12-4.12-.3-8.24-0.28-12.36,0-.56,1.08-1.11,1.65-1.66l4.71,6.15,3.54-.61,8.16-1.08,0.27,0.78-7.77,2.43c-1.85-.12-3.71-0.2-5.56-0.35C744.92,577.54,743.8,578.45,744.38,580.94Z" transform="translate(-656.26 -303.7)"/><path class="e" d="M760.84,572.6l-7.59-1.18-6.69-2.48c-0.45-2.37.46-3,3.3-2.51,3.09,0.51,6.21.8,9.31,1.19C762.27,568.44,762.78,570.11,760.84,572.6Z" transform="translate(-656.26 -303.7)"/><path class="n" d="M775.28,591.69c-3.25-2.94-1.32-7.18-2.64-10.6-0.53-1.37-1.08-2.72-1.62-4.08l1.78-4.82,6.71,3.41-1.43.83h0c-0.7.46-2,.88-2,1.39-0.17,2.58,0,5.18,0,7.77l-0.42.44a2.53,2.53,0,0,0-1,.91,18.78,18.78,0,0,0,.54,2.8Z" transform="translate(-656.26 -303.7)"/><path class="a" d="M721.41,584.42L715,591.85,720,572.39l0.15,0.14,0.17-.12,1,3.08c-0.1,1.63-.3,3.26-0.29,4.88A39.12,39.12,0,0,0,721.41,584.42Z" transform="translate(-656.26 -303.7)"/><path class="l" d="M766.35,559.24l-10-9,0.31-.7,6.72,1.07C767.27,552.38,768.2,555.07,766.35,559.24Z" transform="translate(-656.26 -303.7)"/><path class="h" d="M772.81,572.19L771,577l-5.09-.25,1.3-5.73,1.08-1.58Z" transform="translate(-656.26 -303.7)"/><path class="l" d="M775.28,591.69l0-2,2,6.6-11.18-8-2-3.6,0.67-.51,0.64-.59c2.46,2.54,4.87,5.12,7.4,7.59C773.36,591.82,774,594.21,775.28,591.69Z" transform="translate(-656.26 -303.7)"/><path class="g" d="M746.56,568.95l6.69,2.48-2.64.35,1.6,4.18-3.54.61L744,570.41Z" transform="translate(-656.26 -303.7)"/><path class="g" d="M744.38,580.94c-0.58-2.49.54-3.4,2.93-3.21,1.85,0.15,3.71.23,5.56,0.35-2.4,1.29-4,2.93-3.69,6,0.08,0.81-1.31,1.78-1.93,2.56Z" transform="translate(-656.26 -303.7)"/><path class="l" d="M767.23,571l-1.3,5.73L765,582l-1.83-8.29-2.25-1-0.09-.09c1.95-2.49,1.43-4.16-1.66-5,0.22-1.81,1.84-2.6,2.58-1.3a7.78,7.78,0,0,0,5.05,3.87A1.8,1.8,0,0,1,767.23,571Z" transform="translate(-656.26 -303.7)"/><path class="e" d="M720.82,622.48L717,624.75c0-2.93,0-5.32,0-7.71l1.09-4.4,0.85,0.16,2,8v0.06Z" transform="translate(-656.26 -303.7)"/><path class="e" d="M732.1,516.19a1.85,1.85,0,0,1,.88.41c0.42,1.44.76,2.91,1.12,4.37l3.58,10.71C734.5,527,731.65,522.18,732.1,516.19Z" transform="translate(-656.26 -303.7)"/><path class="e" d="M735.15,545.63l-2.32-4.13c2.36-3,2.39-3,6.17-1.06Z" transform="translate(-656.26 -303.7)"/><path class="e" d="M698.59,681.9a58.88,58.88,0,0,1-.7-6.24c0-3.36.19-6.72,0.31-10.07a3.13,3.13,0,0,1,1.23.79C699.21,671.56,698.89,676.73,698.59,681.9Z" transform="translate(-656.26 -303.7)"/><path class="k" d="M766.35,559.24c1.85-4.17.91-6.86-3-8.58l2.49-1.57,3.42,3.2c-2.4,2.92-.59,6-0.37,9Z" transform="translate(-656.26 -303.7)"/><path class="o" d="M784.47,548.46l5-5.19C789.47,548.16,788.62,549,784.47,548.46Z" transform="translate(-656.26 -303.7)"/><path class="l" d="M832,568.85l-3.41,2.73q0-4.88,0-9.75l1.45,3.48,3.16,0.39Z" transform="translate(-656.26 -303.7)"/><path class="e" d="M740.56,566.09l-10.54,2C729.79,563.46,734.45,563.19,740.56,566.09Z" transform="translate(-656.26 -303.7)"/><path class="i" d="M786,581.75l-3.56-5.6,1.08-2.64,2.75,1.59,1.17,5.41Z" transform="translate(-656.26 -303.7)"/><path class="e" d="M721.41,584.42a39.12,39.12,0,0,1-.44-4c0-1.63.18-3.25,0.29-4.88C724.12,578.11,724.2,582.39,721.41,584.42Z" transform="translate(-656.26 -303.7)"/><path class="n" d="M822.8,584.48l-2.14-3.62,2.45-2.88,0.76,0.22q0,2.33,0,4.65Z" transform="translate(-656.26 -303.7)"/><path class="g" d="M720.3,572.42l-0.17.12-0.15-.14-0.73-5.22,5.74-.77,0.32,1.16C723.59,569.13,719.67,568.6,720.3,572.42Z" transform="translate(-656.26 -303.7)"/><path class="o" d="M776.78,560.58l-1.7.53,0.77-6.91a1.88,1.88,0,0,1,.49-0.38C778,554.91,778.24,559,776.78,560.58Z" transform="translate(-656.26 -303.7)"/><path class="p" d="M787.47,580.51l-1.17-5.41,4.51-.2Z" transform="translate(-656.26 -303.7)"/><path class="g" d="M742.57,584.44l1.16-.08,0.31,5.74-0.67.06Z" transform="translate(-656.26 -303.7)"/><path class="e" d="M760.93,572.69l2.25,1Z" transform="translate(-656.26 -303.7)"/><path class="e" d="M700.33,681.9l-0.06,1.26-0.36-.1,0.47-1.14h0Z" transform="translate(-656.26 -303.7)"/><path class="l" d="M764,584.74l-0.59-1,1.27,0.45Z" transform="translate(-656.26 -303.7)"/><path class="e" d="M700.38,681.91h0Z" transform="translate(-656.26 -303.7)"/><path class="g" d="M721,620.82v-0.06h0.47Z" transform="translate(-656.26 -303.7)"/><path class="b" d="M727.44,344.78c4.9,1.61,10,1.24,14.39,4.75,2,1.58,6.39.64,9.55,0.06A43.09,43.09,0,0,0,762.53,346c4.08-2,8.05-1.85,12.27-1.22a3.44,3.44,0,0,0,2.59-1.29c2.26-2.89,5.68-3.2,8.77-4.22,2.7-.89,4.81.54,4.17,3.28-0.88,3.83-2,7.87-4.13,11.07-1.38,2.06-4.7,3-7.29,4a94,94,0,0,1-9.05,3c-1,.31-2.67.79-3.18,0.31-3.15-3.05-6.27-.66-8.85.38-3.27,1.32-5.84-1.49-8.83-.46a14.87,14.87,0,0,1-3.78.55c-1.77.12-3.55,0.14-5.32,0.18a6.23,6.23,0,0,0-1.89-.05c-6.34,2.42-11.79.26-16.69-3.55-1.76-1.37-2.45-4-5.28-4.28-0.24,0-.82-2.45-0.4-2.83a31.85,31.85,0,0,1,6.23-4.53C723.57,345.51,725.61,345.29,727.44,344.78Z" transform="translate(-656.26 -303.7)"/><path class="a" d="M700.85,409.23a5,5,0,0,0-.9-2c-4.15-3.14-4.17-3.11-2.07-7.22l11.25-2.86,6.66-.29,20.39,0.34,12.31,2.09,2.13,0,6.29-.74,5.69,0-1,.65-4.39,3.76-0.75,2.33,0.17,4,0.47,1.34-2,.79a6.21,6.21,0,0,0-5.23-3.84l3.78-1.15c-0.31-1.52.25-3.9-2.63-3.76-2.52.13-6.43-1.86-5.95,3.67l-2.29-1.77c-3.89-2.42-7.59-5.36-12.62-4.77a0.25,0.25,0,0,0-.26-0.2l-1.33-.34-18.72.09-2.11.67c-3.09.51-5.9,1.37-6.43,5.1Z" transform="translate(-656.26 -303.7)"/><path class="a" d="M790.79,394.14L802,396.61l1.75,6.53-0.23,0-0.82.18-0.5,1.19L801.39,406l-0.66,4.63-1.28-1.34,0-4.13c2.41-2.15.89-3.71-.79-5.24l-6.7-3.08-3.3-.23-17.55,1.23-2.86.65-3-.29c1-.72,1.89-1.92,3-2.08,4.67-.69,9.38-1.07,14.08-1.56Z" transform="translate(-656.26 -303.7)"/><path class="h" d="M782.3,394.55c-4.7.49-9.41,0.88-14.08,1.56-1.06.16-2,1.36-3,2.08l-1.47.09a0.38,0.38,0,0,0-.47.12l-0.73.13-5.69,0a11.93,11.93,0,0,1,1.62-1.67c1.78-1.26,3.63-2.42,5.45-3.62l1.12-.25,2.2-.36,6.67-.46a42.38,42.38,0,0,1,5.32.67A12.67,12.67,0,0,1,782.3,394.55Z" transform="translate(-656.26 -303.7)"/><path class="h" d="M736.18,397.23l-20.39-.34a62.79,62.79,0,0,1,6.41-2.15c2.73-.62,5.55-0.88,8.32-1.3l1,0.22Z" transform="translate(-656.26 -303.7)"/><path class="g" d="M804.06,358.44c0.65,1,1.8,1.9,1.85,2.89,0.33,6,.41,12,0.57,18-0.61-2.13-1.34-4.24-1.78-6.41-0.39-1.93-.21-4-0.72-5.88C803.19,364.09,802.52,361.29,804.06,358.44Z" transform="translate(-656.26 -303.7)"/><path class="f" d="M730.52,393.43c-2.78.42-5.59,0.68-8.32,1.3a62.79,62.79,0,0,0-6.41,2.15l-6.66.29c2.62-1.3,5.11-3.2,7.88-3.75,4-.79,8.11-0.61,12.18-0.77A3.27,3.27,0,0,1,730.52,393.43Z" transform="translate(-656.26 -303.7)"/><path class="g" d="M798,336.49l5.4,2.35-0.08.41h-2.6l4.23,5.48-0.73.83-3.48-1.84h0l-0.38-.58-0.18.49-0.42.33C797.22,341.91,797.94,339.12,798,336.49Z" transform="translate(-656.26 -303.7)"/><path class="f" d="M764,393.27c-1.82,1.2-3.67,2.36-5.45,3.62a11.93,11.93,0,0,0-1.62,1.67l-6.29.74c2.77-5,8-5.21,12.65-6.59A1.81,1.81,0,0,1,764,393.27Z" transform="translate(-656.26 -303.7)"/><path class="f" d="M736.18,397.23l-4.63-3.58c4.52,1.25,9.06,2.43,13.55,3.78a17.55,17.55,0,0,1,3.38,1.89Z" transform="translate(-656.26 -303.7)"/><path class="g" d="M800.7,343.73c0.34,0.8.47,1.88,1.07,2.34,4,3,1.52,6.43.77,9.74-1-3.94-4.1-7.38-2.82-11.86l0.42-.33,0.56,0.1h0Z" transform="translate(-656.26 -303.7)"/><path class="f" d="M782.3,394.55a12.67,12.67,0,0,0-3-1.69,42.38,42.38,0,0,0-5.32-.67,14.91,14.91,0,0,1,3.61-.91c4.59,0,9.1.59,13.21,2.87Z" transform="translate(-656.26 -303.7)"/><path class="h" d="M803.8,403.14L802,396.61l1.87-.2,2.22,0.72,0.9,1.26-1.72,4.08Z" transform="translate(-656.26 -303.7)"/><path class="f" d="M767.3,392.65l-2.2.36Z" transform="translate(-656.26 -303.7)"/><path class="a" d="M830.82,559.86c1-3,1.63-4.51,4.51-5.33,3.23-.92,5.87-3.78,8.91-5.56a5.56,5.56,0,0,1,3.35-.19c0.26,0,.47,1.35.43,2.07a1.88,1.88,0,0,1-.9,1.22c-3.74,2.17-7.46,4.37-11.29,6.37C834.49,559.14,832.87,559.3,830.82,559.86Z" transform="translate(-656.26 -303.7)"/><path class="a" d="M832,568.85l1.22-3.15h5l0,0.55-4.84,2.28,0.4,1.17h4.49l-0.13,1.13-2.49.34-6,4.52c-0.36-.85-0.57-2.2,1.15-3.65C831.48,571.38,831.57,569.93,832,568.85Z" transform="translate(-656.26 -303.7)"/><path class="c" d="M803.8,403.14l1.51-.66c3.05,0.53,3,3.57,4.36,5.45q0,1.65.07,3.3l1.52,2.18L816,416l-0.47,6,0.7,0.17,3.85-7.42,0.84-1.59c1.5-3.16.59-4.37-4.24-5.71l-2.05.3-2.41-.22,1.29-3.41,5.28-3.65,2.07,2.66c1,3,2,6,3,9a3.53,3.53,0,0,0,1.08,1L825.8,414q0,0.55,0,1.09l-0.29.84-6.16,17.24-1.42,1.07-0.18.19-2,1.76a0.64,0.64,0,0,0-.48.25l-1.39.53h-3.57L809,435.83v-0.22c0.4-3.45-1.4-7.27,1.37-9.88l-2.75-13.48a23.62,23.62,0,0,0-1.2,2.44c-1.79,5.51-3.47,11-5.33,16.53-0.93,2.75-1.62,5.78-5.51,6.1-1.15.09-2.15,1.52-3.34,1.77-3.48.73-7,1.16-10.54,1.78a3.48,3.48,0,0,0-1.17.89l-2.39-1.91c-1.71-5-5.67-7.44-10.22-9.29a4.32,4.32,0,0,0-1.35.83,18.64,18.64,0,0,0-1.3,2.38c-1.1-.34-2.44-0.39-3.25-1.07-2.3-1.94-3.7-1-4.92,1.14l-10.48.07-3.47-.67-5.21,2.13-0.28-.74,0.94-3.75-0.77-.57c-1.73,5-7.66,4.6-10.13,9.45-2.93,5.74-11.91,5.78-16.65,1.09-3-3-6.48-5.65-9.13-8.95-3.71-4.61-4.81-10.16-3.8-16,0.22-1.31.58-2.59,0.87-3.89,0.72,8.67,6.24,14.91,15.23,16.18a116.84,116.84,0,0,0,16.49.64,10.53,10.53,0,0,0,9.93-6.23c2-4.22,3.59-8.67,5.36-13l3.06-2.14,0.81,0.13a6.21,6.21,0,0,1,5.23,3.84c1.94,3.57,3.68,7.27,5.86,10.69a10.18,10.18,0,0,0,9.95,5c6.38-.66,12.83-1.18,19-2.63,8.44-2,10.52-5.12,10.78-13.8l0.66-4.63,0.85-1.47,0.5-1.19,0.82-.18Z" transform="translate(-656.26 -303.7)"/><path class="h" d="M810.79,359.78a5.36,5.36,0,0,1,3,5.42c-0.13,5.45.37,10.92,0.51,16.38,0,0.67-.58,1.36-1.24,2.78-2.44-5.79-6.89-10.19-3.31-16.73C810.86,365.53,810.45,362.57,810.79,359.78Z" transform="translate(-656.26 -303.7)"/><path class="c" d="M807,398.39l-0.9-1.26a2.3,2.3,0,0,1,.49-1.07c3.5-1.65,7-3.27,10.55-4.82,3.07-1.34,5.82-.44,8.32,2.59l-1.89.84L818.42,397l-5.79,4.1-2-3.52Z" transform="translate(-656.26 -303.7)"/><path class="g" d="M823.6,394.68l1.89-.84c0.86,2.08,2.52,4.21,2.42,6.24-0.24,4.67-1.35,9.3-2.1,13.95l-0.81-.79c0.45-4.26,1-8.51,1.29-12.78a8.64,8.64,0,0,0-.75-2.77Z" transform="translate(-656.26 -303.7)"/><path class="g" d="M809.47,352.77c-3.55-.41-4.26-1.39-3.56-6.53L810.4,352Z" transform="translate(-656.26 -303.7)"/><path class="g" d="M815.77,436.22l2-1.76-1,2.13Z" transform="translate(-656.26 -303.7)"/><path class="g" d="M817.9,434.27l1.42-1.07Z" transform="translate(-656.26 -303.7)"/><path class="g" d="M825.48,416l0.29-.84Z" transform="translate(-656.26 -303.7)"/><path class="g" d="M804.71,460l0.53-1.38Z" transform="translate(-656.26 -303.7)"/><path class="c" d="M770.51,485.11a2.37,2.37,0,0,0-.6.28c-2.29,0-4.85-.36-4.83,3.18l-1.77-.13c-2.93-.16-5.87-0.24-8.79-0.5-4.81-.42-9.62-1-14.43-1.46-1.23-1.32-2.47-2.63-3.69-4-1.39-1.52-4.15-3.31-3.91-4.53,1-5.26-2.72-9.13-3.28-13.88-0.38-3.21-.24-4.07,3.06-4.54l1.22,0.23,1.36,0.49,0.94,2.43,3.28,6.65-0.72,6.55-0.16.45,0.45-.16c0.5,0.18,1.3.22,1.46,0.56,1.48,3.15,4.07,4.21,7.32,4.06,1.9-.09,4-1,5.65-0.35,5,1.86,7.21-1.78,10.07-4.3a47.71,47.71,0,0,0,3.48-3.4,26.31,26.31,0,0,0,1.85-2.52c-2.83-1.64-.9-4.13-1.12-6.24,0-.2,0-0.4,0-0.6l1.19-2,4-4.29,1.4-1.1c5.38,0.75,1.93,5,3,7.64l1.74-.26L778.58,466q-0.45,2.64-.9,5.27l-3.08,1,1.25,3.74-0.54,2.08Z" transform="translate(-656.26 -303.7)"/><path class="e" d="M767.85,497.32c-2.11,2.83-9,4.65-12.55,3.57-2.94-.9-6-1.35-9-2.13s-6.53-.89-7.73-4.71l3.15-.48-0.77-3.23a10.56,10.56,0,0,1,2.24,1.38c2,2,4.13,1.64,5.37-1h1.33c0.49,2.14,1.25,2.71,2.69,2a5.75,5.75,0,0,0,.6,0l8.22,0.84-1,3h-4.19l-0.14,1.09c1.39,0.31,2.8,1,4.17.86C762.81,498.34,765.32,497.74,767.85,497.32Z" transform="translate(-656.26 -303.7)"/><path class="g" d="M778.58,466l0.14-2.62-1.74.26c-1.11-2.63,2.33-6.89-3-7.64l2.09-2.64,3-1.63v0l3.63,1.67c-0.16,1.72-1.31,3.7,1.27,4.69l3.06-3.65c-0.37,3.17,0,6.67-3.93,8.16a1.77,1.77,0,0,0-.93,1.25C781.94,466.26,780.31,466.18,778.58,466Z" transform="translate(-656.26 -303.7)"/><path class="h" d="M767.85,497.32c-2.53.42-5,1-7.59,1.2-1.36.09-2.78-.55-4.17-0.86l0.14-1.09h4.19l1-3,5.79-2.55c0,1.52.56,2.32,1.82,1,0.69-.73.85-2,1.24-3l1.85-1.45,1.9,0.71L773.8,492l-1.27,2-1.32,1.43a1.1,1.1,0,0,0-.06.52l-2.82,1.36h-0.24Zm1.43-2.86L769,494a1.09,1.09,0,0,0-.32.44,1.12,1.12,0,0,0,.28.47Z" transform="translate(-656.26 -303.7)"/><path class="e" d="M719.71,479.34c0.81-3-1.4-4.76-2.74-6.88q-1.69-2.67-3.37-5.35l3-1.79a10.18,10.18,0,0,0,.4,2.58,50.19,50.19,0,0,0,4.06,7.66c1.57,2.17,3.48,4.62,5.81,5.58a15.94,15.94,0,0,1,7,5.35l-1.08,2.06a74,74,0,0,1-6.6-3.78C723.92,483.14,721.87,481.17,719.71,479.34Z" transform="translate(-656.26 -303.7)"/><path class="e" d="M787.14,462.37l2,4,7.83-4.12c-0.58,4.8-5.6,11.49-8.89,12.18-0.73.15-2.51-1-2.47-1.45C786,469.26,786.65,465.58,787.14,462.37Z" transform="translate(-656.26 -303.7)"/><path class="h" d="M732.82,488.55l1.08-2.06,2.53,1.37,1.88,1.17,1.27,0h0.1l1.26,1.3,0.78,3.22-3.15.48C735.77,493.14,733.36,491.82,732.82,488.55Z" transform="translate(-656.26 -303.7)"/><path class="h" d="M778.13,439.84l2.39,1.91,1,1.28,2.18,4.77-0.3,2.29-0.69,1.28c-0.33-5-4.26-7.41-7.61-10.21l-1.39-3.64,0.1,0Z" transform="translate(-656.26 -303.7)"/><path class="c" d="M782.72,451.38l0.69-1.28,3.55,2.57q0,0.88.05,1.76l-3.06,3.65c-2.58-1-1.43-3-1.27-4.69Z" transform="translate(-656.26 -303.7)"/><path class="e" d="M773.8,492l0.2-3.73,3.09-4.57C778.5,488.38,777.48,490.49,773.8,492Z" transform="translate(-656.26 -303.7)"/><path class="g" d="M787,452.67l-3.55-2.57,0.3-2.29a9.29,9.29,0,0,1,2.58.54,19.17,19.17,0,0,1,2.72,2.09Z" transform="translate(-656.26 -303.7)"/><path class="g" d="M770.51,485.11l4.8-7C776.06,481.81,773.34,485.79,770.51,485.11Z" transform="translate(-656.26 -303.7)"/><path class="g" d="M775.85,476l-1.25-3.74,3.08-1C779.76,473.31,779.19,474.76,775.85,476Z" transform="translate(-656.26 -303.7)"/><path class="g" d="M765.08,488.57c0-3.53,2.54-3.15,4.83-3.18q0,1,0,1.94l0,0.06-1.22,1.41a6.13,6.13,0,0,0-.61.13Z" transform="translate(-656.26 -303.7)"/><path class="e" d="M768.32,497.28l2.82-1.36Z" transform="translate(-656.26 -303.7)"/><path class="e" d="M772.1,487.56L770.25,489l-0.33-.26-0.08-1.37,0-.05Z" transform="translate(-656.26 -303.7)"/><path class="e" d="M771.2,495.41l1.32-1.43Z" transform="translate(-656.26 -303.7)"/><path class="g" d="M758.59,308.31l-0.69-.69Z" transform="translate(-656.26 -303.7)"/><path class="g" d="M773.14,312.81l0.42-.12-0.13.41Z" transform="translate(-656.26 -303.7)"/><path class="f" d="M807.27,438.06l-0.16-.21,0.35,0Z" transform="translate(-656.26 -303.7)"/><polygon class="h" points="71.71 4.9 71.99 4.89 71.95 5 71.71 4.9"/><path class="h" d="M721.81,337l0.16,0.27-0.14-.3Z" transform="translate(-656.26 -303.7)"/><path class="h" d="M727.15,337l0,0Z" transform="translate(-656.26 -303.7)"/><polygon class="h" points="86.73 32.57 86.61 32.78 86.53 32.55 86.73 32.57"/><path class="g" d="M809,435.83l1.34,1.16Z" transform="translate(-656.26 -303.7)"/><path class="g" d="M813.9,437l1.39-.53Z" transform="translate(-656.26 -303.7)"/><path class="l" d="M798.12,595.1a83.36,83.36,0,0,1,10.45-2.32c1-.11,2.32,1.87,3.49,2.89l-1.31,1.18L806,599.08c-0.18-.27-0.34-0.56-0.54-0.81-2-2.54-6.14-3.32-6.3-1.36-0.31,3.67-2.76,4.43-5.39,5.38l-0.46.11h-0.71l-8.51-.77-0.11,0-0.64-1.26v-0.09a5.56,5.56,0,0,1,.14-0.64l2.9-.92-1.95-2.25-1.9-2.18,1.4,0.07,2.69-.57,5.68-.92-0.57,3.75c1.12,0.73,2.22,2,3.36,2.06,2,0,2.93-1.56,2.93-3.57Z" transform="translate(-656.26 -303.7)"/><path class="l" d="M818.91,610.11c-1.19-.08-2.39-0.14-3.58-0.26-1-.1-1.91-0.27-2.87-0.42,0.5-.66,1-1.35,1.52-2a23.74,23.74,0,0,1,2.67-2.74c1.23-1,2.62-1.8,3.94-2.68,0.3,1.8.64,3.59,0.85,5.39a2.47,2.47,0,0,1-.77,1q0,0.63,0,1.25a3.15,3.15,0,0,1-.24.59Z" transform="translate(-656.26 -303.7)"/><path class="i" d="M792.64,602.4h0.71l0.66,0.33-0.19-.44c2.62-.94,5.08-1.7,5.39-5.38,0.16-2,4.29-1.17,6.3,1.36,0.2,0.25.36,0.54,0.54,0.81l-6.58,6.05L799.3,605c-1.12-.42-2.24-0.83-3.35-1.27S793.74,602.85,792.64,602.4Z" transform="translate(-656.26 -303.7)"/><path class="i" d="M787.68,604c1.73,0.62,3.69,1,5.1,2,0.62,0.46.32,2.47,0,3.67-0.15.62-1.22,1-1.87,1.5-0.4-.62-0.85-1.22-1.21-1.87-0.83-1.49-1.61-3-2.41-4.5Z" transform="translate(-656.26 -303.7)"/><path class="i" d="M784,606.45a22.88,22.88,0,0,1-2.66-3.09,20,20,0,0,1-1.36-3.64l3.43,0.57v0.09l0.64,1.26,0.11,0C786.13,603.29,786.27,604.9,784,606.45Z" transform="translate(-656.26 -303.7)"/><path class="l" d="M807.52,613.6V611l2.48,2.77c-0.84,2.89-3.3,3.36-5.74,3.86-0.43-2.41.4-3.79,3-3.77l0.78,0.26Z" transform="translate(-656.26 -303.7)"/><path class="i" d="M801.34,608.43L796,607.11,799.3,605l0.16,0.12,1.92,3.26Z" transform="translate(-656.26 -303.7)"/><path class="i" d="M828.76,624.58l-2.58,1.28,1.69-2.36Z" transform="translate(-656.26 -303.7)"/><path class="i" d="M820.43,610.31a3.15,3.15,0,0,0,.24-0.59l0.64,0.46Z" transform="translate(-656.26 -303.7)"/><polygon class="i" points="164.47 321.43 164.32 321.26 164.5 321.41 164.47 321.43"/><path class="h" d="M801.38,608.4l-1.92-3.26,6.58-6.05,4.71-2.24a10.41,10.41,0,0,1-.73,2.78c-1.85,3.11-3.83,6.14-6,9.55Z" transform="translate(-656.26 -303.7)"/><polygon class="h" points="145.79 309.38 145.94 309.56 145.76 309.42 145.79 309.38"/><path class="i" d="M819.32,591.5l2-2.59c1.13,0.34,2.48.41,3.34,1.09s1.3,2,1.93,3.06c-1,.35-2.2,1.19-3,0.93A20.55,20.55,0,0,1,819.32,591.5Z" transform="translate(-656.26 -303.7)"/><path class="l" d="M835.57,571.17l2.49-.34a12.26,12.26,0,0,1-1.63,2.35c-1.19,1.08-3.4,1.62-1.6,3.9-1.3,1.42-2.19.53-1.85-.73C833.47,574.52,834.67,572.88,835.57,571.17Z" transform="translate(-656.26 -303.7)"/><path class="i" d="M777.24,596.32l-2-6.6a18.78,18.78,0,0,1-.54-2.8,2.53,2.53,0,0,1,1-.91c0.6,3.95,4,5.72,6.39,8.31l0.1,4-2.25.83-2.62-1.43Z" transform="translate(-656.26 -303.7)"/><path class="h" d="M779.9,599.16l2.25-.83,1.39,1.33a5.56,5.56,0,0,0-.14.64l-3.43-.57Q779.94,599.44,779.9,599.16Z" transform="translate(-656.26 -303.7)"/><path class="f" d="M736.43,487.86l-2.53-1.37a15.94,15.94,0,0,0-7-5.35c-2.33-1-4.24-3.41-5.81-5.58A50.19,50.19,0,0,1,717,467.9a10.18,10.18,0,0,1-.4-2.58l-3,1.79-0.81-.11c0-2.29,0-4.59,0-6.89-2.76-.54-5.87-4.73-5.5-7.47-4.17-.92-5.06-2.9-3.74-6.33l-1.73-5c3.24,1.69,6.5,3.36,9.73,5.08,3.45,1.84,6.83,3,10.48.33,0.66-.49,1.87-0.25,2.83-0.34-2.29,2.17-2.63,4.85-2,7.77-1.48-.15-2.46-3.17-4.17-1a4.68,4.68,0,0,0-.64,4.11,34.83,34.83,0,0,0,5.08,7.15c0.73,0.81,2.39.8,3.5,1.12,0.73,2,1.61,4.26,2.42,6.59,0.25,0.71.64,1.69,0.36,2.22-1.68,3.19.52,4.82,2.37,6.73s3.23,3.72,4.83,5.59Z" transform="translate(-656.26 -303.7)"/><path class="e" d="M701.82,441.25l1.73,5c-1.32,3.43-.44,5.41,3.74,6.33-0.37,2.74,2.75,6.93,5.5,7.47,0,2.31,0,4.6,0,6.89-1.22-.87-2.46-1.69-3.63-2.62-1-.79-1.87-1.7-3.23-3l0.28-2.13a0.75,0.75,0,0,0-.14-0.32c-5.64-1.34-3.33-6.84-5.26-10.12-1.16-2-2.06-4.09-3.08-6.14l1.15-2.95,2.24,0.87Z" transform="translate(-656.26 -303.7)"/><path class="f" d="M701.13,440.61l-2.24-.87-1.15,2.95-2-.08,0-1.46,1.33-3.89q-0.18-1.5-.35-3,0-2,0-4l0.29-.69C700.06,432.65,701,436.47,701.13,440.61Z" transform="translate(-656.26 -303.7)"/><path class="g" d="M697,437.27l-1.33,3.89-1.4.29a4.36,4.36,0,0,1-.56-0.16l-0.71-.6-1.37-1.31-1.06-.91-1.47-3.9a12.68,12.68,0,0,1,2.36,1.52C693.13,437.74,694.88,438.34,697,437.27Z" transform="translate(-656.26 -303.7)"/><path class="g" d="M688.59,431.85l0.56,2.14Z" transform="translate(-656.26 -303.7)"/><path class="e" d="M694.3,441.46l1.4-.29,0,1.46Z" transform="translate(-656.26 -303.7)"/><path class="f" d="M725.18,494.78l0.46,1.39Z" transform="translate(-656.26 -303.7)"/><path class="e" d="M690.61,438.48l1.06,0.91Z" transform="translate(-656.26 -303.7)"/><path class="e" d="M693,440.7l0.71,0.6Z" transform="translate(-656.26 -303.7)"/><path class="h" d="M722.81,454.09c-0.59-2.93-.25-5.61,2-7.77a0.72,0.72,0,0,0,.36-0.25l1.58-1.89,3.13-2.68,0.89,0.28,0,1.47-0.59,1.7-1.43,2.14-1.15.62a44.45,44.45,0,0,0-3.12,4.41c-0.14.25,1.45,1.82,1.5,1.77,2.64-1.92,5.17-1.08,7.76.08,0.37,0.17,1-.35,1.58-0.56,3.1-.34,6.19-0.7,9.29-1a16,16,0,0,1,1.88,0l2.68,1,9-1.2,4.51-1.12,7.29-.28,9.7-2.45-0.61,3.35v0l-3,1.63L773.93,456l-1.41,1.1-9.31,4.2-2.53.46-1.82.53-6.24,1.52-1.47,0-1.21,0-1.46.06-0.91-.18c-2.61-.66-5.23-1.31-7.84-2-1.63-.43-3.25-0.92-4.88-1.39l-1.36-.49-1-1.11L730,457.48c-1.64-2.17-3.73-2.58-6.18-1.55ZM745,459.54c2.21,2.56,5.1,2.41,8,2,2.38,0.59,9-1.19,10.79-2.92,2-.08,3.15-1,2.54-3-0.12-.4-2.05-0.24-3.15-0.33l-10.09,2-0.91-.23-1.77-.59-3.24.36-8-.42c0,2.73.29,4.12,2.87,3.17A8.74,8.74,0,0,1,745,459.54Z" transform="translate(-656.26 -303.7)"/><path class="f" d="M762.68,451.09l-4.52,1.12c-1.45-.91-3.4-2.89-4.24-2.49-1.69.79-5.22,0-4.74,3.7l-2.68-1c0.09-.44.15-0.88,0.27-1.3,1.39-5.24.9-6-3.91-8.18a57.38,57.38,0,0,1-6.22-3.71l-0.74-1.31c0-.17,0-0.34,0-0.52l4-.1,0.3,0.34c-1.12,2.1-.12,2.6,1.87,2.9a28,28,0,0,1,7.28,1.84,9.26,9.26,0,0,0,9.67-.93c1.75-1.21,4.1-1.55,6.18-2.28l-1.26,6.72C762.5,446.64,760.46,448.08,762.68,451.09Z" transform="translate(-656.26 -303.7)"/><path class="m" d="M691.61,413.2l4.13-1.45a19.36,19.36,0,0,0,.06,2.32c0.35,2.49-.45,4.16-3.17,4.29-3,.14-1.89-2.36-2.36-3.84l0.11-.08Z" transform="translate(-656.26 -303.7)"/><path class="q" d="M690.43,403.15l1.26,0.78L691,407l-1.22.9-3.47.65a4.14,4.14,0,0,1,0-.59l-0.64-4.14,0,0,0.66-.67a1,1,0,0,0,0-.58Z" transform="translate(-656.26 -303.7)"/><path class="m" d="M735.89,437.91l0.74,1.31c-1.09.86-2.15,1.77-3.28,2.56a28.55,28.55,0,0,1-2.58,1.46c0-.49,0-1,0.05-1.47L729.87,440c0.18-2.11.95-3.15,3.29-2.16A7.47,7.47,0,0,0,735.89,437.91Z" transform="translate(-656.26 -303.7)"/><path class="m" d="M739.87,437.3l-4,.1,1.79-2.76,0.28,0.74L741.3,436Z" transform="translate(-656.26 -303.7)"/><path class="f" d="M726.8,444.17l-1.58,1.89Z" transform="translate(-656.26 -303.7)"/><path class="f" d="M729.87,440l0.95,1.74-0.89-.28Q729.9,440.76,729.87,440Z" transform="translate(-656.26 -303.7)"/><path class="c" d="M742.45,409.31c-0.69,6.33-1.44,12.63-8.59,15.36-5.94.38-11.88,0.76-17.82,1.17a1.33,1.33,0,0,0-.29.56c-9.64-1.19-11.39-.9-14.26-14,0-.22-0.08-0.44-0.12-0.65l2.08,3.46,5.27-3.74,3.49-.12,2.28,1.76c1.81,0.74,3.61,2,5.44,2.1,4.08,0.16,8.18-.47,12.26-0.45A11.38,11.38,0,0,0,742.45,409.31Z" transform="translate(-656.26 -303.7)"/><path class="f" d="M712.22,411.39l-3.49.12c-2.23-.36-4.16-0.95-3.17-4.09l3.44,0.41-1.53-2.68,0.26-5.17,2.11-.67a15.48,15.48,0,0,1,2.2.58c2.61,1.1,5.2,2.27,7.8,3.41-2.66,1.42-6.57.89-7.79,5.14h17l1.31-1.29,0.09-.11,0.82-.05,0.17,0.08,3.33,1.29,2.25,0,4.78-1,0.79-1.49-0.13,3.47a11.38,11.38,0,0,1-10.23,5.49c-4.09,0-8.19.61-12.26,0.45-1.84-.07-3.63-1.36-5.45-2.1Zm17.92,0.15-13.22-1C720.34,414,725.93,414.26,730.14,411.55Z" transform="translate(-656.26 -303.7)"/><path class="e" d="M742.57,405.85l-0.79,1.49-4.78,1a4.34,4.34,0,0,0-3.52-4.42c-1.44-.4-2.91-0.7-4.37-1.05l1-3.16c5-.6,8.73,2.34,12.62,4.77Z" transform="translate(-656.26 -303.7)"/><path class="g" d="M707.47,405.14l1.53,2.68-3.44-.41c-1,3.14.94,3.73,3.17,4.09l-5.27,3.74-2.08-3.46-0.53-2.56,0.46-4.16C703.38,402.91,705.42,404.78,707.47,405.14Z" transform="translate(-656.26 -303.7)"/><path class="g" d="M715.75,426.41a1.33,1.33,0,0,1,.29-0.56c5.94-.41,11.88-0.79,17.82-1.17-0.55.42-1.09,1.17-1.66,1.2C726.72,426.12,721.24,426.25,715.75,426.41Z" transform="translate(-656.26 -303.7)"/><path class="a" d="M749.05,407.41L746,409.55C746.05,407.47,747.41,407.23,749.05,407.41Z" transform="translate(-656.26 -303.7)"/><path class="r" d="M686.34,408.59l3.47-.65-2.1,6Z" transform="translate(-656.26 -303.7)"/><path class="g" d="M696.71,430.31q0,2,0,4C694.49,432.94,694.6,431.62,696.71,430.31Z" transform="translate(-656.26 -303.7)"/><path class="g" d="M691.61,413.2l-1.24,1.25Z" transform="translate(-656.26 -303.7)"/><path class="r" d="M685.65,403.86l0.64,4.14Z" transform="translate(-656.26 -303.7)"/><path class="r" d="M686.35,403.16l-0.66.67Z" transform="translate(-656.26 -303.7)"/><path class="s" d="M791.79,596.64l0.57-3.75,3.47-2.11,6.21-1.24,3.45,2.18c-2.06.25-4.12,0.56-6.19,0.73s-2,1.25-1.18,2.66l0,0Z" transform="translate(-656.26 -303.7)"/><path class="t" d="M802,589.54l-6.21,1.24,1.45-7.18,0.3,4.19,3.09-1.4Z" transform="translate(-656.26 -303.7)"/><path class="b" d="M776.07,585.57c0-2.59-.18-5.19,0-7.77,0-.51,1.31-0.93,2-1.39-0.43,2.86-2.18,5.79.43,8.49Z" transform="translate(-656.26 -303.7)"/><path class="o" d="M783.54,599.65l-1.39-1.33-0.1-4a0.68,0.68,0,0,1,.54,0l1.9,2.18,1.95,2.25Z" transform="translate(-656.26 -303.7)"/><path class="u" d="M800.66,586.38l-3.09,1.4-0.3-4.19C800.8,581.6,799.53,585.46,800.66,586.38Z" transform="translate(-656.26 -303.7)"/><path class="o" d="M786.67,593.81l-2.69.57Z" transform="translate(-656.26 -303.7)"/><path class="h" d="M757.22,402.94l4.4-3.76,1.6,3.63,6.11-2.1c3.77,0,7.61-.47,11.3,0,2.78,0.39,5.38,2,8.06,3.11L785.17,406h-1.72c-4.61-1.21-9.81,2.8-14.66-2.9,0.53,4.19-1.68,3.9-3.37,3.71a34.88,34.88,0,0,1-5.54-1.5Z" transform="translate(-656.26 -303.7)"/><path class="f" d="M785.17,406l3.52-2.18,3.39,0.92-1.61,2.14c-1.88,1.25-4,2.84-6.31,4.15-1.59.91-3.4,2.06-5.1,2.05A113.23,113.23,0,0,1,763.16,412c-2.42-.36-3.94-0.3-5,1.94l-1-3.39-0.47-1.34,0.29-1.81c1.9,0.61,2.73-.3,3-2.07a34.88,34.88,0,0,0,5.54,1.5c1.69,0.19,3.9.47,3.37-3.71,4.84,5.7,10,1.7,14.66,2.9a6.2,6.2,0,0,1-1.71,1.24c-3.24.9-6.52,1.68-10,2.55C776.5,412.55,783.43,410.47,785.17,406Z" transform="translate(-656.26 -303.7)"/><path class="h" d="M757.11,410.59l1,3.39c0.5,0.83,1,1.64,1.48,2.48,2.15,3.9,4.55,7.79,9.55,7.84,6.31,0.07,12.63-.38,18.94-0.75,6.83-.4,10.37-4.28,11-11,0.11-1.1.2-2.21,0.3-3.31l1.28,1.34c-0.26,8.67-2.34,11.83-10.78,13.8-6.22,1.45-12.67,2-19,2.63a10.18,10.18,0,0,1-9.95-5c-2.19-3.41-3.93-7.11-5.86-10.69Z" transform="translate(-656.26 -303.7)"/><path class="g" d="M730.15,399.75l-1,3.16-6.63.13-1.34.16-1.3.1c-2.6-1.14-5.19-2.31-7.8-3.41a15.48,15.48,0,0,0-2.2-.58l18.72-.09,1.33,0.34A0.25,0.25,0,0,1,730.15,399.75Z" transform="translate(-656.26 -303.7)"/><path class="f" d="M769.32,400.71l-6.11,2.1-1.6-3.63,1-.65,0.73-.13h0.25l0.22-.12,1.47-.09,3,0.29Z" transform="translate(-656.26 -303.7)"/><path class="c" d="M707.47,405.14c-2.05-.36-4.09-2.23-6.17-0.07,0.53-3.73,3.34-4.59,6.43-5.1Z" transform="translate(-656.26 -303.7)"/><path class="e" d="M759.88,405.37c-0.23,1.77-1.07,2.68-3,2.07l-0.46-2.17,0.75-2.33Z" transform="translate(-656.26 -303.7)"/><path class="h" d="M756.47,405.27l0.46,2.17-0.29,1.81Z" transform="translate(-656.26 -303.7)"/><path class="e" d="M729.89,399.55l-1.33-.34Z" transform="translate(-656.26 -303.7)"/><path class="c" d="M799.45,409.28c-0.1,1.1-.19,2.21-0.3,3.31-0.67,6.68-4.2,10.56-11,11-6.31.37-12.63,0.82-18.94,0.75-5-.05-7.41-3.94-9.55-7.84-0.46-.84-1-1.65-1.48-2.48,1.07-2.24,2.6-2.3,5-1.94A113.23,113.23,0,0,0,779,413.13c1.7,0,3.51-1.14,5.1-2.05,2.29-1.32,4.43-2.9,6.31-4.15l1.61-2.14,1.14,0.59,1,0.15-0.77-.43c0.77-1.35,1.28-2.48-.11-4-0.92-1-1-2.81-1.41-4.25l6.71,3.08,0.79,5.24Z" transform="translate(-656.26 -303.7)"/><path class="g" d="M793.21,405.38l-1.14-.6-3.38-.91c-2.68-1.08-5.28-2.71-8.06-3.11-3.7-.52-7.53-0.08-11.3,0l-1.09-2.23,2.86-.65a6.14,6.14,0,0,0,2,1c4.42,0.29,8.85.46,13.27,0.63a2,2,0,0,0,.81-0.48l-1.44-1.66,2.85-.75,3.3,0.23c0.44,1.44.49,3.24,1.41,4.25,1.39,1.54.88,2.66,0.11,4Z" transform="translate(-656.26 -303.7)"/><path class="c" d="M788.64,396.6l-2.85.75,1.44,1.66a2,2,0,0,1-.81.48c-4.43-.17-8.85-0.34-13.27-0.63a6.14,6.14,0,0,1-2-1Z" transform="translate(-656.26 -303.7)"/><path class="h" d="M799.44,405.15l-0.79-5.24C800.33,401.44,801.84,403,799.44,405.15Z" transform="translate(-656.26 -303.7)"/><path class="h" d="M802.24,404.52L801.39,406Z" transform="translate(-656.26 -303.7)"/><path class="h" d="M803.56,403.15l-0.82.18Z" transform="translate(-656.26 -303.7)"/><path class="a" d="M763.8,398.28l-0.22.12h-0.25A0.38,0.38,0,0,1,763.8,398.28Z" transform="translate(-656.26 -303.7)"/><path class="e" d="M800.68,343.72l-0.56-.1,0.18-.49Z" transform="translate(-656.26 -303.7)"/><path class="g" d="M807,398.39l3.6-.8,2,3.52,0.9,3-1.29,3.41-2.58.36c-1.38-1.88-1.31-4.91-4.36-5.45Z" transform="translate(-656.26 -303.7)"/><path class="m" d="M778.13,439.84l-4.3-2.33-0.38-1.18-0.52.25,0.79,1,1.38,3.64-1.17.15c-0.66-1-1.37-1.94-2-2.95-0.74-1.22-1.4-2.48-1.79-3.18l-3.43,2.91-1-.87-0.47-.43c-2.21-2.18-4.74-1.12-7.21-.72-1.65.19-3.31,0.32-4.95,0.58s-3.12.65-4.69,1l-1.94-1.09v-2c3.14,0.22,6.27.48,9.42,0.58,0.37,0,.76-0.86,1.14-1.32,1.22-2.17,2.62-3.07,4.92-1.14,0.81,0.68,2.15.73,3.25,1.07,3.63,1.19,2.15-1.82,2.65-3.21C772.45,432.4,776.41,434.88,778.13,439.84Z" transform="translate(-656.26 -303.7)"/><path class="m" d="M814.66,407.78l2.05-.3,4.24,5.71-0.84,1.59L816,416l-4.77-2.64,0.08-.85,2.83-.21Z" transform="translate(-656.26 -303.7)"/><path class="v" d="M825.53,397.69a8.67,8.67,0,0,1,.75,2.78c-0.34,4.27-.85,8.52-1.29,12.78a3.56,3.56,0,0,1-1.08-1c-1.05-3-2-6-3-9a29.57,29.57,0,0,0,3.52-1.63,4.43,4.43,0,0,0,1-1.66Z" transform="translate(-656.26 -303.7)"/><path class="m" d="M813.54,404.15l-0.9-3,5.79-4.1,1.17,2.77-0.77.72Z" transform="translate(-656.26 -303.7)"/><path class="f" d="M814.66,407.78l-0.5,4.56-2.83.21-1.59-1.32q0-1.65-.07-3.3l2.58-.36Z" transform="translate(-656.26 -303.7)"/><path class="g" d="M816,416l4.08-1.26-3.85,7.43-0.7-.17Z" transform="translate(-656.26 -303.7)"/><path class="g" d="M757.09,433.83c-0.38.46-.78,1.33-1.14,1.32-3.14-.1-6.28-0.37-9.41-0.58l0.08-.67Z" transform="translate(-656.26 -303.7)"/><path class="r" d="M818.82,400.5l0.77-.72,5.8,0.09a4.43,4.43,0,0,1-1,1.66,29.57,29.57,0,0,1-3.52,1.63Z" transform="translate(-656.26 -303.7)"/><path class="f" d="M746.62,433.9l-0.08.67q0,1,0,2l-6.34,1.09-0.3-.34L741.3,436l1.85-2.76Z" transform="translate(-656.26 -303.7)"/><path class="g" d="M821,413.19l-4.24-5.71C821.55,408.82,822.45,410,821,413.19Z" transform="translate(-656.26 -303.7)"/><path class="g" d="M743.15,433.23L741.3,436l-3.36-.62Z" transform="translate(-656.26 -303.7)"/><path class="g" d="M767.91,430.56c-0.49,1.39,1,4.41-2.65,3.21a18.6,18.6,0,0,1,1.3-2.38A4.32,4.32,0,0,1,767.91,430.56Z" transform="translate(-656.26 -303.7)"/><path class="g" d="M809.75,411.22l1.59,1.32-0.08.85Z" transform="translate(-656.26 -303.7)"/><path class="q" d="M825.39,399.87l-5.8-.09L818.42,397l5.17-2.33,1.93,3Z" transform="translate(-656.26 -303.7)"/><path class="g" d="M738.37,475.93l0.72-6.55,4.78,2.68,3.88,0.09c-0.32,3,1.91,4.07,3.83,3.22,1.63-.72,5.26,1.55,5-2.67,1.81-.85,5-1.45,5.19-2.59,0.64-3.54,3.54-4.3,5.64-6.07,0.22,2.11-1.71,4.6,1.12,6.24a26.31,26.31,0,0,1-1.85,2.52,47.71,47.71,0,0,1-3.48,3.4c-2.86,2.53-5.11,6.17-10.07,4.3-1.61-.61-3.75.26-5.65,0.35-3.25.16-5.84-.91-7.32-4.06-0.16-.34-1-0.38-1.46-0.56Zm15,1.82,0.27,0.55,0.56-.48a1.51,1.51,0,0,0-.43-0.42A1.18,1.18,0,0,0,753.39,477.75Z" transform="translate(-656.26 -303.7)"/><path class="g" d="M730,457.48l2.45,1.21-0.2.89c-3.3.47-3.44,1.33-3.06,4.54,0.55,4.74,4.29,8.62,3.28,13.88-0.23,1.21,2.52,3,3.91,4.53,1.22,1.33,2.46,2.64,3.69,4l-0.26.3-2-.11-1.27-.11c-1.6-1.87-3.12-3.83-4.83-5.59s-4.05-3.54-2.37-6.73c0.28-.53-0.12-1.51-0.36-2.22-0.81-2.32-1.69-4.62-2.42-6.59-1.11-.32-2.77-0.31-3.5-1.12a34.83,34.83,0,0,1-5.08-7.15,4.68,4.68,0,0,1,.64-4.11c1.71-2.13,2.69.88,4.17,1l1,1.85C724.95,459.71,726.9,460.2,730,457.48Z" transform="translate(-656.26 -303.7)"/><path class="w" d="M747.74,472.14l-3.88-.09,0.79-1.81c-1.43-1.19-2.73-2.27-4-3.36-1.62-1.38-3.22-2.77-4.84-4.15l-0.94-2.43c1.62,0.46,3.24,1,4.88,1.39,2.61,0.69,5.22,1.33,7.83,2l-6.7.74c3.42,3.59,6.81,5.3,11.12,5,3.36-.17,6.52-0.81,8.59-3.86l4.49-2-1.85-2.26,9.31-4.2-4,4.28-1.19,2c0,0.2,0,.4,0,0.6-2.1,1.77-5,2.53-5.64,6.07-0.21,1.14-3.37,1.74-5.19,2.59Z" transform="translate(-656.26 -303.7)"/><path class="g" d="M749.89,490.72h-1.33c-2.92-.75-5.55-3.07-8.87-1.65l-0.1,0q0.13-1.13.26-2.25l0.26-.3c4.81,0.49,9.61,1,14.43,1.46,2.92,0.26,5.86.34,8.79,0.5l-3.36,3c-3.12-1.56-4.86-1.26-6.78,1.24a5.83,5.83,0,0,1-.6,0l0-2.8Z" transform="translate(-656.26 -303.7)"/><path class="f" d="M753.18,492.71c1.92-2.5,3.66-2.8,6.78-1.24l3.36-3,1.76,0.13,2.93,0.34L767.19,491l-5.79,2.55Z" transform="translate(-656.26 -303.7)"/><path class="m" d="M735.8,462.73c1.61,1.39,3.22,2.78,4.84,4.15,1.29,1.09,2.59,2.17,4,3.36l-0.79,1.81-4.78-2.68Z" transform="translate(-656.26 -303.7)"/><path class="g" d="M767.37,463.43l1.19-2Z" transform="translate(-656.26 -303.7)"/><path class="w" d="M732.28,459.58l0.2-.89,1,1.11Z" transform="translate(-656.26 -303.7)"/><path class="g" d="M738.66,476.22l-0.45.16,0.16-.45Z" transform="translate(-656.26 -303.7)"/><path class="f" d="M739.68,489.06c3.32-1.42,5.95.9,8.87,1.65-1.24,2.66-3.41,3-5.37,1a10.56,10.56,0,0,0-2.24-1.38Z" transform="translate(-656.26 -303.7)"/><path class="f" d="M749.89,490.72l2.64-.77,0,2.8C751.14,493.43,750.38,492.86,749.89,490.72Z" transform="translate(-656.26 -303.7)"/><path class="f" d="M773.94,441.32l1.17-.15c3.36,2.8,7.28,5.16,7.61,10.21q0,1,0,2l-3.62-1.67c0.17-1,.35-1.92.61-3.35L770,450.81l3.38-3.3,0.76-.8c1.65,0,1.87-.73,1.2-2.09C774.78,443.55,774.39,442.42,773.94,441.32Z" transform="translate(-656.26 -303.7)"/><path class="f" d="M776,453.38l3-1.63Z" transform="translate(-656.26 -303.7)"/><path class="e" d="M767.19,491l0.83-2.09c0.2-.05.4-0.09,0.61-0.13l1.3,0,0.33,0.26c-0.39,1-.55,2.24-1.24,3C767.74,493.32,767.16,492.52,767.19,491Z" transform="translate(-656.26 -303.7)"/><path class="e" d="M769.28,494.46l-0.35.45a1.12,1.12,0,0,1-.28-0.47A1.09,1.09,0,0,1,769,494Z" transform="translate(-656.26 -303.7)"/><path class="f" d="M739.84,486.79q-0.13,1.13-.26,2.25l-1.27,0-0.49-2.35Z" transform="translate(-656.26 -303.7)"/><path class="e" d="M737.83,486.67l0.49,2.35-1.89-1.17,0.13-1.29Z" transform="translate(-656.26 -303.7)"/><path class="f" d="M773.73,437.53l-0.79-1,0.52-.25,0.38,1.18Z" transform="translate(-656.26 -303.7)"/><path class="f" d="M769.92,488.75l-1.3,0,1.22-1.41Q769.88,488.06,769.92,488.75Z" transform="translate(-656.26 -303.7)"/><path class="o" d="M791.79,596.64l6.29-1.51c0,2-.93,3.61-2.93,3.57C794,598.68,792.91,597.37,791.79,596.64Z" transform="translate(-656.26 -303.7)"/><path class="h" d="M793.82,602.28l0.19,0.44-0.66-.33Z" transform="translate(-656.26 -303.7)"/><path class="h" d="M784,601.65l-0.64-1.26Z" transform="translate(-656.26 -303.7)"/><path class="i" d="M807.52,613.6l0.53,0.55-0.78-.26Z" transform="translate(-656.26 -303.7)"/><path class="g" d="M730.76,443.24a28.55,28.55,0,0,0,2.58-1.46c1.13-.79,2.19-1.7,3.28-2.56a57.59,57.59,0,0,0,6.22,3.71c4.81,2.13,5.3,2.94,3.91,8.18-0.11.43-.18,0.87-0.27,1.3a16.26,16.26,0,0,0-1.88,0c-3.1.32-6.19,0.67-9.29,1l-0.1-1.45c3.63-1.42,4.27-2.94,3.18-7.52-0.87.72-1.86,2.18-2.57,2-3.06-.56-3.72,1.56-4.66,3.52l-3.19-.33-0.39-2,1.15-.61,1.43-2.15Z" transform="translate(-656.26 -303.7)"/><path class="g" d="M773.35,447.51l-3.38,3.3-7.29.28c-2.22-3-.17-4.44,1.25-5.21l1.26-6.72,1.56-1.06,3.43-2.91c0.39,0.7,1.05,2,1.79,3.18,0.61,1,1.32,2,2,2.95,0.45,1.1.84,2.23,1.37,3.29,0.67,1.37.45,2.11-1.2,2.09a4.4,4.4,0,0,0-.87-1.71,9.2,9.2,0,0,0-3.37-1.61c-0.3-.06-0.93,1.64-1.41,2.53,1.1,0.58,2.17,1.23,3.32,1.7A3.84,3.84,0,0,0,773.35,447.51Z" transform="translate(-656.26 -303.7)"/><path class="x" d="M752,469.41c-4.31.31-7.7-1.39-11.12-5l6.7-.74,0.92,0.18,1.46-.06,1.21,0,1.47,0,6.24-1.52,1.81-.54,2.53-.46,1.85,2.26-4.49,2-11.92,1.4Z" transform="translate(-656.26 -303.7)"/><path class="c" d="M753.19,457.26l10.09-2,0.61,3.34c-1.83,1.73-8.41,3.51-10.79,2.92Z" transform="translate(-656.26 -303.7)"/><path class="f" d="M727.59,447.7l0.39,2,3.19,0.33,4,1.95,0.1,1.45c-0.53.21-1.21,0.73-1.58,0.56-2.6-1.16-5.12-2-7.76-.08-0.06,0-1.64-1.53-1.5-1.77A44.45,44.45,0,0,1,727.59,447.7Z" transform="translate(-656.26 -303.7)"/><path class="g" d="M753.19,457.26l-0.1,4.3c-2.95.39-5.84,0.55-8-2l2.22-2.73,3.24-.36,1.77,0.59Z" transform="translate(-656.26 -303.7)"/><path class="g" d="M749.18,453.41c-0.49-3.7,3-2.91,4.74-3.7,0.84-.39,2.79,1.59,4.24,2.49Z" transform="translate(-656.26 -303.7)"/><path class="f" d="M747.26,456.81L745,459.54a8.74,8.74,0,0,0-2.93,0c-2.58,1-2.85-.44-2.87-3.17Z" transform="translate(-656.26 -303.7)"/><path class="f" d="M730,457.48c-3.13,2.72-5.08,2.23-6.18-1.55C726.3,454.91,728.39,455.31,730,457.48Z" transform="translate(-656.26 -303.7)"/><path class="g" d="M763.88,458.63l-0.61-3.34c1.1,0.1,3-.07,3.15.33C767,457.6,765.85,458.56,763.88,458.63Z" transform="translate(-656.26 -303.7)"/><path class="f" d="M730.17,444.94l-1.43,2.15Z" transform="translate(-656.26 -303.7)"/><path class="w" d="M752.63,463.83l-1.47,0Z" transform="translate(-656.26 -303.7)"/><path class="w" d="M750,463.8l-1.46.06Z" transform="translate(-656.26 -303.7)"/><path class="w" d="M760.68,461.77l-1.81.54Z" transform="translate(-656.26 -303.7)"/><path class="f" d="M752.28,457l-1.77-.59Z" transform="translate(-656.26 -303.7)"/><path class="h" d="M766.74,438.1l-1.56,1.06c-2.08.73-4.44,1.06-6.18,2.28a9.26,9.26,0,0,1-9.67.93,28,28,0,0,0-7.28-1.84c-2-.3-3-0.8-1.87-2.9l6.34-1.09,1.94,1.09c4.23,2,7.43,1.5,9.63-1.56,2.47-.4,5-1.46,7.21.72l0.47,0.44Z" transform="translate(-656.26 -303.7)"/><path class="g" d="M712.22,411.39l2.28,1.76Z" transform="translate(-656.26 -303.7)"/><path class="h" d="M719.84,403.3l1.3-.1,1.34-.16,6.63-.13c1.46,0.35,2.93.65,4.37,1.05a4.34,4.34,0,0,1,3.52,4.42l-2.25,0-3.33-1.29-0.17-.07-0.82,0-0.09.11L729,408.44h-17C713.28,404.19,717.19,404.72,719.84,403.3Z" transform="translate(-656.26 -303.7)"/><path class="c" d="M730.14,411.55c-4.21,2.71-9.8,2.46-13.22-1Z" transform="translate(-656.26 -303.7)"/><path class="e" d="M731.42,407.06l3.33,1.29Z" transform="translate(-656.26 -303.7)"/><path class="e" d="M729,408.44l1.31-1.29Z" transform="translate(-656.26 -303.7)"/><path class="e" d="M730.43,407l0.82,0Z" transform="translate(-656.26 -303.7)"/><path class="c" d="M785.17,406c-1.74,4.42-8.67,6.5-13.4,3.8,3.46-.87,6.73-1.65,10-2.55a6.2,6.2,0,0,0,1.71-1.24h1.72Z" transform="translate(-656.26 -303.7)"/><path class="f" d="M722.48,403l-1.34.16Z" transform="translate(-656.26 -303.7)"/><path class="g" d="M793.45,405.09l0.77,0.43-1-.15Z" transform="translate(-656.26 -303.7)"/><path class="f" d="M758.09,436.08c-2.2,3.07-5.4,3.58-9.63,1.56,1.56-.33,3.11-0.73,4.69-1S756.44,436.26,758.09,436.08Z" transform="translate(-656.26 -303.7)"/><path class="f" d="M765.78,437.23l-0.47-.44Z" transform="translate(-656.26 -303.7)"/><path class="f" d="M747.74,472.14l8.8,0.55c0.29,4.22-3.35,2-5,2.67C749.65,476.21,747.42,475.15,747.74,472.14Z" transform="translate(-656.26 -303.7)"/><path class="f" d="M753.39,477.75a1.18,1.18,0,0,1,.4-0.34,1.51,1.51,0,0,1,.43.42l-0.56.48Z" transform="translate(-656.26 -303.7)"/><path class="m" d="M752,469.41l-3.33-2.47,11.92-1.4C758.51,468.6,755.36,469.23,752,469.41Z" transform="translate(-656.26 -303.7)"/><path class="c" d="M773.35,447.51a3.84,3.84,0,0,1-1.58.1c-1.15-.47-2.22-1.12-3.32-1.7,0.48-.89,1.11-2.58,1.41-2.53a9.2,9.2,0,0,1,3.37,1.61,4.4,4.4,0,0,1,.87,1.71Z" transform="translate(-656.26 -303.7)"/><path class="c" d="M735.22,452l-4-1.95c0.93-2,1.6-4.09,4.66-3.52,0.71,0.13,1.7-1.33,2.57-2C739.49,449,738.84,450.53,735.22,452Z" transform="translate(-656.26 -303.7)"/></svg>